<svg id="Layer_1" data-name="Layer 1" xmlns="http://www.w3.org/2000/svg" viewBox="0 0 427.14 606.42"><defs><style>.cls-1{fill:#fff;}</style></defs><path class="cls-1" d="M90.62,172.61c-.2,0-.52.07-.78.08C90.57,172.55,90.92,172.45,90.62,172.61Z"/><path class="cls-1" d="M80.32,173.46c2.67-.11,6.86-.53,9.52-.77l-2.33.49c-.93.19-2,.31-3,.44C82.55,173.85,80.73,173.81,80.32,173.46Z"/><path class="cls-1" d="M91.34,173.76c-1.12.19-2.26.24-3.38.36C89.88,173.57,89.59,174.06,91.34,173.76Z"/><path class="cls-1" d="M90,173.28l.12-.31c.6,0,1.2-.06,1.8-.09C91.28,173,90.64,173.18,90,173.28Z"/><path class="cls-1" d="M100.15,49.17c.27.22.41.43.2.53Z"/><path class="cls-1" d="M93.35,45.71c-.65-.21-1.11-.34-1.51-.45A9.76,9.76,0,0,1,93.35,45.71Z"/><path class="cls-1" d="M106.39,51.77c-.39-.2-.81-.36-1.21-.54A6.88,6.88,0,0,1,106.39,51.77Z"/><path class="cls-1" d="M141.07,121.26c-.42,1.2-.95,2.28-1.27,3.13A4.94,4.94,0,0,1,141.07,121.26Z"/><path class="cls-1" d="M57.62,42.72l-.26.33C57,43.07,56.76,43,57.62,42.72Z"/><path class="cls-1" d="M92.39,41.51c0,.14-.09.22-.25.26l-.4-.13Z"/><path class="cls-1" d="M111.22,53.92l.08,0c.29.22.57.45.84.7A2.56,2.56,0,0,1,111.22,53.92Z"/><path class="cls-1" d="M47,46.69a8.92,8.92,0,0,1-1.5.19C46.48,46.46,47.05,46.45,47,46.69Z"/><path class="cls-1" d="M91.66,45.23v0l.19,0Z"/><path class="cls-1" d="M103.4,45.16c-.55-.26-1.06-.53-1.67-.78A5,5,0,0,1,103.4,45.16Z"/><path class="cls-1" d="M141.07,121.26c.12-.34.25-.67.37-1A3,3,0,0,1,141.07,121.26Z"/><path class="cls-1" d="M99.1,169.8c1-.34,1.3-.31,1.55-.21A5.78,5.78,0,0,1,99.1,169.8Z"/><path class="cls-1" d="M77.7,172.29h.42A1.94,1.94,0,0,1,77.7,172.29Z"/><path class="cls-1" d="M40.44,159.35a2.86,2.86,0,0,1-.31-.46C40.44,159,40.53,159.24,40.44,159.35Z"/><path class="cls-1" d="M13.33,132.37a16.19,16.19,0,0,1,.84,2c.27.66.5,1.33.72,2a28.2,28.2,0,0,0,1.42,3.75l-.12-.89c.29.78.59,1.57.94,2.33l.35-.23C19.26,145,22.54,149,23,150.53l.23-.78,1.12,1.89,1.22,1.83c-.43-.73-.86-1.46-1.27-2.2,1.6,1.85,3.55,4.23,5.35,6.12l1.27,1.34,1.11,1.1c.66.65,1.14,1.11,1.34,1.29l-.18-.48a9.65,9.65,0,0,1,1.68,1.53l-.27-.69a41.54,41.54,0,0,0,7,4.71c2.17,1.14,4.38,2.38,8,4.24,2.05.86-1.07-.63-1-.83a10.62,10.62,0,0,1,2.36,1,14.4,14.4,0,0,1,1.87,1c-.39-.78-3.6-1.92-1-1.35,1.58.95-.94-1,2,.35.29.4.6.76.92,1.13,1.74.47.52-.39,3.18.56,3,1.23-4.07-.35.93,1.26,2.58.7,5.72-.17,10.59.89,4.32.09-2.1-1.32,3.76-.58-1.24-.3-2.48-.51-3.69-.87,1-.07.42-.49,2.91-.11a10.93,10.93,0,0,0,3.69.9c-2.74-.39-1.51-.55-.27-.73a4.11,4.11,0,0,0,1.42-.33c.16-.14-.15-.27-1.4-.51.63,0,1.25.07,1.87.06-.23,0-.29-.1-.17-.15l2.48-.08c-.77-.07-2.06-.12-2.94-.21s-1.35-.31-.51-.55c1.18,0,2.35-.1,3.53-.15-1-.4.33-.58.11-.91A65.43,65.43,0,0,1,70.09,169c.36.32,1.8.61,1.23.81a7,7,0,0,1-2.42-.42,8.59,8.59,0,0,0-2.29-.39l1,.54c-.18-.16-.52-.27,0-.2.92-.09,1.27.21,1.25.42-1,.32-3.47-.48-4.16-.9-3.24-.73-.84.57-1.58.52-1.53-1-5.41-1.51-7.26-2.54l1.11.87a10.53,10.53,0,0,1-3.44-1.08,23.87,23.87,0,0,1-2.43-1.4l.38.58c-3.21-1.55-5.39-1.44-7.07-4l.2.4c-1.31-.69-3.35-1.7-4.25-2.88-.12.1-.43.11-.95-.21a3.26,3.26,0,0,0-1.22-1.27c-.62-.44-1.43-.92-2.27-1.63,1,1.06.23,1.26,1.34,2.36A4.79,4.79,0,0,1,35,156.43a7.65,7.65,0,0,0-1.62-2.35c-1.45-1,.83,1.35,1,1.79a22.87,22.87,0,0,0-2.45-2.27l-2.51-2.1a21.53,21.53,0,0,1-2.07-2.12,5.72,5.72,0,0,1-1.12-2.21l1.49,1.25c-.85-1.57-1.42-2.31-1.4-2.07a1.26,1.26,0,0,1,.42.88A17.65,17.65,0,0,1,23,141.49a62.22,62.22,0,0,0-2.77-6.24c-.05.46.22,1.18.05,1.3a4.29,4.29,0,0,1-.67-2.57,8.22,8.22,0,0,0-1.13-3.55v.82c-.63-1.17-.59-2.22-.44-2.08-.27.06-.56-.4-.88-1.17-.17-.39-.33-.85-.51-1.36s-.31-1.08-.48-1.67c-.69-2.33-1.26-5-2.19-6.3a40.83,40.83,0,0,0,.13-4.77,29.89,29.89,0,0,0-.19-4.52c-.69-2.45-.71,2.19-1.34,1.3,0-2,.52-3,.46-5.86.61,0,1,5.66,1.59.35l-.3-.76a10.37,10.37,0,0,1,0,2.09c-.42,1.53-.37-.94-.53-1.31.05-1,.18-1.91.3-2.87l.18-1.43.24-1.42c.36-.16.38.6.32,1.45a16.55,16.55,0,0,0,0,2c.06-1.13.08-2.32.17-3.53,0-.61.06-1.22.11-1.84l.19-1.84A24.46,24.46,0,0,1,17,88.87l-.35.31c2.25-4.92-.13-3.45,2.49-7.05.82-2.14-1,.47.44-2.71.45-.87.41-.25.4-.06,2.2-3.65.29-2,2.81-5.08l-1,.37c2.85-3.85,6.78-7,9.29-10.06-.54-.18-2.19,1.7-3.13,2.22C30,65,32.25,62.62,34.65,60.46a37.27,37.27,0,0,1,7.09-5.39c-1,1.22,2.53-.46.14,1.66-1.09-.12-2,1.16-3.4,2.13a6.94,6.94,0,0,0,2.68-1.35c1-.65,2-1.57,3.11-2.32l1.53-1.13c.49-.34,1-.63,1.4-.87.85-.47,1.51-.73,1.85-.52l.4-.8c.72-.27,2.61-.75,1.5,0,1.58-.87,3.18-1.72,4.84-2.44-1.94.2-6,1.12-6.91,2.23-1.67.19,1.85-1.34.31-1.31,1.86-.45,2.35-.72,2.82-1.13a6.14,6.14,0,0,1,2.76-1.52c-.68.67.32.58,1.47.37s2.47-.42,2.44-.22a9.79,9.79,0,0,1,2.52-.66A13.38,13.38,0,0,1,63.68,47c2.1-.48,7-1.91,10.54-1.8-1.35-.2-3.49-.28-3.39-.78,1.77,0,3.67,0,4-.62-3.16-.36-3.64.1-4,.51s-.69.8-3.49.95A6.56,6.56,0,0,0,64.86,45a21.59,21.59,0,0,0-3.49.48c1.2-.71.59-.72,1-1.3a11.47,11.47,0,0,0,3.14,0c1.12-.11,2.31-.3,3.53-.53s2.49-.38,3.75-.47a19.6,19.6,0,0,1,3.68,0A2.92,2.92,0,0,1,78,44a3,3,0,0,0,1,.38,13.91,13.91,0,0,0,2.33.32c-1.26.1-2.52.16-3.76.34,2.06-.23,2.3,0,2.45.11s.2.42,1.88.56l-1.32-.5a8.87,8.87,0,0,1,4,.6l-1.69-.85c1.13,0,3.22.12,3.19.56.31-.13.43-.25.44-.37a5.25,5.25,0,0,0,2,.46c-.75-.19-1.31-.22-1.3-.43,1.25.2,1.94.32,2.34.34s.51-.07.55-.16-.05-.43,1.5-.1c-.46-.26.47-.28,1.59-.08-.17.55,1.28,1.14,2.87,1.92a21.71,21.71,0,0,1,4,2.12l0,0c1.25.65,2.49,1.29,3.68,2-.73-.43.22-.32,1.37.09l-.18-.08c1.27.44-.91-1.8,2.56.3.57.43,1.15.84,1.71,1.28-.31-.23.09-.19.3-.16l1.73,1.37a7.45,7.45,0,0,1,2.25,1,12.56,12.56,0,0,1,1.89,1.55,29.08,29.08,0,0,0,4,3.48c-.9-.68-2.22-1.79-1.43-1.6a6,6,0,0,1,1.82,1.72l-.06-.22c.85.91,1.72,1.81,2.52,2.77.4.48.81.95,1.2,1.43l1.14,1.47a9.21,9.21,0,0,0-1.35-2c-.55-.69-.89-1.18-.07-.67a4.23,4.23,0,0,1,1.66,1.47l1.43,1.93c-.31,0-2.16-1.6-.62.35.3.14,2.06,1.76,1.5.77.37.53.76,1.13,1.15,1.77s.84,1.27,1.22,1.94a23.25,23.25,0,0,1,1.83,3.76c.48.55,0-.47-.18-.82l-.16-.11c-.71-1.36.49-.61-1.47-2.92.31-.39,1,.48,1.79,1.7.41.61.78,1.34,1.19,2l1.14,1.95c-.48-1.36-1.11-2.64-1.67-4a30.68,30.68,0,0,1,6.06,10.5,78.7,78.7,0,0,1,3,11.68c-.69-2-.93-3.74-1.56-3.31.42,2.16.5,3.11.7,4s.31,1.87.59,4c0-.13,0-.25,0-.38a16.53,16.53,0,0,1,.46,3.67,7.78,7.78,0,0,0,.45,3.1c.35-1-.58-3.18.24-3.3l.14,2.77c.05.93,0,1.86,0,2.78.51-1.75-.08-5.57-.27-7.67-.23-1.52.24,3.07-.41,2.39-.1-1.28-.2-2.32-.23-3.2s-.09-1.58-.07-2.23c0-1.28.16-2.26.26-3.61.2-1.67,1.11,2.13,1.21,3.11-.24,3.48-.13,8.29.06,13.48.16,1,.37,1.92.47,2.89-.82,2.53-1.74,1.33-2.29,5.86.25-.42.44-.85.66-1.28a8.26,8.26,0,0,1-.14,2.17c.38-.94.7-1.94,1-2.92.17-.49.33-1,.48-1.45s.27-.95.4-1.39c.38,1.38,0,3.29-.6,5.3-.34,1-.67,2-1.06,3s-.75,2-1.06,2.91c.2-.16.54-1.48.88-1.81a32.44,32.44,0,0,1-3,8.17c-.66,1.25-1.3,2.45-2,3.55s-1.29,2.14-1.85,3.1c-.5,1.87,2-3.14,2.07-2.07-1.23,2-2.08,4.61-2.92,4.85.61-.24,0,1-.55,1.73s-.75,1.21.79-.52a46.3,46.3,0,0,1-8.17,10.51,62.4,62.4,0,0,1-10.51,8.16c.48,0,.61.13.4.48,2.4-1.69,5.86-4.25,7.41-5a5.64,5.64,0,0,1-1.07,1.12,11.43,11.43,0,0,1-1.31.87,7.37,7.37,0,0,0-1.72,1.15c.9-.46,2.39-1.76,2.69-1.46-1.63,2-3.2,2.38-4.66,3.39l.65-.75a13,13,0,0,1-4,1.76,6.32,6.32,0,0,0-1.41.54c-.6.3-1.39.8-2.64,1.54-1.59,1.46.22.35.56.87-1.28.52-5,3.07-6.64,3,1.08-.5,2.17-1,3.21-1.52a45.93,45.93,0,0,1-6.15,2.21,1.31,1.31,0,0,0,.9,0c-1.89.55-4.3,1.33-5.37,1.23l-.35.78a17.94,17.94,0,0,1,5-1.61c-.11.69-3.62,1.51-5.12,1.93,1.68-.38,2.93-.76,4-1l2.68-.62a15.5,15.5,0,0,0,2.45-.76c.44-.17.92-.37,1.45-.62s1.08-.59,1.72-1l-1,.26c3.06-2,6.71-3.25,9.35-5.16-.67.63-.69.94-.28.79,2.82-2.26,5.57-4.5,8.22-7.06a55.58,55.58,0,0,0,7.5-8.76c.65-.54,1.34-1.06,2-1.63l-.33-.4c2-3.47,1.1-.32,2.42-2.56-.5.85-.48.66-.7.76,2.88-3.73.95-2.45,2.32-4.67-1,.88-2.65,4.26-2.66,2.91a26.52,26.52,0,0,0,2.11-3.15c.7-1.13,1.3-2.33,1.89-3.41,1.12-2.18,2-3.94,2.7-4.06A112.59,112.59,0,0,0,145,118.42a66.12,66.12,0,0,0,1.11-12.82c-.27-1-.13.63-.32.25a18.93,18.93,0,0,0-.39-5.92c-.37-2-.85-3.69-.53-3.77A5.34,5.34,0,0,0,143.62,94a18.72,18.72,0,0,0-.37-3,28.91,28.91,0,0,0-.77-3.3c.11.56.25,1.12.35,1.69l-.13-.16-.51-2.39.06.07c-1.62-5.65-4.84-11.63-7.26-16.44,1.32,2.81-1-.25-.45,1.11a18.39,18.39,0,0,0-3-5.58c-.76-1.07-1.67-2.14-2.57-3.2s-1.89-2.07-2.88-3c-.13.16-.53,0-.21.54-.64-.79-1.24-1.63-1.92-2.4l.13.45C122,56.69,120,54.66,118,53a23.69,23.69,0,0,0-5.68-3.83c1.87,1.24,1.77,1.42,1.78,1.82a105.4,105.4,0,0,0-10.68-5.82c.21.15.33.27.31.35a15.59,15.59,0,0,1-1.76-.78l-1.76-.85-.32.41A27.16,27.16,0,0,0,96.19,43c-1.34-.38-2.73-.76-4-1.25a4.17,4.17,0,0,1-1.57-.14C89.86,41.46,89,41.22,88,41a26.43,26.43,0,0,0-5.72-.87c-1.22-.19,2.63.73-.8.51-.21-.55-1.34-.6-2.43-.66s-2.17,0-2.31-.6c-1,.13-2,.34-3,.54L73,39.41a6,6,0,0,1-3.4.54,11.7,11.7,0,0,0-4.39.31c.23.08.64.06.46.17-1.25.08-4.09.67-2-.11l-2.21.45-2.61.68c-1.57.44-2.45.87-.87.66-.32-.28,2.56-.76,3.79-1,0,.51-3.08,1.11-3.65,1.85-.11,0-.52,0-.82,0l-.32.42C53.21,44.13,49.75,46,47,46.69c-.07.22-.64.58-1.81,1.21l-.34-.51c-1.21.66-2.41,1.34-3.57,2.1.71-.09,1.41-.18,2.11-.24-3.74,2.43-6.88,3.49-9.87,5.75,0,.71-1.49,1.78-3.08,3.16a15.81,15.81,0,0,0-4.06,4.52c.71-.66,1.41-1.32,2.16-1.94a34,34,0,0,0-4.26,5c-.52.69-1,1.4-1.57,2.21q-.43.6-1,1.29l-1.15,1.58c1.16-2.15,1.93-3.12,2.72-4.41s1.82-2.76,3.95-5.69c-2.29,2.8-4.35,5.13-6.21,7.55a34.37,34.37,0,0,0-4.77,8c.42-.28,1.33-1.66.81-.12-1.14.85-2.67,5.57-2.83,4.44-.57,2-.19,2.51-.54,3.7-.49,1-1,2-1.48,3.1s-.92,2.11-1.32,3.19l.17-.18c-.78,5.82-1.72,11.09-2.19,16.53a47,47,0,0,0,1.22,16.7l.27-.29c0,1,.12,2,.23,3-.29-2.31.66.86,1,1,.2,1.24.52,2.46.78,3.69s.65,2.43,1,3.66C13.65,134.7,14.1,134,13.33,132.37ZM45,48.08c.52-.27,1-.55,1.57-.79a4.17,4.17,0,0,1,1-.47l-1,.47C45.78,47.75,45.35,48.34,45,48.08Zm97.65,79.66c-.52.71.26-1.18.38-1.75l-.88,2.68C142.19,129.09,142.48,128.12,142.64,127.74ZM47,51.54l-.61.81-1.19.29ZM28.84,66.31l1.74-1.59-.07.2-1.72,1.57ZM13.08,88c.07-.15.13-.28.22-.44a3.61,3.61,0,0,1-.22.44c-.84,1.74-.34,2.65-1.39,4C11.52,90,12.54,89,13.08,88ZM38,53.31a9.76,9.76,0,0,0,1.55-1c-.48,0-2.07.7-1.11-.07a16.88,16.88,0,0,0,2-1c.75-.35,1.43-.62,1.55-.46a7.36,7.36,0,0,0-2.52,1.76C38.86,53.15,38.45,53.52,38,53.31Zm55.3-11-.61-.11,2.11.85Zm9.87,3.56c1,.94,3.91,2.13,5.78,3.29.73-.13-1-1.68-3.43-2.71C102.85,44.91,104.18,46.69,103.17,45.91ZM25,67l.68-.25-.33.48,1.69-1.72c-1.6,2.74-3.66,4-4.7,5.25C23.16,69.54,26.2,67,25,67Zm96.92-9.25c1.5,1.68,4,4.78,3.47,4.79.63-.4-1.44-2.88-2.19-3.55A9,9,0,0,1,121.94,57.71Zm-1,.92A39.55,39.55,0,0,1,117.21,54a10.68,10.68,0,0,1,1.6,1.14,4.37,4.37,0,0,1,.78,1c.29.54.19.86-.08.88,1.51,1.62,1.44,1,2.39,1.74ZM119.66,55c-.36-.25-.73-.5-1.11-.73-1.45-.67-2.11-.26-3.5-2.1,1.2.64,2.34,1.38,3.5,2.1A4.75,4.75,0,0,1,119.66,55Zm17.6,20.71-.45-1.29c.63,1.17.61,1.36.45,1.29l.36,1.07C136,74.37,136.92,75.55,137.26,75.7ZM124.42,59.4c-.89-.91-1.86-1.75-2.8-2.62C121.57,57.19,123.49,58.6,124.42,59.4ZM136.3,75.26c-.79-1.4-3.17-4.84-2.83-4.37A5.33,5.33,0,0,1,135,72.73c.3.48.6,1,.84,1.43A10.58,10.58,0,0,1,136.3,75.26Zm-9.43,77.5,1.6-1.74-.39,1.18Zm13.54-23.91,0,.63-.49,1.29Zm3.05-25.09c.12.12.25,0,.35-.18a2.33,2.33,0,0,1,.16-.9,1.84,1.84,0,0,1-.16.9,17,17,0,0,0,.26,3.24,14.62,14.62,0,0,0,.24-2.62,6.28,6.28,0,0,1,.2,2.16c0,.8-.15,1.64-.22,2.35-.14,1.42-.25,2.36.64,1.63-.12.5-.32,1.6-.53,2.42s-.48,1.35-.57.76a35.22,35.22,0,0,0-.37-9.76,1.42,1.42,0,0,1-.22-.78A3.54,3.54,0,0,1,143.46,103.76ZM132.18,71.92a8.1,8.1,0,0,1-.77-1.37c-.36-.75-.59-1.36-.26-1.3,1,1.76.1.82.26,1.3A14.14,14.14,0,0,0,132.18,71.92Zm-3.67-4.77c.59.86,1.11,1.77,1.66,2.65l-.66-1.47c.38.7.78,1.38,1.14,2.08l1,2.12C129.94,70.5,128.44,67.76,128.51,67.15Zm-.95-.63-.11-.76.32,1-.21-.26,0,.17c-1-1.4-2.19-2.72-3.35-4C125.37,63.92,126.52,65.17,127.56,66.52ZM81,42.74c-1,.66.14.93,1.65,1.18s3.38.52,3.83,1c.14-.22.72-.43.64-.68s-.83-.6-3.39-.8a6.49,6.49,0,0,1,3.34.51c.45.21.68.27,2.08-.09A28.53,28.53,0,0,1,86,43.25l-1.86-.39c.84.06,1.68.11,2.52.23a3.67,3.67,0,0,0-2.68-.44c-.52,0-1,.1-1.55.12A4.85,4.85,0,0,1,81,42.74ZM54.37,47.27c-1,.36-2.06.82-3.08,1.25,1-.38,1.94-.8,2.94-1.11ZM13,111.42c.15-.12.44.86.63,2a6.88,6.88,0,0,1,.1,3C13.34,114.28,13.27,112,13,111.42Zm10.62,32.86c-.59-1.09-1.17-2.18-1.72-3.29.48.14.93.82,1.35,1.67a13.49,13.49,0,0,0,1.44,2.51C24.72,145.87,24.15,144.62,23.61,144.28ZM40.29,161.5c.29.26.59.53.9.77-.21-.42-.4-.87-.59-1.31Zm-.72-1.74c.39.08.11-.28-.33-.69A12.15,12.15,0,0,0,38,158C38.51,158.56,39,159.19,39.57,159.76Zm19.12,9.13c-.49-.11-1-.29-1.44-.44.36.36.71.73,1.09,1.07Zm-2.53,0c-.17-.58.17-1.05-3.15-2.09-.33.4.56.76-.88.8a12.55,12.55,0,0,0,2.54.9c-.7-.37-1.64-.53-1.72-.92a13.32,13.32,0,0,1,3.21,1.31,1.06,1.06,0,0,0,.61.62C56.81,169.32,56.57,169.09,56.16,168.84Zm-11.73-5a6.38,6.38,0,0,0-1-.37l-.11-.22a2,2,0,0,1,1.12.59c.48.2,1,.46,1.57.72.54-.17-1.38-1.63-1.79-2.15a10.07,10.07,0,0,0,3,2.07c-.11-.21.08-.17-.74-.65.6.34,1.25.61,1.87.91,1.84,1.62-.26.75-2.33-.18-.1.05-.3,0-.72-.08A2.93,2.93,0,0,1,44.43,163.81Zm15.23,7.69-1.09-.45c-.52-.33-.11-.38-.27-.55C59.59,170.92,61.23,171.7,59.66,171.5Zm-46-48.91c.3.73.34-1.12-.07-2.8l.77.79c-.38.12.35,3.53.47,3.9C14.42,125.22,14.27,123.85,13.64,122.59ZM43.79,52c.92.28,4.59-2.25,5.6-2.46C47.33,50.58,43,53.5,43.79,52ZM50.53,48c1.14-.49,1.43-.69,1.47-.28.6-.1,1.42-.67,2-.72-2.09,1.19-2.16.61-3.51,1-.3.12-.63.26-1.05.45A4.25,4.25,0,0,1,50.53,48ZM17.35,81.5c-.41.42-.77.86-1.16,1.29-.3.81-.65,1.6-.9,2.43C15.93,84,16.65,82.72,17.35,81.5Zm-6.67,26.77c.34-.21.33,2.76.26,3.39.39-.21.29-2.19.33-3.78,0-.2,0-.53.07-1a8.11,8.11,0,0,0-.07,1c-.09.6-.32.18-.47.18l-.13-.79-.1,2.21Zm16.8,45.27a8.36,8.36,0,0,1,2.28,2.28A9.7,9.7,0,0,1,27.48,153.54ZM11.93,93.47c-.41,3,.93-1.27.73.71.09-.52.21-1,.32-1.54a3.61,3.61,0,0,1-.52,2,2.37,2.37,0,0,0-.59,1.44L12,94.9c-.23-1-.63,1.76-1,1.93a16,16,0,0,1,.54-2.67C11.79,93.35,12,92.88,11.93,93.47Zm17.29,62.35c2.46,1.79,1.43,2.08,2.76,3.36C29.93,157.84,30.76,157.46,29.22,155.82Zm-20-43.33-.09-.18c0,.83-.08,1.66-.07,2.49l.11.19C9.09,114.16,9.16,113.32,9.17,112.49Z"/><path class="cls-1" d="M34.85,155.23a8.87,8.87,0,0,1,1.15,1C35.62,155.93,35.24,155.6,34.85,155.23Z"/><path class="cls-1" d="M58.14,48.23c0-.13.24-.26.54-.39C58.67,47.91,58.54,48,58.14,48.23Z"/><path class="cls-1" d="M63.48,47l.2,0h.17Z"/><path class="cls-1" d="M100.51,168.71c-1.3-.08,1-.48,1.94-.84C101.56,168.23,101.34,168.7,100.51,168.71Z"/><path class="cls-1" d="M107.82,166.45a11.33,11.33,0,0,0-2.28.79A8.29,8.29,0,0,1,107.82,166.45Z"/><path class="cls-1" d="M102.05,168.83c1.34-.66,2.51-1.22,3.49-1.59A21.23,21.23,0,0,1,102.05,168.83Z"/><path class="cls-1" d="M124.29,154.18a13.8,13.8,0,0,0-1.72,1.39c-.53.5-.92.93-.92.93,3.45-3.65-1.14.26-1.63.29a14.46,14.46,0,0,1,2.42-1.7C123,154.8,123.49,154.65,124.29,154.18Z"/><path class="cls-1" d="M128.86,149.31a11.36,11.36,0,0,0-.83,1.13A6.46,6.46,0,0,1,128.86,149.31Z"/><path class="cls-1" d="M129.77,147.65a8.74,8.74,0,0,1,2.45-2.14c-1,1.89-2.29,2.65-3.36,3.8C129.64,148.35,130.4,147.4,129.77,147.65Z"/><path class="cls-1" d="M140.25,97.33c0,.39.18,1.31,0,1.37-.17-.93-.28-1.86-.5-2.78C139.61,94.79,140.15,96.77,140.25,97.33Z"/><path class="cls-1" d="M138.56,86.91c-.79-2.16-.86-.86-1.16-2l.7-.14Z"/><path class="cls-1" d="M142.32,87l.16.7-.23-.79Z"/><path class="cls-1" d="M133.37,77.2l.08,1.73C132.7,77.19,133.22,76.86,133.37,77.2Z"/><path class="cls-1" d="M128.19,70.27l.61,1.2c-.78-1.13-1.51-2.31-2.36-3.4C127.06,68.78,127.62,69.53,128.19,70.27Z"/><path class="cls-1" d="M121.54,62.29l-.37-.14-2-2C120,60.84,120.78,61.53,121.54,62.29Z"/><path class="cls-1" d="M23,75.49c-.82,0,1.86-3.77,2.57-4.92.07.62-.54,1.31-1.15,2.15A5.89,5.89,0,0,0,23,75.49Z"/><path class="cls-1" d="M31.79,152.65c-1-1.1-1.93-2.2-2.81-3.37C31.37,151.7,29.58,150,31.79,152.65Z"/><circle class="cls-1" cx="46.38" cy="100.08" r="8.25"/><path class="cls-1" d="M56.4,100c0,.09.28.06.34.07C56.66,99.92,56.32,100,56.4,100Z"/><polygon class="cls-1" points="55.58 98.59 55.71 98.6 55.38 98.44 55.58 98.59"/><path class="cls-1" d="M55.29,97.29c-.46.27.2.44.09.72l-.11.06.44,0C55.57,97.81,55.21,97.52,55.29,97.29Z"/><path class="cls-1" d="M56.09,96.2c-.17.12-.22-.1,0,.2a.11.11,0,0,1,0-.05A.59.59,0,0,1,56.09,96.2Z"/><path class="cls-1" d="M56.13,96.35c.07.14.13-.16,0,0Z"/><path class="cls-1" d="M55.74,95.73l.26.11c.09-.09,0-.27.14-.24C56,95.44,55.87,95.54,55.74,95.73Z"/><path class="cls-1" d="M55.32,95.72l.11.06S55.47,95.71,55.32,95.72Z"/><path class="cls-1" d="M55.67,95.91l-.24-.13c-.06.06-.21.13.1.06C55.38,95.89,55.53,95.87,55.67,95.91Z"/><path class="cls-1" d="M55.66,96.05c-.06.15-.08.31-.31.2C55.54,96.57,55.87,96.38,55.66,96.05Z"/><path class="cls-1" d="M54.76,97.39l-.11.17.2.06C54.75,97.59,54.91,97.33,54.76,97.39Z"/><path class="cls-1" d="M55.36,94.46c-.1.05-.21.22-.32.3l.18.07C55.25,94.72,55.23,94.56,55.36,94.46Z"/><path class="cls-1" d="M55,94.76l-.28-.08C54.84,94.85,54.94,94.84,55,94.76Z"/><polygon class="cls-1" points="54.79 95.94 55.3 96.08 54.75 95.89 54.79 95.94"/><polygon class="cls-1" points="54.87 93.72 55.16 93.67 54.7 93.72 54.87 93.72"/><path class="cls-1" d="M54.47,93.28c.23-.06.19-.33.36-.33a.85.85,0,0,0-.58-.07C54.41,92.91,54.49,93,54.47,93.28Z"/><path class="cls-1" d="M53.94,92.89a1.7,1.7,0,0,0,.31,0A.66.66,0,0,0,53.94,92.89Z"/><path class="cls-1" d="M54.6,94.33s.17-.17.15-.32l-.2.25Z"/><path class="cls-1" d="M54.54,94.27h0l-.1-.16Z"/><path class="cls-1" d="M54.61,94.35v0S54.57,94.37,54.61,94.35Z"/><path class="cls-1" d="M54.78,95.32c-.22,0-.5-.13-.61.21C54.4,95.49,54.46,95.3,54.78,95.32Z"/><path class="cls-1" d="M54.35,94.66a1.55,1.55,0,0,1,.06.23c.07,0,.15-.15.25-.15Z"/><polygon class="cls-1" points="54.2 94.63 54.35 94.66 54.32 94.58 54.2 94.63"/><path class="cls-1" d="M54,93.39a.45.45,0,0,1-.35-.14.84.84,0,0,0,.2.36C53.93,93.56,54.11,93.49,54,93.39Z"/><path class="cls-1" d="M54.26,93.83h0S54.22,93.86,54.26,93.83Z"/><path class="cls-1" d="M52.77,92.41l0,.06,0,0Z"/><path class="cls-1" d="M53.82,93.67c0,.11.12.1.23.08a.56.56,0,0,1-.2-.14S53.79,93.65,53.82,93.67Z"/><path class="cls-1" d="M53.59,92.74a1.92,1.92,0,0,0,0,.24C53.63,92.87,53.66,92.69,53.59,92.74Z"/><path class="cls-1" d="M54.28,93.74h0C54.33,93.68,54.3,93.7,54.28,93.74Z"/><path class="cls-1" d="M54.28,93.74a.89.89,0,0,0-.23,0,.36.36,0,0,0,.18.07Z"/><path class="cls-1" d="M51.25,93.77c.18-.22.54-.31.48.06.28,0,.82-.82,1-1.36-.08.09-.15.17-.44.17,0,.17.13.59-.17.67S52,93.1,52,92.89c-.13.35-.59.21-.86.67h.29C51.39,93.61,51.25,93.67,51.25,93.77Z"/><path class="cls-1" d="M53.05,92.78l.09,0a1.17,1.17,0,0,1,0-.52.47.47,0,0,0-.38.13l.32.34Z"/><path class="cls-1" d="M53.45,93.11c-.27.16-.53.12-.67.45.2.16.31-.06.52,0-.35-.26.21,0,.13-.39a.91.91,0,0,1,.22.12,1.07,1.07,0,0,1-.06-.27v0h0s0,.06,0,0h0l-.1.07c0-.15,0-.08.1-.07l0,0h0c-.14-.07-.3-.12-.45-.18C53.18,92.91,53.28,93,53.45,93.11Z"/><path class="cls-1" d="M53.49,95.7a.08.08,0,0,1,0,0S53.47,95.65,53.49,95.7Z"/><path class="cls-1" d="M53.57,95.46s.16,0,.19.05-.13.08-.22.14c.1,0,.29,0,.33-.18h0a1.24,1.24,0,0,1,.28-.59A3.72,3.72,0,0,0,53.57,95.46Z"/><path class="cls-1" d="M53.52,94.35a2.68,2.68,0,0,0-.34-.16l-.09.3.12-.11C53.28,94.56,53.41,94.41,53.52,94.35Z"/><polygon class="cls-1" points="52.83 92.26 53.08 92.04 52.61 92.27 52.83 92.26"/><polygon class="cls-1" points="52.42 92 52.6 91.78 52.4 91.84 52.42 92"/><path class="cls-1" d="M40.77,103.4l.11,0A.23.23,0,0,0,40.77,103.4Z"/><path class="cls-1" d="M40.54,102.93l-.13,0C40.49,103,40.55,103,40.54,102.93Z"/><path class="cls-1" d="M41.08,91.53c-.27-.15-.67-.39-.47-.14l.22.24A.21.21,0,0,1,41.08,91.53Z"/><path class="cls-1" d="M38.36,98.47l.1,0-.28-.15Z"/><path class="cls-1" d="M39.63,98.8l-.22.11A.57.57,0,0,0,39.63,98.8Z"/><path class="cls-1" d="M42.88,105.18l.25-.22C43,104.9,43,105.06,42.88,105.18Z"/><path class="cls-1" d="M47.8,90.21a.68.68,0,0,0-.32-.24C47.63,90.17,47.72,90.46,47.8,90.21Z"/><path class="cls-1" d="M37.73,104.84a.22.22,0,0,0,.21,0A.22.22,0,0,0,37.73,104.84Z"/><path class="cls-1" d="M47.07,89.94l.07.08a.45.45,0,0,1,.34,0C47.37,89.82,47.22,89.73,47.07,89.94Z"/><path class="cls-1" d="M51.73,103.69h0S51.73,103.67,51.73,103.69Z"/><path class="cls-1" d="M55.92,101.36a.4.4,0,0,1,0,.19S56,101.46,55.92,101.36Z"/><path class="cls-1" d="M50.79,90.85c.1,0,0,0,0,0Z"/><path class="cls-1" d="M50.66,92.17a.44.44,0,0,0-.11.12A.44.44,0,0,1,50.66,92.17Z"/><path class="cls-1" d="M46.1,91.89h0C46.12,92,46.11,91.94,46.1,91.89Z"/><path class="cls-1" d="M50.87,91.05a.64.64,0,0,0-.08-.14A.55.55,0,0,0,50.87,91.05Z"/><path class="cls-1" d="M50.91,90.9,51,91S51,90.9,50.91,90.9Z"/><path class="cls-1" d="M50.65,90.8a.36.36,0,0,1,.14.11s0,0,0-.06Z"/><path class="cls-1" d="M47.34,107.31l0,0C47.41,107.19,47.38,107.22,47.34,107.31Z"/><polygon class="cls-1" points="41.41 95.47 41.41 95.45 41.39 95.45 41.41 95.47"/><path class="cls-1" d="M41.42,95.81c-.23-.33-.15-.35,0-.36l-.73-.54C40.91,95.21,41.16,95.52,41.42,95.81Z"/><path class="cls-1" d="M41.57,104.34l.11-.3c.48-.17.44,0,.65-.34-.78.65-.44-.37-1.25.19l.11-.2s.06,0,.07,0c.26-.44-.68.27-.72-.06a.25.25,0,0,1,.23-.26l-.33-.07c0-.06.14-.13.16-.07s-.14-.18-.22-.26l0,0a2.62,2.62,0,0,1-.55,0c.09-.14.12,0,.22-.08l-.3-.08c.2-.17.49-.12.52,0,.83-.55-.3,0,.11-.61l.17.11c.49-.3.26-.34.53-.6-.16.07-.71.62-1,.52,0-.08.06-.16-.17-.2.34-.11.23-.18.18-.3l.45-.12c-.16-.09-.39,0-.61-.06,0-.16.35-.27.64-.36,0-.25-.54.28-.67,0,.15-.24-.08-.35-.37-.59.15-.17.29,0,.42-.06l-.38-.11s.12,0,.18,0c-.15-.1-.47,0-.6-.17-.53,0,.74-.38.18-.62.13,0,.28,0,.46,0a4.81,4.81,0,0,0-.74-.61l.34-.18c-.37.11-.75-.16-1-.44l-.41.09a2.83,2.83,0,0,1-.17-.4.79.79,0,0,1,.4.14l-.09-.08c.2-.09.45,0,.68.18l-.31,0a2.45,2.45,0,0,0,.83.3.25.25,0,0,1-.11-.12.41.41,0,0,0,.19.06c.05,0,0,0-.16-.12l.53,0-.2-.06.41-.28c-.45-.39-1.07-.88-1.09-1.44a3.22,3.22,0,0,0,1,.45c-.49-.07.07.4-.09.57.09-.1.28,0,.34.05l-.27-.52c.34.15.28,0,.47,0-.7-.23-.31-.47-.44-.73.22.11.43.26.29.41.58.06-.65-.66-.11-.63,0,0-.07,0,0,.13-.13-.21.17-.37.32-.2l0,0a.87.87,0,0,0,.13-1.23l.63.6A14.38,14.38,0,0,1,40,93.91c.35.4,1.39,1.14,1.44,1.55.1,0,.22,0,.2-.26-.09,0-.64-.45-.62-.54a5,5,0,0,0,.85.34c-.13,0-.63-.71-.5-.79.06.11.54.62.57.72a6.89,6.89,0,0,1-.28-.84c0,.17.42.55.61.7-.12-.11.22-.15.23-.26l-.21-.08c.34-.1-.36-1.15,0-1.33,0,.17.44.95.64.95-.16-.4-.65-1.95-.39-2.43l.16.19c.06-.13.11-.26.18-.38,0,.66.18,2.08.25,2.62.2.11.16.23.32.13a.3.3,0,0,1,0,.38l.42,0c-.23-.44.09-.58-.07-1a5.16,5.16,0,0,0-.23.66c-.24-.42-.34-1.4.05-1.44.15.15.25.84.32,1,0-.17.17-.41.24-.31l0,.3c.21.11.07-.72.41-.32.08,0,.36.56.3.27a12.16,12.16,0,0,1-.71-2.61,2.46,2.46,0,0,1,.75.67c.21.41,0,1,.17,1.41a.94.94,0,0,1,0-.37c.1.11,0,.42.2.33-.05-.49.35,0,0-.42.15-.17.19.06.39,0A1.68,1.68,0,0,1,46,91.53a1,1,0,0,0,.07.36c.4,0,.6.28.95.29,0,.12.18.28.09.49,0-.08.12-.24.23-.24.14.46-.24,0-.15.57,0-.29.31-.36.49-.51,0-.45-.35-.14-.51,0a1.77,1.77,0,0,1,.9-1.42c.37-.08.07.42.14.35.56.26.82-.93,1.22-.31.07.44-.25.73-.3,1-.28,0-.3-.37-.48-.4l.16.24c-.12.1-.31.15-.37,0,.07.36.94.35,1.2.84.13-.09.31-.15.32-.32h-.15c0-.35.43-.28.32-.49.28-.11.68-.33.84,0l-.17.41c.06-.11,0-.33-.17-.25.21-.11.07.75.49.32l0-.37c.29-.08.81-.35.95-.05.15-.44-.08,0,.05-.54-.21.62-.63-.42-.74.31.13-.62-.16-.41-.18-1-.06.14,0,.3-.23.12a.94.94,0,0,1-.1.1v0s0,0,0,0a.43.43,0,0,1,0,.25c-.26.25-.58.08-.76.19-.1-.12.12-.13.11-.31l-.27.17c.11-.3-.15-.63.24-.69l-.28-.12c-.11-.24-.33-.4-.52-.31-.13-.11-.46.25-.27,0l-.51.07v-.08c-.47-.15-1,.35-1.49-.27a.69.69,0,0,1-.59.06l0-.28c-.2.08-.64-.27-.71,0-.29-.77-1-.07-1.43-.13l0,.36a1.41,1.41,0,0,0-.71.42l.1.31c-.17.3-.69,0-1.07.15,0-.13.09-.14.18-.09-.36-.26-.57,0-.73.22s-.29.52-.61.4c0,.16-.13.16-.24.13s0,0,0,0l0,0a1.55,1.55,0,0,0-.23-.06l.21.08a.71.71,0,0,0-.22.29l-.24-.27s0,0,0,0c-.18,0,0,.2.21.38a.6.6,0,0,0,0,.27c-.41-.4-.14.34-.61-.06.1.28-.37.57,0,1.08-.06-.06-.11-.06-.07-.11-.14,0-.29.08-.25.28l-.36-.28c.07.21.14.42.22.63-.31-.07-.48-.11-.61-.48.1.68-.1.4.07,1l-.21-.19c-.08.11.11.51-.13.42-.64-.09-.86,1.12-1.61,1.61.83.2-.49.19.11.47-.2,0-.34,0-.46-.15,0,.44-.53.47-.06.9-.2,0-.26-.16-.38-.15,0,0,.13.17,0,.18s-.15-.1-.22-.19c-.08.43.52.61,1.08.77-.32.12-.3.23,0,.44-.19,0-.41.11-.44-.14,0,.12-.41.8.07.86-.12,0-.05.18,0,.22a1.86,1.86,0,0,0-.05.62l.08-.08c.55.12.12.24.2.47h-.06c-.37.56.19.21-.21.78l.34-.07c.75,0-.37.52,0,.79l.17-.15c.28.1-.88.68-.93.9,0,.06-.11,0-.18-.08-.3.6.46,0,.65.26-.21.13-.63.09-.59.35-.14.19,1,.4.68.87.14-.15.28-.28.48-.2s-.35.94.29.85a.29.29,0,0,1-.11.11c.24.09.54.4.87.31-.46.4-.15.56.13.68s.57.18.15.54l.44.39-.1.07c.21.33.51.21.78.1,0,.11-.11.15-.15.19.24.53.36.53,1,.34l-.18.32c.2-.09.35.92,1,.81a.26.26,0,0,1-.13.12c.38-.06.58.34.83.58s.52.37.82-.22c.16-.06.31-.14.46-.21-.43-.22.23-.53.1-.79.19,0,.35.5.11.51v-.07c-.26.64.51.39.41.83a13.34,13.34,0,0,0,2.91.5l-.16-.52h.32c.1.11.17.39-.07.41.17.28.36-.32.35-.43.48.14-.08.64.06.63l.19-.07-.06,0c.12-.25.09-.46.37-.5s.16.3.23.3,0,0,.11,0l.43-.07-.28-.36c.12-.24.37-.08.06-.48.23.31.61.24,1,.11s.62-.35.75-.29a.84.84,0,0,1,.57-.63c-.11,0-.4-.41-.16-.49.47.87.62.09,1.22.51-.43-.24.53-.57-.13-.88.21-.09.25.27.52.33.15-.63,1-.65,1.37-1.29-.09-.09-.31-.12-.38-.35.24,0,.48.08.72.1,0-.15-.52-.51,0-.47-.11,0-.27-.07-.26-.17a2.55,2.55,0,0,0,1-1.67,3.29,3.29,0,0,1,1-1.81c-.28.14-.28,0-.27-.12-.07.08-.31,0-.49-.06.19-.15.38-.31.56-.48-.48-.14,0-.6-.46-.67l.07.17c-.53-.23-1.22.24-1.91.14.62.28-1,.39-.14.84-.15,0-.21-.1-.38-.1.29.14.32.25.14.4l-.06,0c0,.51-.42.64-.8,1l.33.1c-.09.09-.2.07-.3.08.41.35.17-.29.64.06-.7-.14-.4.79-1.16.47-.09.15.37.16.27.32l-.21-.08.21.19c-.1.08-.36,0-.51-.13,0,0,0-.09,0-.12-.3,0-.18.37-.28.37l.21-.06c-.12.54-.74.74-.81,1.39l.13.1c-.1.48-.35,0-.59.41v-.05c0,.19,0,.32-.13.36,0-.21-.37-.21-.36-.46-.18.48,0,.32,0,1l-.19-.21c0,.26.08.38-.1.54.07-.29-.29-.31-.25-.67-.6-.35-.38.79-.85.06,0,.78.49.26.43.45.19.19,0,.58-.14.56s-.52-.84-.83-.74c0,0,0-.06.05-.06-.16-.17-.18.32-.4,0,0,.46-.2,0-.13.58l.3-.18c-.15.17-.24.87-.6.6a1.15,1.15,0,0,1,.14-.38c-.11-.16-.16.14-.27,0,0-.57.37-.18.49-.64-.13-.23-.29.46-.28-.17,0,.82-.32,0-.5.56v-.35c0,.06-.1.22-.16.22l.09-.46c-.16.39-.34-.3-.49-.11.34,0,.07.42.22.67-.48.45-.24-.91-.71-.77.07,0,.23.22.11.38a.76.76,0,0,1-.23-.42c-.31,0,0,.36-.16.55,0-.43-.18.15-.36.26l.06-.35c-.32-.29-.25.7-.54.35l.26-.44-.2.08.13-.38c-.25.24-.3.17-.44,0,0,.25-.22.6-.4.55,0-.24.18-.29-.07-.33.14-.19.28-.43.27-.09.05-.1.12-.19.17-.29,0-.27-.26-.15-.34-.18A.15.15,0,0,1,44,106a4.63,4.63,0,0,1-.51.31.45.45,0,0,1,.17-.3c-.08,0-.19.14-.29.12.14-.25.27-.51.45-.58l-.42.15c0-.11,0-.37.11-.44,0-.23-.64.27-.71,0a.21.21,0,0,1-.15.07c-.14-.19-.08-.55-.51-.43l.24-.48c-.23,0-.29.61-.68.53s.24-.38.28-.54c-.25.11-.79.29-.63-.15C41.52,104.23,41.5,104.32,41.57,104.34Zm-1.47-2.06c.09,0,.33,0,.15.14C39.85,102.51,40,102.39,40.1,102.28Zm-1-4.09c.11.07,0,.11-.11.15S39,98.23,39.12,98.19Zm10.5-7.51h0C49.5,90.51,49.54,90.58,49.62,90.68Zm.28.26a.17.17,0,0,0,.07-.13c-.06.07-.13,0-.21,0S49.77,91,49.9,90.94Zm-1.21,18.51-.09-.07C48.72,109.24,48.71,109.34,48.69,109.45Z"/><path class="cls-1" d="M39.48,98.77l-.19,0A.21.21,0,0,0,39.48,98.77Z"/><polygon class="cls-1" points="42.84 105.22 42.84 105.23 42.88 105.18 42.84 105.22"/><path class="cls-1" d="M45.2,93.37a.4.4,0,0,1-.13-.16C45.09,93.29,45.12,93.36,45.2,93.37Z"/><path class="cls-1" d="M51.83,91.24l-.24,0c.1,0,.09.13.11.2S51.77,91.21,51.83,91.24Z"/><path class="cls-1" d="M52,94.05s0,0,.09,0l.11-.12C52.06,93.88,51.92,93.92,52,94.05Z"/><path class="cls-1" d="M51.38,92.33c-.15.26,0,.23.16.28s0,0,0,0C51.79,92.28,51.59,92.29,51.38,92.33Z"/><path class="cls-1" d="M51.58,92.62a.19.19,0,0,1,.11.07C51.8,92.57,51.66,92.63,51.58,92.62Z"/><path class="cls-1" d="M50.38,90.92c0,.1.19-.32.18-.19C50.79,90.41,49.93,90.93,50.38,90.92Z"/><polygon class="cls-1" points="50.94 93.2 51.1 92.87 50.88 93.08 50.94 93.2"/><path class="cls-1" d="M50.18,92.46l.14.18a.14.14,0,0,1,.11-.08C50.32,92.49,50.22,92.36,50.18,92.46Z"/><path class="cls-1" d="M50.43,92.56a.2.2,0,0,0,.18,0A.26.26,0,0,0,50.43,92.56Z"/><polygon class="cls-1" points="50.64 93.15 50.63 93.05 50.52 92.95 50.64 93.15"/><path class="cls-1" d="M48,91.65l-.25.07c-.05.12,0,.2.09.17S48,91.77,48,91.65Z"/><path class="cls-1" d="M48.44,92.78a.91.91,0,0,1,0-.29l-.13.43Z"/><path class="cls-1" d="M47.84,92.74c-.05.12-.35.31-.1.32C47.78,92.93,48,92.87,47.84,92.74Z"/><polygon class="cls-1" points="44.65 92.21 44.7 92.19 44.54 91.47 44.65 92.21"/><path class="cls-1" d="M42.94,94.82c.27.05-.2-.41.08-.32-.05-.18-.23-.07-.27-.23C42.74,94.5,42.63,94.44,42.94,94.82Z"/><path class="cls-1" d="M42.75,94.27a.28.28,0,0,0,0-.13A.55.55,0,0,0,42.75,94.27Z"/><polygon class="cls-1" points="56.39 100.66 56.55 100.45 56.3 100.58 56.39 100.66"/><path class="cls-1" d="M55.86,100.25l.47,0-.42-.12S56,100.21,55.86,100.25Z"/><path class="cls-1" d="M40.9,101.65l-.12,0c-.11,0-.11.08-.12.15Z"/><polygon class="cls-1" points="41.25 103.3 41.24 103.27 40.91 103.55 41.25 103.3"/><path class="cls-1" d="M42.53,104s-.14,0-.16-.08C42.5,104,42.17,104.42,42.53,104Z"/><circle class="cls-1" cx="105.25" cy="100.08" r="8.25"/><path class="cls-1" d="M115.27,100c0,.09.28.06.34.07C115.54,99.92,115.19,100,115.27,100Z"/><polygon class="cls-1" points="114.45 98.59 114.58 98.6 114.25 98.44 114.45 98.59"/><path class="cls-1" d="M114.16,97.29c-.46.27.21.44.09.72l-.11.06.44,0C114.44,97.81,114.08,97.52,114.16,97.29Z"/><path class="cls-1" d="M115,96.2c-.17.12-.22-.1,0,.2a.11.11,0,0,1,0-.05Z"/><path class="cls-1" d="M115,96.35c.07.14.13-.16,0,0Z"/><path class="cls-1" d="M114.62,95.73l.25.11c.09-.09,0-.27.14-.24C114.83,95.44,114.74,95.54,114.62,95.73Z"/><path class="cls-1" d="M114.19,95.72l.11.06S114.34,95.71,114.19,95.72Z"/><path class="cls-1" d="M114.55,95.91l-.25-.13c-.06.06-.21.13.1.06C114.25,95.89,114.41,95.87,114.55,95.91Z"/><path class="cls-1" d="M114.53,96.05c-.06.15-.08.31-.31.2C114.41,96.57,114.74,96.38,114.53,96.05Z"/><path class="cls-1" d="M113.63,97.39l-.11.17.2.06C113.62,97.59,113.79,97.33,113.63,97.39Z"/><path class="cls-1" d="M114.23,94.46c-.1.05-.21.22-.32.3l.18.07C114.12,94.72,114.1,94.56,114.23,94.46Z"/><path class="cls-1" d="M113.91,94.76l-.28-.08C113.71,94.85,113.81,94.84,113.91,94.76Z"/><polygon class="cls-1" points="113.66 95.94 114.17 96.08 113.62 95.89 113.66 95.94"/><polygon class="cls-1" points="113.74 93.72 114.03 93.67 113.58 93.72 113.74 93.72"/><path class="cls-1" d="M113.35,93.28c.22-.06.18-.33.35-.33a.85.85,0,0,0-.58-.07C113.28,92.91,113.36,93,113.35,93.28Z"/><path class="cls-1" d="M112.81,92.89a1.7,1.7,0,0,0,.31,0A.66.66,0,0,0,112.81,92.89Z"/><path class="cls-1" d="M113.47,94.33s.17-.17.15-.32l-.2.25Z"/><path class="cls-1" d="M113.41,94.27h0l-.1-.16Z"/><path class="cls-1" d="M113.48,94.35v0S113.44,94.37,113.48,94.35Z"/><path class="cls-1" d="M113.65,95.32c-.21,0-.5-.13-.61.21C113.27,95.49,113.33,95.3,113.65,95.32Z"/><path class="cls-1" d="M113.22,94.66a1.55,1.55,0,0,1,.06.23c.07,0,.15-.15.25-.15Z"/><polygon class="cls-1" points="113.08 94.63 113.22 94.66 113.19 94.58 113.08 94.63"/><path class="cls-1" d="M112.87,93.39a.45.45,0,0,1-.35-.14,1,1,0,0,0,.2.36C112.8,93.56,113,93.49,112.87,93.39Z"/><path class="cls-1" d="M113.13,93.83h0S113.09,93.86,113.13,93.83Z"/><path class="cls-1" d="M111.64,92.41l0,.06,0,0Z"/><path class="cls-1" d="M112.69,93.67c0,.11.12.1.23.08a.56.56,0,0,1-.2-.14S112.66,93.65,112.69,93.67Z"/><path class="cls-1" d="M112.46,92.74a1.93,1.93,0,0,0,0,.24C112.5,92.87,112.53,92.69,112.46,92.74Z"/><path class="cls-1" d="M113.15,93.74h0C113.2,93.68,113.18,93.7,113.15,93.74Z"/><path class="cls-1" d="M113.15,93.74a.91.91,0,0,0-.23,0,.36.36,0,0,0,.18.07Z"/><path class="cls-1" d="M110.12,93.77c.18-.22.54-.31.48.06.28,0,.82-.82,1-1.36a.5.5,0,0,1-.45.17c0,.17.13.59-.17.67s-.11-.21-.12-.42c-.13.35-.59.21-.86.67h.29C110.26,93.61,110.12,93.67,110.12,93.77Z"/><path class="cls-1" d="M111.92,92.78l.09,0a1.17,1.17,0,0,1,0-.52.48.48,0,0,0-.38.13l.32.34Z"/><path class="cls-1" d="M112.32,93.11c-.27.16-.53.12-.67.45.2.16.31-.06.52,0-.34-.26.21,0,.13-.39a.91.91,0,0,1,.22.12.76.76,0,0,1,0-.27v0h0s0,.06,0,0h0l-.1.07c0-.15.05-.08.1-.07l0,0h0c-.14-.07-.3-.12-.45-.18C112.05,92.91,112.15,93,112.32,93.11Z"/><path class="cls-1" d="M112.36,95.7a.12.12,0,0,1,0,0S112.34,95.65,112.36,95.7Z"/><path class="cls-1" d="M112.44,95.46s.17,0,.19.05-.13.08-.22.14c.1,0,.3,0,.34-.18h-.06a1.34,1.34,0,0,1,.28-.59A4.28,4.28,0,0,0,112.44,95.46Z"/><path class="cls-1" d="M112.39,94.35a2.68,2.68,0,0,0-.34-.16l-.09.3.12-.11C112.15,94.56,112.28,94.41,112.39,94.35Z"/><polygon class="cls-1" points="111.7 92.26 111.95 92.04 111.48 92.27 111.7 92.26"/><polygon class="cls-1" points="111.29 92 111.47 91.78 111.27 91.84 111.29 92"/><path class="cls-1" d="M99.64,103.4l.11,0A.22.22,0,0,0,99.64,103.4Z"/><path class="cls-1" d="M99.41,102.93l-.13,0C99.36,103,99.42,103,99.41,102.93Z"/><path class="cls-1" d="M100,91.53c-.28-.15-.68-.39-.48-.14l.22.24A.22.22,0,0,1,100,91.53Z"/><path class="cls-1" d="M97.23,98.47l.1,0-.27-.15Z"/><path class="cls-1" d="M98.5,98.8l-.22.11A.57.57,0,0,0,98.5,98.8Z"/><path class="cls-1" d="M101.75,105.18,102,105C101.9,104.9,101.85,105.06,101.75,105.18Z"/><path class="cls-1" d="M106.67,90.21a.68.68,0,0,0-.32-.24C106.5,90.17,106.59,90.46,106.67,90.21Z"/><path class="cls-1" d="M96.6,104.84a.22.22,0,0,0,.21,0A.22.22,0,0,0,96.6,104.84Z"/><path class="cls-1" d="M105.94,89.94,106,90a.45.45,0,0,1,.34,0C106.24,89.82,106.1,89.73,105.94,89.94Z"/><path class="cls-1" d="M110.6,103.69h0S110.6,103.67,110.6,103.69Z"/><path class="cls-1" d="M114.79,101.36a.4.4,0,0,1,0,.19S114.82,101.46,114.79,101.36Z"/><path class="cls-1" d="M109.66,90.85c.1,0,0,0,0,0Z"/><path class="cls-1" d="M109.53,92.17a.44.44,0,0,0-.11.12A.44.44,0,0,1,109.53,92.17Z"/><path class="cls-1" d="M105,91.89h0C105,92,105,91.94,105,91.89Z"/><path class="cls-1" d="M109.74,91.05a.64.64,0,0,0-.08-.14A.55.55,0,0,0,109.74,91.05Z"/><path class="cls-1" d="M109.79,90.9l.07.07S109.9,90.9,109.79,90.9Z"/><path class="cls-1" d="M109.52,90.8a.3.3,0,0,1,.14.11s0,0,0-.06Z"/><path class="cls-1" d="M106.21,107.31l0,0C106.28,107.19,106.25,107.22,106.21,107.31Z"/><polygon class="cls-1" points="100.28 95.47 100.28 95.45 100.26 95.45 100.28 95.47"/><path class="cls-1" d="M100.29,95.81c-.23-.33-.14-.35,0-.36l-.73-.54C99.78,95.21,100,95.52,100.29,95.81Z"/><path class="cls-1" d="M100.44,104.34l.11-.3c.48-.17.44,0,.65-.34-.78.65-.44-.37-1.25.19l.11-.2s.06,0,.07,0c.26-.44-.68.27-.72-.06a.26.26,0,0,1,.23-.26l-.33-.07c0-.06.15-.13.16-.07s-.14-.18-.22-.26l0,0a2.55,2.55,0,0,1-.54,0c.08-.14.11,0,.21-.08l-.3-.08c.21-.17.49-.12.52,0,.83-.55-.3,0,.11-.61l.17.11c.49-.3.26-.34.53-.6-.16.07-.71.62-1,.52.06-.08.06-.16-.16-.2.33-.11.23-.18.17-.3l.46-.12c-.17-.09-.39,0-.62-.06,0-.16.35-.27.64-.36,0-.25-.54.28-.67,0,.15-.24-.08-.35-.37-.59.15-.17.29,0,.42-.06l-.38-.11s.12,0,.18,0c-.15-.1-.47,0-.6-.17-.53,0,.74-.38.18-.62.13,0,.28,0,.46,0a4.81,4.81,0,0,0-.74-.61l.34-.18c-.37.11-.75-.16-1-.44l-.41.09a2.83,2.83,0,0,1-.17-.4.84.84,0,0,1,.41.14l-.1-.08c.2-.09.45,0,.68.18l-.31,0a2.45,2.45,0,0,0,.83.3.25.25,0,0,1-.11-.12.45.45,0,0,0,.19.06c.05,0,0,0-.15-.12l.52,0-.2-.06.41-.28c-.45-.39-1.07-.88-1.09-1.44a3.22,3.22,0,0,0,1,.45c-.48-.07.08.4-.09.57.09-.1.28,0,.34.05l-.27-.52c.34.15.28,0,.47,0-.7-.23-.31-.47-.44-.73.22.11.43.26.29.41.58.06-.65-.66-.11-.63,0,0-.07,0,0,.13-.13-.21.17-.37.32-.2l0,0a.87.87,0,0,0,.12-1.23l.63.6a14.38,14.38,0,0,1-1.13-1.86c.35.4,1.39,1.14,1.44,1.55.11,0,.22,0,.2-.26-.09,0-.64-.45-.62-.54a5.36,5.36,0,0,0,.85.34c-.13,0-.62-.71-.5-.79.06.11.54.62.57.72a6.89,6.89,0,0,1-.28-.84c0,.17.42.55.62.7-.13-.11.21-.15.22-.26l-.21-.08c.34-.1-.36-1.15,0-1.33,0,.17.44.95.64.95-.16-.4-.65-1.95-.39-2.43l.17.19a2.59,2.59,0,0,1,.17-.38c0,.66.18,2.08.25,2.62.2.11.16.23.32.13a.27.27,0,0,1,0,.38l.42,0c-.23-.44.09-.58-.07-1-.09.21-.16.44-.23.66-.24-.42-.33-1.4,0-1.44.15.15.25.84.32,1,0-.17.17-.41.24-.31l0,.3c.21.11.07-.72.41-.32.08,0,.36.56.3.27a12.16,12.16,0,0,1-.71-2.61,2.46,2.46,0,0,1,.75.67c.21.41,0,1,.17,1.41a.94.94,0,0,1,0-.37c.1.11,0,.42.2.33-.05-.49.35,0,0-.42.15-.17.19.06.39,0a1.68,1.68,0,0,1,.31-1.25,1,1,0,0,0,.07.36c.4,0,.6.28,1,.29,0,.12.18.28.09.49,0-.08.12-.24.23-.24.14.46-.24,0-.15.57,0-.29.31-.36.49-.51,0-.45-.35-.14-.51,0a1.77,1.77,0,0,1,.9-1.42c.37-.08.07.42.14.35.57.26.82-.93,1.22-.31.07.44-.25.73-.3,1-.28,0-.3-.37-.48-.4l.16.24c-.12.1-.3.15-.37,0,.07.36.94.35,1.2.84.13-.09.31-.15.32-.32h-.15c0-.35.43-.28.33-.49.27-.11.67-.33.83,0l-.17.41c.06-.11,0-.33-.17-.25.21-.11.07.75.49.32l0-.37c.29-.08.81-.35,1-.05.15-.44-.08,0,0-.54-.21.62-.62-.42-.74.31.13-.62-.16-.41-.17-1-.07.14,0,.3-.23.12a1,1,0,0,1-.11.1v0s0,0,0,0a.43.43,0,0,1,0,.25c-.26.25-.58.08-.76.19-.09-.12.12-.13.11-.31l-.27.17c.11-.3-.15-.63.24-.69l-.28-.12c-.11-.24-.33-.4-.52-.31-.13-.11-.46.25-.27,0l-.51.07v-.08c-.47-.15-1,.35-1.49-.27a.68.68,0,0,1-.59.06l0-.28c-.2.08-.64-.27-.71,0-.29-.77-1-.07-1.43-.13l.06.36a1.39,1.39,0,0,0-.72.42l.1.31c-.17.3-.69,0-1.07.15,0-.13.09-.14.18-.09-.36-.26-.57,0-.73.22s-.29.52-.61.4c0,.16-.13.16-.23.13a0,0,0,0,0,0,0l0,0-.22-.06.2.08a.71.71,0,0,0-.22.29l-.24-.27s0,0,0,0c-.18,0,0,.2.21.38a.6.6,0,0,0,0,.27c-.41-.4-.14.34-.61-.06.1.28-.36.57,0,1.08-.06-.06-.11-.06-.06-.11-.15,0-.3.08-.26.28l-.35-.28q.09.32.21.63c-.31-.07-.48-.11-.6-.48.09.68-.1.4.06,1l-.21-.19c-.07.11.11.51-.12.42-.65-.09-.86,1.12-1.62,1.61.84.2-.49.19.11.47-.2,0-.34,0-.46-.15,0,.44-.53.47-.06.9-.2,0-.26-.16-.38-.15,0,0,.13.17,0,.18s-.15-.1-.22-.19c-.07.43.52.61,1.08.77-.32.12-.3.23,0,.44-.19,0-.41.11-.44-.14,0,.12-.4.8.07.86-.12,0,0,.18,0,.22a1.86,1.86,0,0,0,0,.62l.08-.08c.55.12.12.24.2.47h-.06c-.37.56.19.21-.21.78l.34-.07c.76,0-.37.52,0,.79l.18-.15c.27.1-.89.68-.94.9,0,.06-.11,0-.17-.08-.31.6.45,0,.65.26-.22.13-.63.09-.6.35-.14.19,1,.4.68.87.14-.15.29-.28.48-.2s-.35.94.29.85a.29.29,0,0,1-.11.11c.24.09.54.4.87.31-.46.4-.15.56.13.68s.57.18.15.54l.44.39-.1.07c.21.33.51.21.78.1,0,.11-.11.15-.15.19.24.53.36.53,1,.34l-.18.32c.2-.09.36.92,1,.81a.28.28,0,0,1-.12.12c.37-.06.57.34.83.58s.51.37.81-.22c.16-.06.32-.14.47-.21-.44-.22.22-.53.09-.79.19,0,.35.5.12.51l0-.07c-.26.64.52.39.41.83a13.33,13.33,0,0,0,2.92.5l-.17-.52h.32c.1.11.17.39-.06.41.16.28.36-.32.34-.43.49.14-.08.64.06.63l.19-.07-.06,0c.12-.25.09-.46.37-.5s.16.3.24.3,0,0,.11,0l.42-.07-.28-.36c.12-.24.37-.08.06-.48.23.31.61.24,1,.11s.62-.35.75-.29a.85.85,0,0,1,.57-.63c-.11,0-.39-.41-.15-.49.46.87.61.09,1.21.51-.43-.24.54-.57-.13-.88.21-.09.25.27.52.33.15-.63,1.05-.65,1.37-1.29-.09-.09-.31-.12-.38-.35.24,0,.48.08.73.1,0-.15-.53-.51,0-.47-.11,0-.27-.07-.26-.17a2.61,2.61,0,0,0,1-1.67,3.21,3.21,0,0,1,1-1.81c-.28.14-.28,0-.27-.12-.07.08-.31,0-.49-.06.19-.15.38-.31.56-.48-.48-.14,0-.6-.46-.67l.07.17c-.53-.23-1.22.24-1.91.14.62.28-1,.39-.14.84-.15,0-.21-.1-.38-.1.29.14.32.25.14.4l-.06,0c-.05.51-.42.64-.8,1l.33.1c-.09.09-.2.07-.3.08.41.35.17-.29.64.06-.69-.14-.4.79-1.16.47-.09.15.37.16.27.32l-.2-.08.2.19c-.1.08-.36,0-.51-.13,0,0,0-.09,0-.12-.3,0-.18.37-.28.37l.21-.06c-.12.54-.74.74-.81,1.39l.14.1c-.11.48-.36,0-.6.41v-.05c0,.19,0,.32-.13.36,0-.21-.37-.21-.36-.46-.18.48,0,.32,0,1l-.19-.21c0,.26.08.38-.1.54.07-.29-.29-.31-.25-.67-.6-.35-.38.79-.85.06,0,.78.49.26.44.45.18.19,0,.58-.14.56s-.53-.84-.84-.74c0,0,0-.06.05-.06-.16-.17-.18.32-.4,0,0,.46-.2,0-.13.58l.3-.18c-.15.17-.23.87-.6.6a1.15,1.15,0,0,1,.14-.38c-.11-.16-.16.14-.27,0,0-.57.37-.18.49-.64-.12-.23-.29.46-.28-.17,0,.82-.32,0-.5.56v-.35c0,.06-.09.22-.16.22l.1-.46c-.17.39-.34-.3-.5-.11.34,0,.07.42.23.67-.49.45-.25-.91-.72-.77.07,0,.23.22.11.38a.7.7,0,0,1-.22-.42c-.32,0,0,.36-.16.55-.06-.43-.19.15-.37.26l.06-.35c-.32-.29-.25.7-.54.35l.26-.44-.2.08.13-.38c-.25.24-.3.17-.44,0,0,.25-.22.6-.39.55,0-.24.17-.29-.08-.33.14-.19.28-.43.27-.09,0-.1.12-.19.17-.29,0-.27-.25-.15-.34-.18a.15.15,0,0,1,.06.11,3.86,3.86,0,0,1-.51.31.45.45,0,0,1,.17-.3c-.07,0-.19.14-.29.12.15-.25.27-.51.45-.58l-.42.15c0-.11,0-.37.11-.44,0-.23-.63.27-.71,0a.21.21,0,0,1-.15.07c-.14-.19-.08-.55-.51-.43l.24-.48c-.23,0-.29.61-.68.53s.24-.38.28-.54c-.25.11-.79.29-.63-.15C100.39,104.23,100.37,104.32,100.44,104.34ZM99,102.28c.09,0,.33,0,.15.14C98.73,102.51,98.89,102.39,99,102.28Zm-1-4.09c.1.07,0,.11-.12.15S97.89,98.23,98,98.19Zm10.49-7.51h0C108.37,90.51,108.41,90.58,108.49,90.68Zm.28.26a.17.17,0,0,0,.07-.13c-.06.07-.13,0-.21,0S108.64,91,108.77,90.94Zm-1.21,18.51-.08-.07C107.59,109.24,107.58,109.34,107.56,109.45Z"/><path class="cls-1" d="M98.35,98.77l-.19,0A.21.21,0,0,0,98.35,98.77Z"/><polygon class="cls-1" points="101.71 105.22 101.71 105.23 101.75 105.18 101.71 105.22"/><path class="cls-1" d="M104.07,93.37a.4.4,0,0,1-.13-.16C104,93.29,104,93.36,104.07,93.37Z"/><path class="cls-1" d="M110.7,91.24l-.24,0c.1,0,.1.13.11.2S110.64,91.21,110.7,91.24Z"/><path class="cls-1" d="M110.83,94.05s0,0,.09,0L111,94C110.93,93.88,110.79,93.92,110.83,94.05Z"/><path class="cls-1" d="M110.25,92.33c-.15.26,0,.23.16.28s0,0,0,0C110.66,92.28,110.46,92.29,110.25,92.33Z"/><path class="cls-1" d="M110.45,92.62a.19.19,0,0,1,.11.07C110.67,92.57,110.53,92.63,110.45,92.62Z"/><path class="cls-1" d="M109.25,90.92c0,.1.19-.32.18-.19C109.66,90.41,108.8,90.93,109.25,90.92Z"/><polygon class="cls-1" points="109.81 93.2 109.97 92.87 109.75 93.08 109.81 93.2"/><path class="cls-1" d="M109.05,92.46l.14.18a.14.14,0,0,1,.11-.08C109.19,92.49,109.09,92.36,109.05,92.46Z"/><path class="cls-1" d="M109.3,92.56a.2.2,0,0,0,.18,0A.26.26,0,0,0,109.3,92.56Z"/><polygon class="cls-1" points="109.51 93.15 109.5 93.05 109.39 92.95 109.51 93.15"/><path class="cls-1" d="M106.9,91.65l-.25.07c-.05.12,0,.2.09.17S106.91,91.77,106.9,91.65Z"/><path class="cls-1" d="M107.31,92.78a.91.91,0,0,1,0-.29l-.13.43Z"/><path class="cls-1" d="M106.71,92.74c0,.12-.35.31-.1.32C106.65,92.93,106.87,92.87,106.71,92.74Z"/><polygon class="cls-1" points="103.52 92.21 103.58 92.19 103.41 91.47 103.52 92.21"/><path class="cls-1" d="M101.81,94.82c.27.05-.2-.41.08-.32,0-.18-.23-.07-.26-.23C101.61,94.5,101.5,94.44,101.81,94.82Z"/><path class="cls-1" d="M101.63,94.27a.66.66,0,0,0,0-.13A.45.45,0,0,0,101.63,94.27Z"/><polygon class="cls-1" points="115.26 100.66 115.42 100.45 115.17 100.58 115.26 100.66"/><path class="cls-1" d="M114.73,100.25l.47,0-.42-.12S114.84,100.21,114.73,100.25Z"/><path class="cls-1" d="M99.77,101.65l-.11,0c-.12,0-.12.08-.12.15Z"/><polygon class="cls-1" points="100.12 103.3 100.11 103.27 99.78 103.55 100.12 103.3"/><path class="cls-1" d="M101.4,104s-.14,0-.16-.08C101.37,104,101,104.42,101.4,104Z"/><path class="cls-1" d="M105.13,134.91l.09.09C105.11,135,105.06,135,105.13,134.91Z"/><path class="cls-1" d="M106.52,135.63a2.48,2.48,0,0,1-1.3-.63C105.58,135,106.61,134.84,106.52,135.63Z"/><path class="cls-1" d="M105.38,133.66l.42.35C105.47,134.14,105.62,133.8,105.38,133.66Z"/><polygon class="cls-1" points="105.37 134.41 105.27 134.69 105.09 134.35 105.37 134.41"/><path class="cls-1" d="M80.26,133.44a.9.9,0,0,1,0,.44Z"/><path class="cls-1" d="M79.19,132.09A1.49,1.49,0,0,0,79,132C79,132,79.08,132,79.19,132.09Z"/><path class="cls-1" d="M81.28,133.37l-.2,0A.24.24,0,0,1,81.28,133.37Z"/><path class="cls-1" d="M93.82,133.63c.15.24.29.45.4.6C93.83,134.39,93.87,133.92,93.82,133.63Z"/><path class="cls-1" d="M74,127.8l0,.24C73.85,127.93,73.82,127.83,74,127.8Z"/><path class="cls-1" d="M79.05,128.22a1.08,1.08,0,0,1,0,.3l-.06-.06Z"/><path class="cls-1" d="M82.1,133v0l.15.16C82.17,133.12,82.12,133.07,82.1,133Z"/><path class="cls-1" d="M72.3,127.51a2.39,2.39,0,0,1-.22-.5A.54.54,0,0,1,72.3,127.51Z"/><path class="cls-1" d="M78.93,132h0Z"/><path class="cls-1" d="M80.72,128.53a2.1,2.1,0,0,1-.26-.13C80.58,128.35,80.67,128.42,80.72,128.53Z"/><path class="cls-1" d="M93.82,133.63l-.13-.2C93.76,133.45,93.8,133.52,93.82,133.63Z"/><path class="cls-1" d="M103.72,135.08c-.16,0-.16-.2-.14-.37A1,1,0,0,1,103.72,135.08Z"/><path class="cls-1" d="M47.11,135.87h-.06A0,0,0,0,1,47.11,135.87Z"/><path class="cls-1" d="M53.12,135.2a.71.71,0,0,1,.11.17C53.2,135.44,53.15,135.34,53.12,135.2Z"/><path class="cls-1" d="M57.78,128.74c-.36.39-.87-.24-1.24-.22l.17.27-.39-.18.06.4c-.62-.09-1.28.44-1.6-.17l.18.64-.71-.41.43.38a5.28,5.28,0,0,1-2,0l.1.23c-.09.14-.21,0-.34-.05l.16.34c-1.07.11-1.2,1-2.43.83-.3.15.2.08.24.28s-.57.14-.69,0c.21.55.66.27.38.8-.32-.22.29.49-.19.47l-.34-.68c-.23.18.07.57-.35.59-.53-.21.39-.95-.38-.88-.36.13-.41,1.84-1.21,1.61-.53.53.58,1-.31,1.06l.65.34c-.09.24.08.58-.32.51-.18-.25-.49-.55-.7-.54.92.36-.49,1,.41,1.51l-.28,0s.07.09.07.15l-.35.13c.26.11.8,0,.68.63L47,137c.23.36.09.57.19.88l1.7.41c-.12-.22-.37-.33-.35-.59.35-.31.43.36.73-.06l-.24-.28c.06.11.12.14,0,.2-.09.24-.2,0-.25-.19,0-.44.49-.25.67,0,.48-.16-.06-.75,0-.89.4.62.82-.21,1.2,0l-.3-.39c.27-.62.7-.25,1-.14l-.16-.34c.54-.05.56-1.32,1.22-.11l-.11-.23c.2-.16.48-.49.76-.15,0-.15,0-.34.06-.41.21.48.37.05.67-.09-.23-.09-.28-.75-.54-.86.38-.75.59.63,1,.55.19-.37-.29-.32-.4-.55.71.24,1.09-1.73,1.72-.51l-.21.46c.3.24.44.21.39.1-.07.05-.12-.06-.17-.18.68-.79,1.37.75,2.12.37-.1-.23-.22-.3-.26-.5.33-.3.54,1.21,1.05.62l-.15-.26c.17-.2.37.18.35.27-.13-1.11,1.25-.12,1.48-1.6.37.57,1.24.94,1.46.57.29-.7-.41-.69-.34-1.32.28,0,.5.56.91.3.07.61-.7,1.33.13,1.6l.07-.34c-.07.05-.17.19-.3.12-.27-.34.1-.43.13-.6l.88.1c.12.65-.4.55-.44.72.66-.22,1.39-1.26,2.06-.87l-.08-.24c.85.49.37-1.24,1.1-.24.32-.2-.18-.69.33-.78.15,0,.08.24.06.33.65.19.23-.64.86-.08l-.17-.69c.73.43,1.52,1.6,2.1,1.28-.06-.54-.43-.47-.6-.87.87.94,2,0,2.74.52-.21.47.38,1.06-.08,1.45-.15-.69-.36-.23-.61-.29.46,1.49,1.7-.79,1.86.52l.1-.54c.11.08.41.47.21.65l.81-.36c-.29-.41-.92-1.33-1.1-.74-.24-.57.33-.39.11-1,.57.88.34-.39.92-.2-.25.78.58,1.05.56,1.43.18-.15.6.21.76.47.33.07,1.08-.56,1.61-.27a1.59,1.59,0,0,1-.49-1.07c.26.28.55.28.61-.29-.92-1.07-.32,1.31-1.15.63a1.29,1.29,0,0,0-.87-1c.2-.38.11-.54.19-1,.54,1.37,1.39.13,2.09.83.28.41,0,1.28.7,1.44l-.57.41c.63-.37.14.41.65.57l-.2-.45c.32-.08.43,0,.6.33l-.25-.7c.17-.08.48-.17.48.24a1.83,1.83,0,0,0,.07-.42c0,.12.11.2.3.18-.11-.08-.2,0-.19-.25.75.2.2-.74.67-.66-.07-.16.07-.36.24-.44,0,1.1.87,1.28,1.09,1.89h0l.6.46c-.12-.09,0-.38.22-.49h0c.21-.16-.18-1.2.41-.85l.3.34c-.06-.05,0-.21,0-.29l.31.31c.56-1,.9.64,1.52.18-.18.08-.43,0-.29-.34.12-.12.28,0,.36.18l0-.12,1.06.76c-.06-.38-.68-.46-.37-.85s.48.07.68.13c0,.28-.44.5-.08.69,0-.14.43-.4.29-.62.35.32.89.55,1.18,1.1.12-.12,0-.25-.09-.3l0,.08c-.21-.18,0-.74-.44-.49,0-.95.67-.19,1.08-.28l-.57-.71c1.21-1.19,2.51.38,3.56.53-.35.25-.57-.06-.63.68.61.43.54.27,1.17.5l0,0c.39-.33.74.46,1.06-.17-.09-.42-.53.32-.43-.5l.81.18c-.18-.52-.81-.18-1.1-.34-.24,0,.43.17.25.69-.76-.12-.86-.67-1.14-1.49-.16-.6.41-.54.56-.52.38.91,1,1.4,1.85,1.13l.52-.55c.29.61,0,1.69.65,1.66l-.13-.47c.18-.15.29-.2.36-.18-.24-.38-.5-.82-.71-1.2.54-.89,1,.65,1.58.93,0-.13-.2-.2-.22-.45.9-.08,1.59,1.2,2.21,1.47.35-.36-.49-.38-.25-1,.31.29.8-.16.78.42,0-.84.8.09.29-.79,1.32-.11,2.54.92,3.68,1.65a1.17,1.17,0,0,1,.12-.6,1.45,1.45,0,0,1-1.11-1.06c.37-.35.54.69.68.47-.1-.23-.39-.29-.3-.69.46-.37.53.31.77.44l-.19.18c.67.72.12,1.5,1,1.47.42-.42.09-.4.23-1,.14.28.94-.22,1,.47l-.52-.08c.31.26.65.34.85.61,0-.14,0-.27,0-.34.24.26.61.3.65.74l.25-.62c-.24.23-.76.16-.76-.22.19-.55.62-.07.85-.06-.94-.43-.71-1.42-1.65-1.22l.09.24c-.64.36-1-.57-1.45-.66a.46.46,0,0,0,.2-.45c-1.14.27-2.06-.33-3.3-.26l-.22-.71-.12.48c-.62.11,0-.7-.37-.73.14,0,.1.1.1.23-.56-.68-.46.38-.8.16.08.55.68.32.39,1-.56-.68-1.65-.56-1.54-1.75-1.33.25-2.75-.73-3.8-1-.17.19.07.18,0,.34-.32-.75-1.46.29-1.39-.33-.22.14-.36.58-.44.74a1.78,1.78,0,0,0-.86-.64l.23.2,0,.08-.32-.28v0c-.82-.28-1.82-.23-2.52-1,.4.45-.19.73,0,1-.3-1-1.24-1.12-2-1.09,0,.2-.08.36,0,.53l-.41-.43,0,.25c-.8.12-1.6-1-2.15-.6.31.14.3.34.32.67a4.36,4.36,0,0,1-1.76-.43.3.3,0,0,1,0,.21c-.17.08-.37-.17-.55-.3l0,.49c-.33-.24-.78,0-1.17-.41-.18.54-1-.54-1.44-.32-.18-.12.37.58-.13.54,0-1.07-.65,0-.67-1.19l-.44.41-.1-.57c-.38,1.07-.56-.5-1.13-.15,0,.12.09.16.06.24-.18-.12-.6-.19-.27-.48-.3,0-1.32-.26-.86.35,0-.33.39,0,.57.07,0,.49-.47.3-.58.84,0-.06-.08-.14-.12-.22l-.06.3c-.56-.54-1.12-.14-1.54-.83a.25.25,0,0,1-.31.24l0-.61-.6,0,.3.9c-.64.2-1.13-.82-1.68-.94-.09,1-1.07-.35-1.49.59l.44.26c-.91-.15-1,.48-1.87.19a5,5,0,0,0,1.69-1.08c-1,.47-1.83-.48-2.74.18.08.24.33.38.11.65-.22-.52-.89.08-.8-.54-.27.23-.28.81-.45.91l-1-.67,0,.12c-1.53,1.58-3.23-.64-4.85.18l.08.32-.49-.42c.37.27-.09.43-.07.72L57.36,128C57.38,128.26,57.54,128.9,57.78,128.74Zm14.18-.9.25,0a.11.11,0,0,1,.17,0l-.17,0C72.09,128,72,128.22,72,127.84Zm23.23,2.87c.07.3-.19,0-.28.08l.39.14C95.39,130.78,95.24,130.76,95.19,130.71Zm-23.12,1.12-.13.42-.18-.32Zm-3.5.17.36.22,0,.09-.36-.22Zm-4.17-3a.25.25,0,0,1,.08.07s0,0-.08-.07c-.3-.28-.34.47-.63-.23C64,128.1,64.22,128.72,64.4,129Zm6.32-.4c.12.07.18.11.26.07-.07-.25-.32-.61-.15-.7.14.29.55.35.57.76C71,128.25,70.81,129.42,70.72,128.56Zm8.46.28-.09,0,.32.33Zm1.52.47c.15.54.62.48.94.61.11-.45-.19-1-.58-1C80.64,128.53,80.86,129.65,80.7,129.31Zm-12.7.17.11.36-.08,0,.36.22c-.43.53-.81-.38-1.06-.53C67.54,129.61,68.15,130.46,68,129.48Zm15.93.3c.3.34.85.78.77,1.15a.94.94,0,0,0-.51-1.06C84.1,129.91,84,129.86,83.93,129.78Zm-.11,1.31c-.45-.35-.46-.68-.77-1.36.49-.26.55.65.47,1,.3.34.27-.12.45-.19Zm-.35-2-.2.08c-.25.28-.35,1.07-.61.25l.61-.25A.2.2,0,0,1,83.47,129.09Zm4,.39-.17-.26c.19,0,.21.15.17.26l.14.22C87.14,129.91,87.38,129.69,87.44,129.48Zm-3-.09-.55-.11C83.85,129.61,84.21,129.46,84.4,129.39Zm2.86.7a3.19,3.19,0,0,1-.77,0C86.58,129.74,87.13,129.87,87.26,130.09Zm11.95,2.84-.33-.1.27-.46Zm-4.08-.4.13-.23.19.07ZM91.41,132a.81.81,0,0,0,0-.35.35.35,0,0,1-.1-.23s.09.11.1.23a.36.36,0,0,0,.49,0c0-.25-.26-.24-.33-.42.43-.53.94,1.33,1-.37.11.22.54.73.33,1a1.9,1.9,0,0,0-1.49.18c0,.09-.07.16-.14.16A.52.52,0,0,1,91.41,132Zm-5.06-.23c-.14-.06-.2-.11-.22-.17A.66.66,0,0,1,86,131c.28.23.07.4.13.56A.57.57,0,0,0,86.35,131.75Zm-.9,0,.43.36-.2-.39.63.75C85.88,132.79,85.47,132.22,85.45,131.77Zm-.19.31-.06-.41.11.42h0v.09l-.75-.3Zm-7.92-1.24c-.32,1.39.66,1,.8,1.67,0-.46.36-1.18-.41-1.18.68-.45.39.91.82-.24-.32.08-.69-.3-.75-.33l.38,0C78,129.85,77.59,131.13,77.34,130.84Zm-4,.2-.5,0,.47.11Zm-12,1.16c.08.32-.47,1-.7.4C60.89,132.47,61.23,132.46,61.28,132.2Zm-5.15.63.59.18c0,.75-.49.05-.72.22C55.85,132.88,56.09,133.09,56.13,132.83Zm-3.52.61-.19-.08.32.69Zm.42.92a.34.34,0,0,0,.43.37Zm-3,1.27.21-.09-.34-.6Zm.19-.83c.15.45.26,1.08.71.66-.09-.49-.22-.45-.15-1.06-.2-.08-.29.15-.37.21.13,0,.23-.18.33.14a.32.32,0,0,1-.52.05.61.61,0,0,0-.2-.35A.75.75,0,0,0,50.23,134.8Zm1.76-.89a.54.54,0,0,0,.11-.23l.06.11c0,.23-.1.19-.17.12a1.52,1.52,0,0,1-.22.22c0,.42.43.63.57.84-.19-.08-.41-.45-.59-.16.06.11,0,.2.18.17l-.28.15c-.47-.5-.17-.75.12-1a.72.72,0,0,1,0-.31C51.85,133.76,51.92,133.85,52,133.91Zm-2.67-.39.19.08c.12.14.11.31.16.42C49.47,134,49.15,133.81,49.32,133.52Zm10.22-1.94c-.1.14.23.59.47.43l-.06.64c-.06-.41-.56-.3-.63-.33C59.16,131.77,59.39,132,59.54,131.58Zm12.05-1c.12.78.77.29.92.49C72.17,131.29,71.4,131.49,71.59,130.62Zm1.15-.35c.18,0,.23-.07.22.32.09.16.23,0,.32.12-.35.34-.34-.28-.54-.44l-.17,0A.2.2,0,0,1,72.74,130.27Zm-7.09.29-.28-.55-.38.08Zm-4.15-.63c.07.32-.37.38-.47.23.07.42.36.33.59.36a.2.2,0,0,0,.16,0,.29.29,0,0,0-.16,0c-.1-.09-.06-.32-.08-.47l.1-.14-.33-.08Zm-7.2.56c-.2.37-.25.26-.45.17A.31.31,0,0,1,54.3,130.49Zm9.32-1.16c-.42.25.27.63,0,.87l.22-.06c-.33.49-.31-.47-.56-.31l.17-.11c.1-.42-.3-.25-.36-.57C63.28,129,63.79,129.23,63.62,129.33Zm-9.78,1c-.36.49-.43-.38-.71-.41C53.41,129.45,53.5,130.23,53.84,130.29Zm6.87-1.92,0-.08-.39-.2,0,.09Z"/><path class="cls-1" d="M54.08,134.65a.24.24,0,0,1-.23,0A.46.46,0,0,1,54.08,134.65Z"/><path class="cls-1" d="M73.82,133.21a.26.26,0,0,1,.1-.21A.4.4,0,0,1,73.82,133.21Z"/><path class="cls-1" d="M74.65,133.47h0l0,0Z"/><path class="cls-1" d="M103.34,135.55c0,.56-.19,0-.33,0C103.15,135.59,103.29,135.24,103.34,135.55Z"/><path class="cls-1" d="M102.45,134.42a.66.66,0,0,0,.27.39C102.63,134.8,102.54,134.72,102.45,134.42Z"/><path class="cls-1" d="M103.3,134.86a.78.78,0,0,1-.58-.05C102.87,134.82,103,134.65,103.3,134.86Z"/><path class="cls-1" d="M99.44,133.89a.38.38,0,0,0,.47.26c-.79.14,0,.64,0,.89C99.51,134.83,99.59,134.43,99.44,133.89Z"/><path class="cls-1" d="M98.5,133.53a.41.41,0,0,0,.22,0A.18.18,0,0,1,98.5,133.53Z"/><path class="cls-1" d="M98.17,133.78c-.24-.12-.26-.5-.32-.8.36-.21.44.41.65.55C98.32,133.5,98.15,133.42,98.17,133.78Z"/><path class="cls-1" d="M90.08,134.25c.06,0,.2.06.17.26l-.42,0C89.68,134.32,90,134.28,90.08,134.25Z"/><path class="cls-1" d="M88.64,133.06c-.33-.07-.22.48-.38.34l.1-.7Z"/><polygon class="cls-1" points="89.25 129.56 89.35 129.64 89.23 129.6 89.25 129.56"/><path class="cls-1" d="M86.93,133.57l.15.8A.85.85,0,0,1,86.93,133.57Z"/><polygon class="cls-1" points="85.59 133.97 85.76 134.22 85.16 133.94 85.59 133.97"/><polygon class="cls-1" points="84.06 133.46 83.99 133.62 83.58 133.39 84.06 133.46"/><path class="cls-1" d="M67,132.72c-.11-.66.6-.43.79-.61C67.69,132.94,67.21,131.87,67,132.72Z"/><path class="cls-1" d="M54.61,134.25l.67,0C54.83,134.63,55.15,134.31,54.61,134.25Z"/><path class="cls-1" d="M76.64,5.18v.09S76.68,5.24,76.64,5.18Z"/><path class="cls-1" d="M77,5.09h0S77,5.09,77,5.09Z"/><path class="cls-1" d="M82.29,35.88a.15.15,0,0,0,.11.08A.13.13,0,0,0,82.29,35.88Z"/><path class="cls-1" d="M75.49,30.21h.1A.17.17,0,0,0,75.49,30.21Z"/><path class="cls-1" d="M76.8,6.3l0,0C76.74,6.25,76.74,6.29,76.8,6.3Z"/><path class="cls-1" d="M81.91,37.35h0Z"/><path class="cls-1" d="M75.19,9.78l0,0S75.22,9.79,75.19,9.78Z"/><path class="cls-1" d="M82.49,29.06l-.11,0S82.43,29.06,82.49,29.06Z"/><path class="cls-1" d="M81.54,29c.27.29.55-.06.84,0-.08-.07,0-.24-.25-.16.58-.15-.32-.46.14-.62,0,0-.24.09-.39,0s.22-.15.33-.22c-.16,0-.28-.31-.2-.29-.14-.11-.57.12-.82,0s-.06-.25-.16-.38c.27-.15.19.15.32.21l-.18-.42c.2-.13.38.05.33.18.25-.17,0-.39-.3-.44.07-.11,0-.17.13-.27.18.1.74.1.83.26s-.42-.1-.51.12L82,27c-.19.09.06.17.08.27s-.12,0-.17,0c0,.18-.15.33.23.47.31-.25-.11-.62.27-.73l-.46-.49c-.16,0-.4.17-.63,0,.39-.05.57-.2.64-.39-.43.07-.38-.3-.73-.2.22.08-.14.13-.17.14,0-.18-.39,0-.42-.12.1-.34.27,0,.43-.32a2.56,2.56,0,0,1,.79.43c.19,0,0-.18.19-.26-.22.11-.4-.07-.5,0-.17-.26-.61-.57-.71-.89.63,0,.48.54,1.22.44-.09-.16-.4-.16-.35-.28.38-.11,0-.37,0-.59l-.19.1c-.15-.08,0-.23,0-.33l.08,0-.11-.1,0,0c-.19-.1,0-.36-.12-.56-.3,0,0,.2,0,.29S81.2,24,81,24c0-.24-.37-.41-.36-.69l-.09.09c-.21-.09-.11-.21-.12-.34.21-.24.43.18.61,0,.27.09,0,.26.35.28l.43-.15c-.26-.12.13-.26.07-.35l-.19.09c-.33,0-.08-.1,0-.15l-.48.07c-.09.13.34.23.06.33-.16-.25-.55-.19-.56-.48.19,0,.07.05.21.08s-.26-.2-.1-.37a.48.48,0,0,0,.56.13L81,22.43c.06-.07.2,0,.21-.07s-.38,0-.29-.15.16-.08.24-.06c0-.19-.12-.09-.29-.27,0,.16-.56.17-.62,0s-.25-.4.21-.57l-.24-.1c.35.06.12-.16.18-.23.38,0,0,.36.61.36,0-.16.24-.09.41,0-.06-.17-.44-.06-.69-.14.16,0,0-.29.38-.19,0-.14-.37-.17-.3-.27a4.7,4.7,0,0,0,.55,0c-.13,0,0-.15,0-.18s-.33-.05-.22.08c-.29,0,0-.3-.26-.29.34,0,.07-.27.21-.4-.8,0,.31.24-.35.29-.28-.18,0-.59-.38-.88.15-.24.3,0,.6-.05.13.23-.11.29,0,.48a.55.55,0,0,0-.19-.72c0-.23.8-.26.6-.54-.26,0-.32,0-.42.12-.09-.08,0-.17,0-.25-.16-.05-.2.13-.34,0a.26.26,0,0,1,.26-.11h0c-.23-.27.63-.19.13-.42-.13,0,0,.07,0,.12a.67.67,0,0,1-.57-.21c.18,0,0-.09.09-.16.3-.06.09.18.29.22l0-.21,0,.05-.29-.23c.1.16-.37.08-.4,0a.37.37,0,0,1,.45-.3c-.33,0-.32-.21-.39-.35-.12.15-.29,0-.4,0l.33-.23c.1.24.3,0,.53,0s.17.21.12.33c.61-.24-.34-.34,0-.55.15,0,.33,0,.3.11s-.3-.2-.12-.34c-.11,0-.42.12-.55,0l.38-.18c.08-.22-.4-.08-.58-.26l-.26.12c-.34,0,0-.25-.37-.25,0,.11.27.17.17.29-.36,0-.19-.15-.38-.22.15-.24.16-.19.45-.38.55,0,.69.31,1.41.27-.1-.24-.28-.59-.06-.74-.17-.22-.61-.2-.93-.17-.06-.09,0-.13.07-.19l.18.1c-.18-.26-.37-.41-.36-.69s-.42-.09-.69,0l-.06-.17-.07,0c-.35,0-.23-.19-.22-.3s.19.07.28.06.1-.25-.06-.33c.16,0,.5.07.39.19l-.13,0,.21.2c-.19-.23.2-.37.56-.37-.19-.23-.37.19-.52-.08.72-.37-.2-.7.83-.9-.21-.17-.57-.37-.59-.63-.31,0-.12-.18-.5-.15-.41.25.59.47,0,.67.14.11.41.08.57.13s0,.19-.2.2c-.19-.23-.75-.06-.76-.35-.26,0-.16.27-.24.38a.61.61,0,0,0-.42.07c-.25-.08-.47-.25-.68-.33.14,0,.23,0,.31,0l-.44-.31a.81.81,0,0,1,.58-.07c.09-.17-.32-.46.14-.46-.07-.22-.27.07-.4.09l0,0,0,.23c-.53,0,.13-.26-.38-.3-1,0,.31-.33.15-.49l.7.19-.15-.17c.27.1.73.1,1,.24,0-.22.24-.54.1-.69a2.1,2.1,0,0,1,.7-.06c-.44-.22.23-.35.24-.54-.26-.21-.35.2-.7,0,.18-.06,0-.17,0-.23.13.06-.11.28-.23.44,0-.12-.33-.11-.47-.14l-.08.19c-.42,0,0-.23-.25-.32.38.06.4,0,.78.08a.32.32,0,0,1,.08-.54c.15-.09.19.06.3.11.26,0-.16-.16.16-.2s0,.1.1.16l.11-.48c.16,0,.21.12.15.2.17-.15.09-.25-.43-.42.15-.17.38-.36.6-.3-.09-.07-.23,0-.39,0,.08-.22-.46-.25-.47-.38l-.29.1c.3-.21-.47,0-.25-.24a5.15,5.15,0,0,0,1,0c-.29,0,0-.15,0-.23-.3,0-.28-.18-.57,0-.24-.19.16-.27-.22-.41-.09.08-.31-.17-.52-.09,0-.18.33-.31.65-.26,0,.06-.15.17.1.16l-.06-.33A.89.89,0,0,1,80,6.34c-.39-.1.28-.31-.19-.39.3.11-.1.2-.15.24l-.06-.05s0,0,0,0L78.94,6c-.23.14.4,0,.38.22-.55.17-.84-.38-1.18-.2-.18.14.35.12.56.24v0l.24.27a.7.7,0,0,1-.35-.06c0,.32-.29.37-.36.72.07,0,.65-.09.74.07s-.2.12-.23.22c-.07-.06-.4-.11-.18-.18h-.41c-.48-.26-.87-.12-1-.48a.36.36,0,0,1-.36-.47l-.27.09c-.51-.2.42,0,0-.29A3.5,3.5,0,0,1,78.1,6c.13-.18-.15-.25-.15-.41.44-.1.47.05.91,0a.38.38,0,0,0-.49-.18l.18-.23a.08.08,0,0,1,.08.11c.1-.09-.12-.26-.28-.31,0,0,.09.08,0,.1a1.58,1.58,0,0,0-.45-.28c.23.14-.27.16,0,.3-.11,0-.35,0-.29-.11-.26.12-.22.24-.51.29.22-.1-.1-.17-.15-.19s0,.27.12.33c-.49,0,.09.35-.42.23.18,0,.19.16.07.22s-.33-.18-.58-.25c-.24-.35.36,0,.52-.08l0-.27c-.07,0-.34-.1-.32.07-.31-.08-.52-.25-.28-.39-.15,0-.12.07-.13.1s-.67-.2-.75,0c0-.06.24.11.4,0,.06.09-.15.33-.42.24.08.1.28.3.34.39-.22,0-.09-.07-.2-.12l.13.31.25-.09c-.18.23.42.37.6.56-.4,0-.43-.18-.63-.3-.48.12.24.08.17.27a.62.62,0,0,1-.28,0l.34.15s-.13,0-.15,0c.43.26.56,0,.74.34.2-.2-.28-.17-.24-.35.28-.1.51.2.67.25-.09.17-.68.19-.36.41-.19-.15-.37,0-.38-.22-.21-.12-.18.06-.41.08.08.06.42,0,.36.12H76l.43.25c-.21.24.47.54,0,.71l.42,0A1.3,1.3,0,0,0,77,8.5c-.24,0-.26-.12-.35-.23-.07.27.18.51.52.69a2.15,2.15,0,0,0,.47-.28c.58.18-.36.21-.07.44a3.05,3.05,0,0,0-.74,0c.28.09.22.25.46.35-.4.06-.73,0-.76-.27.34-.18-.27-.37.07-.52l-.25.09c-.12-.18,0-.28-.24-.43h.06l-.41-.07v.08a1.76,1.76,0,0,1-.6-.28c.06.25.7.27,1.06.39,0,.23-.74.32-.39.47-.2,0-.4.14-.57,0s.14-.22-.14-.23c0,.13-.15.08-.1.28a3,3,0,0,1,1,.33.31.31,0,0,1,.08.47c0-.15-.38-.3-.65-.26.37.08-.29.29.22.25,0,.17,0,.47-.46.49-.16-.17.1-.33,0-.47,0,0-.12.08-.23,0l0-.2c-.21.15-.36.12-.31.32a.34.34,0,0,1,.13,0s0,.12,0,.17h-.4c.19.16-.32.45,0,.72l-.09,0c-.08.22.72.23.81.47a1.23,1.23,0,0,0-.54,0c.2.12-.13.18-.24.3.24-.14.43.09.56,0,.4,0,.4.24.36.37-.53.07-.29-.39-.82-.2,0,.12.25.15.34.07a.72.72,0,0,1-.44.51c.39.18.18.26.69.38,0-.1-.39-.11-.19-.23l.38.13c0,.19-.31.33-.35.46l-.17-.13h.06c-.17,0-.07-.22-.36-.2.36.12,0,.21.27.37h-.06c.29.27-.59.47.15.65,0,0,.27-.15.42-.12-.18.06-.12.23-.34.23l-.07-.06c-.06.16-.09.25,0,.31.26,0,.46,0,.61.11-.17.28-.61-.11-.83.08l.27.25-.24.06c-.23.38.55.68.55,1.09a.59.59,0,0,1-.59-.39c-.36.12.13.31-.12.48-.06.15.3.27.52.25.14.19-.24.14-.31.16.44.06.29.31.38.47H74.8l.3.25c0-.07.25,0,.41,0l0,.06c.68-.24-.47-.54.3-.78.09.07.22,0,.32.05s-.06.07-.16.08c.21,0,.39.14.37,0,.52,0,.4.27.57.45-.33.14-.5-.15-.74-.23,0,.07.26.13.13.23l-.39,0c.21.25.34.07.72.13s0,.23,0,.29l-.09-.07c-.17.19.25.24.21.41l-.31.09c.39-.23-.54-.27-.34-.4-.37.32-.81-.07-1.14-.17.07.14,0,.26-.19.34.51.2-.19.42.42.62-.07.1-.28-.1-.29,0a.71.71,0,0,0,.25.64c0,.12-.19.1-.35.13-.24.55.7.76.48,1.36L75,20.06c-.05.12-.12.23.17.29-.68.16.41.54-.31.74-.13.26.45.28.56.48-.15,0-.44-.06-.51.05a11.06,11.06,0,0,1,.41,2,.2.2,0,0,1-.13-.06c-.06.49.59,1,.38,1.37.1.07.23.3.5.23,0-.1.38-.11.59-.1.3.35-.49.17-.4.41-.52.08-.34-.15-.81-.15l.34.35c-.17.19.13.39-.12.56.06-.08-.39,0-.19-.15,0,0,.06,0,.08,0,.05-.29-.25-.16-.37-.41.13.22.27.53.16.73.35,0,.15.16.38.22h0a.48.48,0,0,1,.31.17l-.45,0c.06.09.23,0,.29.06a.38.38,0,0,1-.32.6c0,.16.3.2.24.36-.12,0-.17-.05-.23-.06-.09.33.06.74-.21,1.06a1.14,1.14,0,0,0,.5.64c0-.07.07-.27.33-.15s.12.18.2.28c-.23,0-.22.28-.39.06-.51.06.11.46-.41.46.16.05.07.35.34.47-.22,0-.15-.17-.31-.17l.08.14h-.16c-.13.27.5.31.6.47h-.06l.08.1-.42-.12c.06.17.43.25.52.44l-.13,0,.14.12a.17.17,0,0,0-.12,0c.39.11.24.35.57.45-.06.08-.55.14-.21.24H76c-.06-.26.34-.1.17-.36-.63.19-.56.74-.51,1.1.32.3-.2.78.52.91l-.29,0-.25.49c.12.43-.11.86.3,1.18l-.25.09c.83.33.35,1.13,1.34,1.35-.22.19-.38-.06-.55-.08-.09.14.57.37.12.51-.16,0-.15-.2-.24-.11-.29.1.28.14,0,.26A.72.72,0,0,1,77,38a.12.12,0,0,1,0,0c.23,0,.18.11.21.17a.17.17,0,0,1-.08,0,4.08,4.08,0,0,1,.28,2.79l-.21-.17c.16.13,0,.37,0,.44l0,0c-.46.25.45.28-.08.47l0,0c0,.3-.48.47-.22.76-.18.23-.41.2-.63.36,0,.13.3.19.36.2l0-.06c.27-.07.23.14.35.23a4.24,4.24,0,0,0,1.53-.3c-.15-.19.68-.19.61-.41-.57-.12.43-.31-.08-.51.39.11.21-.24.64-.06.31-.09-.34-.43,0-.59.09,0,.18,0,.23.06-.23-.22.27-.15.27-.32h-.4c-.13-.06.15-.08.08-.14a.47.47,0,0,1-.4.09c-.1-.08-.23-.14-.23-.22a.41.41,0,0,1,.27.09.26.26,0,0,1,.23-.19c.13.07.13.15.36.21.11-.24.13,0,.44-.14-.47,0-.2-.2-.3-.32.19,0,.06.08.2.12.83-.24-.14-.36,0-.67a.26.26,0,0,1,.13.06c-.13-.14.31-.24,0-.34.08-.14.53,0,.52-.24-.49.07.09-.25-.43-.25l.31-.17c-.29-.14-.88,0-.93-.24.19-.26.86,0,1.13-.13L81,38.4l.21-.13,0,0c-.09-.07,0-.21.14-.21s.12.09.24.1c-.26-.12.71-.49-.07-.62.13-.08.13-.23.38-.21-.35-.07.11-.34-.11-.44.12,0,.31-.08.21-.15-.13.1-.26,0-.45,0,.25-.09,0-.34.45-.38a1.94,1.94,0,0,0-.82-.12c.25-.09.2-.37.68-.32-.06.07-.16.24.16.21s-.13-.06-.18-.18a3.92,3.92,0,0,1,.44-.06.2.2,0,0,1,0-.27c-.22.16-.33-.1-.52,0l.34.15c0,.18-.26,0-.38.1-.1-.32-.58-.25-.81-.55a1.92,1.92,0,0,0,.23-.19c0,.1.46.08.54,0-.37-.17.24-.3.32-.44-.11.12-.39.06-.5,0-.26-.28.17-.11.37-.24,0-.44.52-.72.22-1.08l-.4.17.38,0a1.86,1.86,0,0,1-1.1-.1c.13,0,.06-.24.27-.15l-.17-.21c-.16,0-.09.17-.27.07.12-.07.2-.29.43-.15,0-.12-.12-.26-.35-.24,0-.18.49,0,.64.1,0-.14.36-.12.47-.08l0-.2c.1.05.26.05.36.09.15-.13-.28-.23,0-.34l-.32,0c.26-.36.31-.33.34-.67l-.24.06c-.42-.26.38-.19.21-.53a.58.58,0,0,0-.63-.3c-.15-.11.08-.14.22-.19-.21-.09-.61-.27-.37-.41a1.44,1.44,0,0,1,.28.25c.37,0,.08-.3.26-.44-.18-.1-.65-.43-1-.61a1.66,1.66,0,0,1-1.07-.11c.24,0,.24-.22.41-.34.22.06.55-.25.65,0-.12.07-.44.1-.32.2a2.24,2.24,0,0,0,.72-.37c.12,0,.27.09.27.18S81.64,29,81.54,29Z"/><path class="cls-1" d="M76.8,6.3l0,0,.09,0Z"/><path class="cls-1" d="M81.68,24.14a.24.24,0,0,0-.12,0Z"/><path class="cls-1" d="M81.43,20.71h0Z"/><path class="cls-1" d="M79.48,6.08l.08.06S79.51,6.11,79.48,6.08Z"/><path class="cls-1" d="M345.49,3h-.76A3,3,0,0,0,345.49,3Z"/><path class="cls-1" d="M346.17,3.36h0Z"/><path class="cls-1" d="M103.05,8.66a2.7,2.7,0,0,0-.66.12A1.46,1.46,0,0,0,103.05,8.66Z"/><path class="cls-1" d="M147.87,1.87a.22.22,0,0,0,0,.1C147.91,1.94,147.93,1.91,147.87,1.87Z"/><path class="cls-1" d="M336.61,3.17l.34,0C337,3.11,336.69,3.12,336.61,3.17Z"/><path class="cls-1" d="M91.47,8.29a.2.2,0,0,0-.09.09A.37.37,0,0,0,91.47,8.29Z"/><path class="cls-1" d="M309.15,1.57l-.33,0A1.15,1.15,0,0,0,309.15,1.57Z"/><path class="cls-1" d="M156.9,8.87a.68.68,0,0,0,.29-.12C157,8.78,156.88,8.81,156.9,8.87Z"/><path class="cls-1" d="M157,7.92c-2.28.27.49.55.15.83.61-.07,1.91,0,1.29-.24,1.2.58,3.62-.32,4.92.14,0-.06-.7-.25.2-.39a3.13,3.13,0,0,1,1.78.33,8.7,8.7,0,0,1,2.24-.2c.89-.14-1-.57.29-.82.84-.39,2-.06,3-.17,1.19.28-1.19.19-1.69.33l3.38-.18c1,.2-.45.38-1.44.33a6.12,6.12,0,0,0,3.47-.3c.85.07,1.29,0,2.09.13-.79.18-.74.74-2,.83-2,0,.74-.43-1-.51l-.15.33a7.34,7.34,0,0,0-2.13.09c-.44-.09.1-.12.4-.17a12.23,12.23,0,0,0-3.68.23c1.94.31,4.87-.11,5.72.27l3.86-.46c0-.16-1.34-.41-.25-.63a6.07,6.07,0,0,0,3.08.64C180,7.9,183,8,182.21,7.6a1.22,1.22,0,0,1-1.14-.17c1.44,0,.19-.4,1-.42,2.64.09-.1.27,2.49.43a18.36,18.36,0,0,1-3.37.79c.1.19,1.43,0,2,.19-.85-.22.59-.4-.11-.5,2.09-.18,4.52-.62,7.05-.71-.4.63-4.27.47-3.47,1.22,1.24-.09,1.24-.4,2.23-.36.84.38,2.93,0,4.62,0l-.75-.19a11.12,11.12,0,0,1,2.58,0l-.19.08.73-.12c.12,0,.14,0,.14.06.81-.19,2.88,0,4.43-.12,0-.31-1.53,0-2.28-.05-.2-.07-1.64-.2-.94-.41,1.93,0,3.27-.37,5.45-.36L202,6.91a10.59,10.59,0,0,1,2.68-.12c1.89.21-1.39.43-.25.6-.74.28-2,0-2.23.36l1.19.43a12.48,12.48,0,0,1,2.79.07l-.75-.19c.15-.33.84-.09,1.19,0l-.5-.48c-1.09-.09-1.84.34-2.63.06,1.93-.16,1.49-.55,3.82-.56.1.19-.45.07-.69.21.79.13,1.63-.26,2.92-.11-.74.12-1.93.31-1,.57l.7-.36c.59.05.35.2.59.21.85.07-.19-.38,1.14-.29.2.07.65.16.45.24,1.54,0,.74-.12,2.18-.3-1.29,0-1.34-.55,0-.61,1.89.06,3.17-.25,4.47.21l.84-.24c-.54.34,1.2.12,1.79.18.2.38-2.83,0-2.83.6,1.24.06.7.25.3.42,1.35-.06.5-.44,1.09-.69,0,.15,2.29,0,1.5.38,1.14,0,1.33-.37,2.18-.3-.13.15-.28.35-.2.54a5.09,5.09,0,0,1,1.39,0c-.2-.07.4-.32-.6-.21.25-.3,2.34,0,2.28-.26.11.34,2.14.07,3.18.21-.1-.81-1.93.31-2.28-.35,1.39-.28,4.67,0,6.9-.39,1.93.16,0,.31.39.61-1.78.13-2.23-.11-3.77,0a26.82,26.82,0,0,0,5.71-.2c1.84,0,2,.81,4.27.61-.29-.26-.24-.32-.94-.42a13.81,13.81,0,0,1,1.93,0c.4-.16-1-.2-.1-.34.35,0,1.09.08.95.26l-.15,0c2.13-.24,1.54.63,3.37.13-.14-.13-.54,0-1,0s.79-.48,1.64-.57c-.15.18.74,0,1.34.1.39.3-1.49.08-1.79.28l1.64,0-.35,0,1.79-.28c-1.25.09-.6-.37,0-.4,1.24,0,2.48.11,2.33.45.15-.34,1.69-.32,2.78-.4-1.19-.12-.15-.28.19-.39l1.79.33c-1.88.1.4.3,0,.53s-1.69.16-2.68.12c1.94.61,2.73-.34,4.41,0,0,.15-.14.33-.89.3a20.53,20.53,0,0,1,2.68-.13c-.3-.1-.94-.41.2-.54l1.49.38c1.74.08.59-.41,2-.58l-.94-.26c.14-.34,1.93,0,2-.37a17.64,17.64,0,0,1-2.33.16c-.35-.35,1.19-.19,1.73-.38a15.48,15.48,0,0,1,3,.45c.06.56-2.38.69-2.07,1.42A37.54,37.54,0,0,1,270,7.51c1.69-.16,1.54-.6,1.29-.92a4.85,4.85,0,0,1,1.49.07l-.79.18a50.73,50.73,0,0,1,5.46-.36c1.23-.09.73-.43.44-.69l1.34-.06L279,5.66c.3-.35,1.49-.24,2.39-.22,0,.15-.55.19-.49.28a8.12,8.12,0,0,0,2.62-.06c0,.15-.54.5-1.48.39-.1,0-.05-.09-.15-.13l-1.59.2c1.84-.19,2.93.2,2.88.57,1.84-.19-1.49-.38.69-.52,2.89.72,5.46-.2,7.06.83a30.25,30.25,0,0,1,5-.6c0-.31,1.39-.12,1.19-.5-2-.4-3.72.6-5.32,0-.89.14-.59.4-1,.57-.79,0-1.53,0-1.63-.2,1.83-.19.49-.75,2.82-.76-.3-.26-2.19-.17-3-.24.25-.14,0-.31-.55-.42.6-.25,1.93-.47,2.63-.68-.25.14.2.22,0,.31l2.43-.44c.75.19,1,.41.55.58,1.35.09,3.62-.32,3.63.14,1.73-.07-.55-.27-.7-.4l.15,0-1.84,0c-.2-.54,2.09.13,2.38-.38.29-1,2.59.31,3.88.15l-1.49.7,1.29-.15c-.74.27-.74.73-1.88,1,1.78,0,4.32.23,5.46.1.45.24.65.47.45.7,1.79-.44,2.78.23,4.32.24,1.63-.26-1.64-.36-.45-.7a4.55,4.55,0,0,0,1.84,0,18.77,18.77,0,0,1-3.43-.22c.89,0,.79-.33,1-.48l-1.49-.07c.1-.42,1.84,0,2.53-.25-.44.38-.2.39-.64.77a15.86,15.86,0,0,1,4.32.09c.65.15-.54.19-.89.29.29.26,1.29-.15,1.54.17-.2.24-.8,0-1.25.09l3.78.12c0,.16-.94.2-1.54.14a5.66,5.66,0,0,0,3.32-.42c1.29.15,2.78.37,2.34.6.6-.09.2-.24.19-.39,1.74.08,1.94-.47,3-.48l-.79-.28c1.68.29.39-.48,1.88-.25a.72.72,0,0,0,.11,1c.24-.3,1.19,0,1.83,0-.4-.29,1.39-.27.34-.57,1.5-.23,2.19.17,3.28-.21-.69-.1,1.29-.31.69-.52,1.44,0,2.44.33,2,.65-.5,0-1.29-.15-1.24.09l2.63,0c.65.15,1.49.22,1.59.56.84-.39,2.49.28,3.13-.19A3.14,3.14,0,0,1,337.47,6l.4-.07h-.21l1.14-.6c-1.09-.23-.2.39-1.74.38-1.34-.55,3-.84,1.63-1.18-1.14-.18-.94.35-1.88.55l.25,0-2.13.23c-.1-.19.54-.34.54-.34-2.58,0-3-.3-5.76-.37.2.07.75.66-.49.75-.89.14-1-.2-1.74-.24.45-.07.84-.39,1.44-.17l-.05-.41c2.08-.48,1-.88,3.82-1,.13-.3,2.18-.45,3.71-.36l-.74-.27c1.58-.51.3.42,2.33,0,.85.53,2.39,1.16,1.25,1.6a25.49,25.49,0,0,0,3.23-.16c.79.44-.4.48-.25.92.95,0,2.14-.24,1.44-.49l1.79.18c.05.09-.59.09-.85.08A6.8,6.8,0,0,0,347,4.73a2.29,2.29,0,0,1-.79,0,12,12,0,0,0,2.18-.45c-1.09.22-1.19-.27-2.33,0A.89.89,0,0,1,347,4c-.94-.26-1.89-.21-2.28-.51a2,2,0,0,0,1.47-.14,10.3,10.3,0,0,0-2.61.12c-.11-.5-2.78.09-1.85-.42a3.34,3.34,0,0,1-1.73.07c0-.22,1.43-.34,2-.58,2.78-.24-.05.36.6.52l2.12,0c-.21-.07.85-.35-.54-.32a5.49,5.49,0,0,1,3.08-.28c.25-.15-.55-.12-.79-.14.24-.14,1.58-.66-.16-.74.5,0-.84.23.05.4-.69.06-2.58-.15-1.83-.43-.85.09-2.43.29-3.13.35-.2-.23.6-.1.94-.2l-2.43.13.7.25c-1.79-.18-2.93.41-4.37.59.2-.39,1.39-.43,2.33-.63-.9-.47-.59.25-2.08.18-.2-.07-.25-.17-.16-.28l-1.18.34c-.35,0-.15-.13,0-.15-2,.42,0,.55-2.68.73,1.64.2,1.39-.27,2.78-.23.8.28-1.58.51-2,.67-1.34-.09-1.5-.69-3.18-.37,1.19-.19,0-.36,1.73-.38.95-.2-.5-.17-.69-.4-.45.07.3.42-.95.36l.05-.06-2,.43c-1.89-.22-4.26.47-5.56,0l.3.42c-1.19,0-2.87,0-3.72.13.2-.24,1-.26,1.84-.35a21.54,21.54,0,0,0-5.46.51,18.81,18.81,0,0,0,2.19.48c-1.39.58-1.65-.36-3.43-.07-.05-.41.54-.35.1-.74-.75.28-2,.22-2.83.45-.45-.39.34-.72,2.18-.76,1.39.35,2.92-.26,4.07.07l-.7-.25c1.39-.12,2.24,0,3.42-.23l0,.06.59-.41h-.64a8.91,8.91,0,0,1,2.18-.6c-2,.06-2.13.7-3.08,1.05-1.78,0-2.48-.73-3.67-.39-.1-.19-1.1-.39-.3-.57,1-.1,1.69.15,1.78-.13-1,0-.64-.15-2.23-.1a7.09,7.09,0,0,1-2.62,1,15.31,15.31,0,0,1-3.68.07c1.19,0,2.38-.38,2.08-.64-.69.37-2.33-.29-2,.22-1.39,0-3.73,0-3.88-.46,1.32-.17,2.59.1,3.7,0-.3,0-.6-.13-.42-.23l1.64.05a7.32,7.32,0,0,0-2.59-.31c.1,0,.3.11.15.13-.39,0-.89,0-1.29,0l-.05-.4c-1.19.19-3.48-.32-5.66,0l.2-.09c-1.74-.08-1.88.71-3.77.81.55-.19.3-.36.2-.55a6.3,6.3,0,0,1-2.39-.23c1.1.23-.74.42.06.56.05.4-1.89.4-2.88.35-.6-.52,3.08-.28,1.58-.82-1,0-1.24.25-.54.35a18.37,18.37,0,0,1-4-.44c-1.49.39-2.08.18-3,.69.8,0,.84-.39,1.84-.19l-1.09.38c-1.44,0-2.58-.31-3.58-.36l1.05-.16-.05.06c.39-.17,1.73-.07,1.58-.36-.94.36-1.69,0-2.93.26l.05-.06c-2.18.3-3.77-.58-5.16.16.4,0,1.2.27.95.41-.5-.17-1.84-.11-1.79-.33l.45-.07a15.13,15.13,0,0,0-2.44,0c-.34.26,0,.46-.89.6-2.18-.16.89-.6-.6-.83l-2,.28L270.92,1c-3-.24-5.36.55-8.58.55,0-.4,2.28-.57,3.07-.6-1-.35-2.43.13-3.77-.11-1.24-.06-2.18.29-2,.52-1.53.14-1.09-.24-1.28-.31-.5.44-2.44.29-3.68.38l-.05-.25-1.94.31c.5,0,.06.25.06.4l-.5,0c1.89.68,4.27-.47,6.21.3-.6.09.2.22-.4.32s-.59-.06-.64-.16c-.3.2-1.09.38-.05.37-.05.52-2.14.39-3.57.57-1.14-.33,1.19-.5,1.78-.75a5.39,5.39,0,0,1-1.79.13l.2-.39c-2,.22-.54.35-1,.73s-1.79,0-2.33,0l.59-.1c-1.53-.16-1.88.25-3.27.22l-.65-.31c1.74.39,2.13-.55,3.13-.35-2.54-.36.54-.8,1.33-1.13a7.59,7.59,0,0,1-2.68-.19c-1.59.51-3.33-.19-4.86.41-.84-.07.74-.27-.15-.28a31.74,31.74,0,0,0-5.11.25c-.9,0-.75-.19-1-.35-4.32-.24-6,.7-10.72.47l.69-.21a4.78,4.78,0,0,0-2.32.17c-1.25-.68-4.22.41-5.81-.31-2.09-.13-2.19.45-3.82.56,0-.16.49-.44-.36-.51-5.35.24-10.17.29-16.07.41a1.27,1.27,0,0,1,.49-.13c-3.82-.06-7.59.59-10.77.38-.59.09-2.38.22-1.83.5.74,0,.84.38.79.59-2.82.3-1.38-.5-3.27-.4-.6-.52,1.19-.35,1.19-.81l-2.73.33c-1.54-.16-3.08.13-4.42-.11.6.06.19-.39,1.19-.19-.15,0-.05.06-.2.08,2.28,0,1.24-.25,3.28-.37a50.19,50.19,0,0,1-5.81.16c.35.35-1.29.15-1.74.38l-.1,0c0,.16-1,.26-1.29.31L174,2c-.7.06.19.23-.5.28-1,.11-4.52.16-4.77-.31a27.71,27.71,0,0,1-2.77.23c.09-.11.39-.16.44-.22-2.63-.1-5.86.06-8.34-.21a32.59,32.59,0,0,0-5.06.5c.55,0,2.14.07,1.14.33a12.17,12.17,0,0,1-2.23.2c.2-.24-2.14-.22-.45-.39-.42-.52-3.64.1-3.61-.41-.39.16-2.79.06-3.69.34-.2-.22,1.3-.15,1.29-.31l-1.09.07V1.92c-2.09-.13-2.48.5-3.72.59l.05-.06-.84.09,1-.42c-1.34.06-2,.43-3.52.51l-.15-.13-.9.15c.15,0,.2-.09.11-.12-.85.39-2.78.24-3.58.57-.59-.06-1.09-.55-1.89-.22l.15-.48c2-.06.74.34,2.83.16-1.54-.62-5.86-.55-8.74-.5-2.33.32-6.15-.2-7.14.52l.24-.3L114.32,2c-3.32.12-6.75-.11-9.28.29l-.7-.24c-2.62.83-8.93.34-10.66,1.34-1.49-.22.44-.38.59-.56-1.09-.08-2.92.57-4,.12,0-.15,1.54-.14.85-.23-.8-.29-1.14.28-2,0,.4.3-1.44.64-2.77.7a.82.82,0,0,1,.35.05c.19.22-.8.18-1.35.21a.32.32,0,0,1,.2-.08c-6.89.38-14.79.56-22,.28l1.33-.21a18.86,18.86,0,0,1-3.47,0l.15,0c-1.94-.46-2.19.45-3.68-.08l.3,0c-2.34,0-3.72-.48-6-.22a18.4,18.4,0,0,1-2.84-.63A2.78,2.78,0,0,0,47.71,3l.5,0c.55.27-1.09.23-1.83.34.54.43.25,1.1,2.34,1.53,1.54-.14,1.49.69,3.23.62,1-.57,2.48.43,4.07-.08-.85.39,1.88.21.5.64.65.3,3.37-.34,4.62,0-.21.08-.16.18-.45.23,1.74-.23,1.19.27,2.48.27l-.05-.41c.5-.13.65.16,1.09.09-.35,0-1.09-.24-.7-.41a10.74,10.74,0,0,1,1.74-.22c0,.15-.44.22-.75.27,0,0,1.4,0,1.5.23a8.78,8.78,0,0,0-1.59.35c1.84.12.15.13,1,.45-.26-.47,1.59-.2,2.57-.31.11.19-.69.06-.94.21,1.9.83,2.83-.15,5.26,0a1.27,1.27,0,0,1-.49.13c1.14-.13,1.94.31,2.68,0,1.1.09.2.54,1.89.53-.5-.49,2,.09,2-.43l1.29.31c1.15-.29-.3-.88,1.94-.93,2,.19-.2.86,1,1.13l.5-.29,1,.2L84,7.6c.6-.1,1.69,0,1.69.14s-.74.12-.84.24c1-.26,3.92.71,5-.08.59.14,1.79.14,1.64.39.53-.35,2.64.11,3.43-.11-.1.11.64.3,1.24.21-.8-.13-.3-.26.24-.45.7.25,2.69,0,3,.45,1.09-.23.69-.52.93-.82.7.25,2.94.2,2.54.67-.6-.05-1.94-.15-1.69.17,1.15.18.5-.13,1.44-.18-.07.09.64.3.46.43a11.88,11.88,0,0,1,2.12,0c-1.23-.22.8-.34,0-.53L104,8.52c-1.44,0-.3-.26-.84-.38,2.53-.1,2-.58,4.41-.81.45.08,1.24.21,1.49.22-.8,0-.64.47-.19.55,1.33-.37,2.38.24,3.47.32-.94-.11-.45-.39-.1-.5,2.28-.26.9.17,1.89.37,3.52,0,5.76.52,8.58.22l-1.34-.4-.44.38c-1-.3.19-.86.79-1.11.15.13,1.88.06,1.19.28l1.69-.17c-.25-.17-1.34-.09-.56-.27.56.12,2.29.2,1.2.42.89,0,2-.11,1.84-.34,1.44,0-.15.49-.79.64,1.14,0,1,.36.65.46l1.58,0c-.34.1-.34.26-.69.36,1,.14,1.79-.28,2.68,0l.4-.32a44.68,44.68,0,0,0,5.26.34l-.45-.24c2-.43,1.49.38,4.22.2,1.54-.14,2.53-.25,2.33-.63a2.12,2.12,0,0,1,1.49.23A7.4,7.4,0,0,1,147.06,8c-.74.12-1.33.21-2,.27.2.38,2.38.09,3.52.26.8-.18,3.38-.64,4.82-1-.65-.31-.41-.76.88-1.07-.19.24,1.74.24,2.63.4-.44.23,2,.56.11.65-.55-.11-.8-.43-1.54-.31a13.45,13.45,0,0,0,2.88.72,2.79,2.79,0,0,1-1.39.27C157.3,8.09,157.09,8,157,7.92Z"/><path class="cls-1" d="M336.61,3.17h-.21l.25.09C336.57,3.22,336.57,3.19,336.61,3.17Z"/><path class="cls-1" d="M195.76,8.06c.1,0,.28-.07.28-.12A.67.67,0,0,0,195.76,8.06Z"/><path class="cls-1" d="M222.81,7.8s0-.06-.05-.1S222.75,7.76,222.81,7.8Z"/><path class="cls-1" d="M338.36,5.86l-.49.07A3.59,3.59,0,0,0,338.36,5.86Z"/><path class="cls-1" d="M350.21,597.28v-1.51A9.83,9.83,0,0,0,350.21,597.28Z"/><path class="cls-1" d="M349.87,598.63a.49.49,0,0,1,0,.12S349.88,598.69,349.87,598.63Z"/><path class="cls-1" d="M344.56,117.06a10,10,0,0,0-.11-1.3A5.63,5.63,0,0,0,344.56,117.06Z"/><path class="cls-1" d="M351.36,205.84s-.07-.06-.1-.06S351.31,206,351.36,205.84Z"/><path class="cls-1" d="M350.05,579.68c0,.23,0,.47,0,.69S350.1,579.85,350.05,579.68Z"/><path class="cls-1" d="M344.94,94.12a.74.74,0,0,0-.09-.18A.41.41,0,0,0,344.94,94.12Z"/><path class="cls-1" d="M351.66,525.29c0-.21,0-.43,0-.64A4.22,4.22,0,0,0,351.66,525.29Z"/><path class="cls-1" d="M344.36,223.72a2.5,2.5,0,0,0,.11.58C344.45,224,344.42,223.69,344.36,223.72Z"/><path class="cls-1" d="M345.31,224c-.28-4.52-.55,1-.84.29.08,1.21,0,3.78.25,2.56-.59,2.37.32,7.17-.15,9.73.06.11.25-1.37.4.4a11.87,11.87,0,0,1-.34,3.54,32.3,32.3,0,0,1,.21,4.42c.14,1.76.57-1.88.82.58.39,1.67.06,3.94.16,5.9-.27,2.36-.19-2.36-.32-3.34l.18,6.69c-.2,2-.38-.89-.33-2.86a23.49,23.49,0,0,0,.3,6.89c-.08,1.67,0,2.55-.13,4.13-.18-1.57-.74-1.47-.84-3.92,0-4,.43,1.46.51-2l-.33-.3a28.59,28.59,0,0,0-.08-4.22c.08-.89.12.19.17.78a47.38,47.38,0,0,0-.23-7.28c-.31,3.85.11,9.64-.27,11.32l.46,7.66c.16,0,.4-2.66.63-.5a22.2,22.2,0,0,0-.64,6.1c.43-1.09.38,4.72.72,3.24a4.45,4.45,0,0,1,.18-2.26c0,2.85.39.39.42,2-.1,5.22-.28-.19-.43,4.93a66.26,66.26,0,0,1-.8-6.68c-.18.2,0,2.84-.18,4,.22-1.68.4,1.17.49-.21.18,4.13.62,8.95.72,14-.63-.78-.48-8.45-1.22-6.87.09,2.46.4,2.45.35,4.42-.38,1.67,0,5.8,0,9.15l.19-1.49a48.53,48.53,0,0,1,0,5.12l-.09-.39.12,1.46c0,.23,0,.28-.06.28.2,1.6,0,5.7.12,8.77.31,0,0-3,.05-4.52.07-.4.2-3.24.42-1.86,0,3.82.37,6.47.35,10.8l.1-1.38a43.26,43.26,0,0,1,.12,5.31c-.21,3.74-.43-2.75-.61-.49-.27-1.46,0-4-.35-4.42l-.43,2.36a48.69,48.69,0,0,1-.07,5.52l.19-1.48c.33.29.08,1.67,0,2.36l.49-1c.08-2.15-.34-3.63-.06-5.2.16,3.83.55,3,.56,7.56-.19.21-.07-.89-.21-1.37-.13,1.58.26,3.24.1,5.79-.11-1.46-.31-3.83-.57-1.95l.37,1.37c-.06,1.18-.2.69-.21,1.18-.07,1.68.38-.39.28,2.26-.07.4-.15,1.28-.23.89a30.54,30.54,0,0,0,.29,4.31c0-2.55.56-2.64.62,0-.06,3.74.25,6.29-.21,8.85l.24,1.67c-.35-1.07-.12,2.37-.18,3.55-.38.39,0-5.6-.61-5.6-.06,2.45-.25,1.38-.41.59.06,2.66.44,1,.69,2.16-.16,0,0,4.53-.38,3,0,2.26.37,2.65.29,4.32-.15-.26-.34-.55-.54-.39a18.38,18.38,0,0,1,0,2.75c.07-.39.32.78.22-1.18.29.49,0,4.62.26,4.52-.34.2-.07,4.23-.21,6.29.8-.2-.31-3.83.35-4.52.27,2.75,0,9.24.38,13.66-.15,3.83-.31,0-.6.79-.13-3.53.1-4.42,0-7.47a104.92,104.92,0,0,0,.19,11.3c0,3.64-.8,4.05-.6,8.47a3.5,3.5,0,0,0,.42-1.88c.09,1.18,0,2.56,0,3.84.16.78.2-2,.34-.2-.05.69-.08,2.16-.26,1.87l0-.29c.24,4.22-.62,3.05-.13,6.68a18.83,18.83,0,0,0,.05-2c.2-.68.49,1.57.57,3.25-.18-.3,0,1.47-.09,2.65-.3.79-.09-2.95-.29-3.54l0,3.25,0-.69.29,3.54c-.1-2.47.37-1.19.4-.1-.06,2.45-.12,4.91-.45,4.62.33.29.32,3.34.39,5.5.12-2.36.29-.3.4.39l-.34,3.54c-.09-3.74-.29.79-.52-.09-.34-1.08-.17-3.34-.12-5.31-.61,3.84.33,5.41,0,8.75-.15,0-.33-.29-.3-1.76-.1.58.3,3,.12,5.31.11-.6.42-1.88.55.38l-.38,3c-.08,3.45.4,1.18.58,4l.26-1.86c.33.29,0,3.83.37,3.93,0-1.77-.27-2.76-.17-4.61.36-.7.19,2.35.38,3.42a53.94,53.94,0,0,1-.45,5.91c-.55.1-.69-4.72-1.41-4.11.1,3.73.27,9.14.06,11.59.17,3.35.61,3.05.93,2.55a18.88,18.88,0,0,1-.07,2.95l-.18-1.57c.18,4.13.37,6.49.36,10.82.09,2.45.42,1.46.68.87l.07,2.66.07-.41c.35.6.23,3,.22,4.72-.15,0-.19-1.07-.28-1a30.72,30.72,0,0,0,.06,5.2c-.16,0-.5-1.07-.4-2.94,0-.19.1-.1.14-.29l-.21-3.15c.19,3.64-.2,5.81-.57,5.71.19,3.64.38-3,.53,1.37-.73,5.71.2,10.82-.83,14,.21,2.65.57,5.8.59,9.93.31,0,.12,2.75.5,2.35.4-3.94-.59-7.36,0-10.52-.15-1.77-.41-1.17-.57-2a10.57,10.57,0,0,1,.2-3.25c.19,3.64.74,1,.76,5.59.26-.58.16-4.32.23-6,.15.49.31,0,.43-1.09.25,1.18.46,3.83.68,5.2-.14-.48-.23.41-.31,0l.44,4.81c-.19,1.48-.42,1.88-.58,1.09-.1,2.66.32,7.17-.14,7.18.07,3.44.27-1.09.4-1.38l0,.29,0-3.63c.53-.4-.13,4.13.38,4.71,1,.57-.31,5.12-.16,7.67l-.7-2.94.16,2.56c-.27-1.48-.74-1.47-1-3.73,0,3.54-.24,8.56-.11,10.82-.23.89-.46,1.28-.7.89.44,3.54-.22,5.51-.23,8.56.26,3.23.35-3.25.7-.9a17.65,17.65,0,0,0,0,3.64c-.13-1,.11-4.43.23-6.79a3,3,0,0,0,.47,2.07l.07-3c.43.2,0,3.64.25,5-.38-.87-.39-.39-.77-1.27a60.52,60.52,0,0,1-.08,8.56c-.15,1.28-.19-1.08-.3-1.77-.26.59.16,2.56-.16,3.05a10.42,10.42,0,0,1-.1-2.46l-.12,7.48a10.81,10.81,0,0,1-.14-3,21.63,21.63,0,0,0,.43,6.58c-.15,2.55-.38,5.5-.6,4.63.09,1.17.23.39.39.38-.08,3.45.46,3.83.47,5.89l.29-1.56c-.3,3.33.47.77.25,3.72-.3-.48-.64-.29-1,.21.29.49,0,2.36,0,3.64.3-.8.28,2.74.57.68.24,2.95-.16,4.32.22,6.49.09-1.38.31,2.55.52,1.36,0,2.86-.33,4.83-.65,4,0-1,.15-2.57-.1-2.46l.06,5.21c-.15,1.28-.22,3-.57,3.15.4,1.67-.27,4.92.19,6.19a12.26,12.26,0,0,1,.16-3.83l.06.81c0-.12,0-.25,0-.42l.59,2.25c.24-2.16-.39-.38-.37-3.44.55-2.65.84,6,1.18,3.24.18-2.26-.36-1.87-.56-3.73v.49l-.24-4.23c.19-.19.35,1.08.35,1.08,0-5.11.29-5.9.36-11.41-.07.4-.65,1.48-.74-1-.15-1.76.2-2,.23-3.43a9.05,9.05,0,0,1,.18,2.84l.4-.09c.49,4.12.88,2,1,7.56.29.25.45,4.31.36,7.36l.27-1.48c.51,3.14-.42.6,0,4.62-.54,1.68-1.16,4.74-1.6,2.48-.13,2.85.15,3.83.15,6.39-.44,1.58-.47-.78-.91-.49.05,1.88.24,4.23.48,2.85l-.17,3.55a6.25,6.25,0,0,1-.09-1.68,26.2,26.2,0,0,0,.29,4.82,8.14,8.14,0,0,1,0-1.57,41.72,41.72,0,0,0,.45,4.31c-.23-2.15.27-2.35,0-4.61a2.8,2.8,0,0,1,.29,1.76,44,44,0,0,1,.51-4.52,7.81,7.81,0,0,0,.15,2.92,42.24,42.24,0,0,0-.12-5.18c.49-.21-.09-5.51.42-3.65a12.24,12.24,0,0,1-.07-3.45c.21.1.33,2.85.58,4,.24,5.51-.37-.1-.52,1.19l0,4.2c.07-.42.34,1.68.32-1.06a21.24,21.24,0,0,1,.28,6.09c.15.5.12-1.08.13-1.57.14.49.67,3.14.75-.3,0,1-.24-1.67-.4.1-.06-1.38.15-5.12.42-3.64-.08-1.67-.28-4.82-.34-6.19.22-.4.09,1.17.2,1.87l-.13-4.83-.25,1.38c.18-3.53-.42-5.79-.6-8.64.4.39.43,2.75.63,4.62.48-1.79-.24-1.18-.17-4.13.07-.4.16-.5.28-.31l-.34-2.35c0-.68.13-.3.15,0-.43-4-.56.1-.74-5.31-.2,3.26.28,2.77.24,5.51-.28,1.58-.51-3.13-.67-3.93.09-2.65.68-3,.36-6.29.19,2.35.37.1.38,3.44.2,1.86.18-1,.41-1.38-.08-.88-.42.59-.36-1.87l.06.1-.43-4c.21-3.75-.48-8.45,0-11l-.42.6c0-2.36-.05-5.7-.13-7.37a14.83,14.83,0,0,1,.34,3.63,81.62,81.62,0,0,0-.51-10.81c-.29,2.07-.27,2.37-.47,4.33-.58-2.74.36-3.25.07-6.79.4-.1.34,1.08.74.2-.28-1.47-.22-3.94-.46-5.61.39-.89.73.68.76,4.32-.34,2.76.26,5.8-.07,8.07l.25-1.38c.12,2.75,0,4.42.24,6.78l-.06-.1.4,1.18v-1.28a30.94,30.94,0,0,1,.61,4.32c-.06-3.94-.7-4.22-1.06-6.09,0-3.54.74-4.93.39-7.28.19-.19.4-2.17.57-.59.11,2-.14,3.34.13,3.53,0-2.06.16-1.27.11-4.42a23.29,23.29,0,0,1-1-5.19,62,62,0,0,1-.07-7.29c0,2.36.38,4.72.64,4.12-.36-1.37.3-4.62-.21-3.92,0-2.75,0-7.38.46-7.68.16,2.6-.1,5.12,0,7.33,0-.61.12-1.2.23-.84l-.05,3.24a29.75,29.75,0,0,0,.31-5.11c0,.2-.11.59-.13.29,0-.78,0-1.77,0-2.56l.41-.09c-.19-2.36.32-6.89,0-11.21l.08.39c.09-3.44-.71-3.73-.8-7.47.19,1.08.35.59.54.39a24.15,24.15,0,0,1,.24-4.72c-.24,2.17-.43-1.47-.56.11-.4.1-.4-3.74-.36-5.71.53-1.17.29,6.1.82,3.14.05-2-.25-2.46-.34-1.07a71.46,71.46,0,0,1,.44-8c-.4-2.94-.18-4.12-.69-6,0,1.57.39,1.66.19,3.64l-.38-2.17c0-2.85.31-5.11.35-7.08l.17,2.07-.06-.1c.17.78.07,3.44.35,3.14-.35-1.86,0-3.35-.26-5.8l.06.1c-.29-4.32.58-7.48-.15-10.22,0,.78-.27,2.36-.42,1.87.18-1,.12-3.64.33-3.55l.08.89c.05-2.46.09-3.94,0-4.83-.26-.68-.46,0-.61-1.75.17-4.33.61,1.75.83-1.19l-.27-4,.24-.89c.23-6-.55-10.61-.55-17,.4-.1.57,4.52.59,6.09.36-2-.13-4.82.12-7.47.06-2.47-.3-4.32-.52-3.93-.15-3,.23-2.17.3-2.56-.43-1-.28-4.82-.37-7.27l.24-.11-.3-3.83c0,1-.25.1-.41.1l0-1c-.68,3.75.47,8.45-.3,12.29-.1-1.17-.23.41-.32-.78,0-1,.06-1.17.15-1.28-.2-.59-.38-2.16-.36-.09-.53-.1-.4-4.23-.57-7.07.33-2.27.5,2.35.74,3.53a23.3,23.3,0,0,1-.13-3.54l.39.39c-.21-3.93-.34-1.08-.72-2-.5-1.07,0-3.54,0-4.62l.09,1.18c.17-3.05-.25-3.74-.21-6.48l.31-1.29c-.39,3.45.54,4.22.34,6.19.37-5,.81,1.08,1.14,2.64a29.27,29.27,0,0,1,.19-5.3c-.51-3.15.19-6.6-.42-9.64.07-1.67.28,1.47.29-.3,0-3.24,0-6.68-.25-10.12,0-1.78.19-1.47.35-2,.24-8.56-.7-11.89-.48-21.24l.22,1.38a19,19,0,0,0-.17-4.61c.68-2.47-.42-8.36.31-11.51.13-4.13-.45-4.33-.56-7.57.15,0,.44,1,.51-.7-.24-10.61-.29-20.15-.41-31.85a5,5,0,0,1,.13,1c.06-7.57-.59-15-.38-21.32-.1-1.19-.23-4.72-.5-3.64,0,1.47-.38,1.68-.59,1.58-.3-5.6.49-2.75.4-6.49.52-1.19.34,2.35.81,2.35l-.34-5.4c.17-3.05-.13-6.1.12-8.75-.06,1.18.39.38.19,2.35,0-.3-.06-.1-.08-.39-.05,4.52.25,2.46.37,6.49-.14-3.54-.27-8.36-.16-11.51-.36.7-.15-2.55-.38-3.43l0-.2a12,12,0,0,1-.3-2.56l.45-.78c-.06-1.38-.23.39-.29-1-.1-1.95-.15-8.94.32-9.44,0-2.36-.3-3-.24-5.5a9,9,0,0,1,.23.88c.09-5.21-.06-11.6.21-16.53-.12-4-.19-7.46-.5-10,0,1.08-.07,4.23-.33,2.26-.19-1.08-.12-2.75-.2-4.42.23.39.22-4.23.39-.89.51-.84-.11-7.21.41-7.15-.16-.78-.07-5.53-.35-7.31.23-.39.16,2.57.31,2.56l-.07-2.16h.16c.13-4.14-.5-4.91-.6-7.37l.06.1-.08-1.67.41,2c-.06-2.65-.42-4-.51-7l.13-.29-.14-1.78c0,.3.08.4.12.21-.39-1.68-.24-5.51-.57-7.08.06-1.18.54-2.17.21-3.74l.49.29c.06,3.93-.35,1.47-.17,5.61.63-3.06.56-11.61.51-17.31-.32-4.62.2-12.2-.52-14.16l.29.49.25-7.76c-.12-6.59.1-13.38-.3-18.39l.25-1.38c-.83-5.2-.35-17.7-1.34-21.12.22-3,.38.88.55,1.17.09-2.17-.57-5.8-.12-7.86.16,0,.15,3,.24,1.67.29-1.58-.28-2.26,0-4-.3.78-.64-2.85-.7-5.5a5,5,0,0,1-.05.7c-.23.38-.18-1.59-.22-2.67a1.06,1.06,0,0,1,.09.39c-.38-13.65-.56-29.28-.28-43.64l.21,2.64c-.16-2.06-.05-5.7,0-6.88l0,.3c.47-3.83-.45-4.32.09-7.28l.05.59c0-4.62.48-7.37.22-11.89.18-3.55.41-3.16.63-5.62a9.76,9.76,0,0,0-.36-3.14l0,1c-.28,1.08-.23-2.16-.35-3.64-.42,1.09-1.09.5-1.53,4.64.14,3.05-.69,3-.61,6.4.57,2-.43,4.92.08,8.06-.39-1.67-.21,3.73-.64,1-.31,1.28.33,6.68,0,9.15a3.32,3.32,0,0,1-.23-.89c.23,3.44-.27,2.36-.27,4.91L347,38c.13,1-.15,1.28-.08,2.16.05-.7.24-2.16.4-1.39.1,1.18.23,2.17.23,3.44-.16,0-.23-.87-.27-1.47a16.7,16.7,0,0,1-.23,2.95,29.57,29.57,0,0,0-.36-3.13c-.11,3.63-.13.29-.45,2.06.48-.49.21,3.15.31,5.11-.19.2-.06-1.38-.2-1.86-.83,3.74.14,5.6,0,10.42a5,5,0,0,1-.13-1c.13,2.27-.31,3.85,0,5.32-.08,2.17-.53.39-.52,3.74.49-1-.09,3.93.43,4l-.31,2.57c.28,2.26.88-.61.93,3.82-.19,4-.86-.38-1.13,2l.28,1-.2,2,0-.3a12.17,12.17,0,0,1-.14,3.35c-.12-.2-.12-1.48-.24-1.67.26,2-.71,7.77.07,9.83-.14,1.16-.13,3.55-.38,3.24.34,1-.11,5.24.11,6.8-.12-.21-.31,1.27-.21,2.45.13-1.58.26-.59.45.48-.25,1.39,0,5.32-.45,5.91.22,2.17.52,1.38.82,1.85-.25,1.39-.2,5.82-.68,5,.06-1.19.16-3.85-.16-3.35-.18,2.26.13,1,.17,2.85-.08-.14-.29,1.26-.43.91.06,1.1.05,2.64,0,4.21.22-2.46.33,1.56.52.09l-.34-2.35c0-2.86.26-.6.38-1.68.09,5,.58,4,.81,8.74-.09.88-.22,2.46-.23,3,0-1.57-.46-1.27-.54-.38.37,2.64-.24,4.72-.32,6.88.1-1.87.39-.88.5-.2.26,4.52-.17,1.77-.37,3.74.05,7-.52,11.41-.22,17l.4-2.66-.38-.88c.3-2.07.85.38,1.1,1.56-.13.3-.06,3.74-.27,2.37l.17,3.34c.16-.5.09-2.66.27-1.1-.12,1.1-.2,4.53-.43,2.38,0,1.76.12,4,.35,3.63,0,2.85-.49-.29-.64-1.56,0,2.25-.36,2-.47,1.28l.05,3.14c-.1-.68-.26-.68-.37-1.37-.14,2.07.29,3.54,0,5.31l.32.78c-.26,5.71-.31,5.12-.34,10.43l.23-.88c.43,4-.38,2.94-.2,8.35.15,3.05.25,5,.63,4.62a7.68,7.68,0,0,1-.22,2.95,28.86,28.86,0,0,1,.37,6.48c-.12-1.47-.22-2.65-.28-4-.38.41-.08,4.72-.26,7,.18,1.58.65,6.69,1,9.53.31-1.28.76-.79,1.07,1.76-.24-.39-.24,3.45-.41,5.21-.22-.87-.55,3.94-.65.21a11.19,11.19,0,0,0,.32-3.05,46.86,46.86,0,0,0-.72,5.71,10.36,10.36,0,0,1-.27-2.75C345.14,224.51,345.21,224.1,345.31,224Z"/><path class="cls-1" d="M350.05,579.68c0-.14,0-.27,0-.4l-.09.49C350,579.61,350,579.61,350.05,579.68Z"/><path class="cls-1" d="M345.17,300.7a1.62,1.62,0,0,0,.11.56A2.17,2.17,0,0,0,345.17,300.7Z"/><path class="cls-1" d="M345.42,354.27a.73.73,0,0,1,.1-.09S345.47,354.15,345.42,354.27Z"/><path class="cls-1" d="M347.37,583.15l-.08-1C347.29,582.54,347.33,582.7,347.37,583.15Z"/><path class="cls-1" d="M422.31,601.3h-.37S422.07,601.34,422.31,601.3Z"/><path class="cls-1" d="M422.64,601.64h0Z"/><path class="cls-1" d="M326.5,600.15a.38.38,0,0,0,0,.1A.07.07,0,0,0,326.5,600.15Z"/><path class="cls-1" d="M418,601.45l.17,0C418.2,601.39,418,601.4,418,601.45Z"/><path class="cls-1" d="M404.69,599.85a.9.9,0,0,1-.16,0A.22.22,0,0,0,404.69,599.85Z"/><path class="cls-1" d="M331,606.2c-1.11.27.23.54.07.83.3-.07.92,0,.63-.24.58.58,1.75-.32,2.38.14,0-.06-.34-.25.1-.39.64-.06.6.21.86.33.19-.16,1.18-.28,1.08-.2.44-.14-.46-.57.15-.82.41-.39,1-.06,1.44-.17.58.28-.58.19-.82.32l1.64-.17c.48.2-.22.38-.7.33a1.63,1.63,0,0,0,1.69-.3,5.7,5.7,0,0,1,1,.13c-.39.18-.36.74-1,.83-1,0,.35-.43-.49-.51l-.07.33c-.36-.19-.64.06-1,.09-.22-.09.05-.12.19-.17-.7,0-1.25-.15-1.78.23.94.3,2.36-.11,2.77.27l1.87-.47c0-.15-.65-.4-.12-.62.22.39.77.57,1.5.64-.27-.43,1.15-.39.79-.73-.34.22-.51-.14-.56-.18.7,0,.1-.39.48-.41,1.28.09,0,.27,1.21.42a5.52,5.52,0,0,1-1.64.8c.05.19.7,0,1,.19-.41-.23.29-.4-.05-.5a30.58,30.58,0,0,1,3.42-.71c-.19.63-2.07.47-1.68,1.22.6-.1.59-.4,1.08-.36.41.38,1.42,0,2.24,0l-.37-.19a2.68,2.68,0,0,1,1.26,0l-.1.08.36-.12s.07,0,.07.06a15.09,15.09,0,0,1,2.14-.12c0-.31-.74,0-1.1-.05-.1-.07-.8-.2-.46-.41.94,0,1.59-.37,2.64-.36l-.33-.09c.33-.22.79-.11,1.3-.12.91.21-.68.42-.12.6-.36.28-1,0-1.08.36l.57.43c.48-.27,1,.13,1.35.07l-.36-.19c.07-.34.41-.09.58,0l-.25-.49c-.52-.08-.88.35-1.27.07.94-.16.72-.55,1.85-.56.05.19-.22.07-.33.21.38.13.79-.26,1.41-.11-.35.12-.93.31-.47.57l.33-.37c.29.06.17.21.29.22.41.07-.09-.38.55-.29.1.07.32.16.22.24.75,0,.36-.12,1.06-.3-.63,0-.65-.55,0-.62.91.06,1.54-.24,2.16.22l.41-.24c-.26.34.58.12.87.18.1.38-1.37,0-1.37.6.6.06.34.25.14.42.66-.06.24-.44.53-.69,0,.15,1.11,0,.73.38.55,0,.65-.37,1-.3a1,1,0,0,0-.09.54c.05-.13.57,0,.67,0-.09-.07.19-.32-.29-.21.12-.3,1.13,0,1.11-.26.05.34,1,.07,1.54.21,0-.81-.94.31-1.11-.36.67-.27,2.26,0,3.35-.38.93.16,0,.31.19.61-.87.13-1.08-.11-1.83,0a6.41,6.41,0,0,0,2.77-.2c.89,0,1,.81,2.07.61-.14-.26-.12-.32-.46-.42a3.29,3.29,0,0,1,.94,0c.19-.17-.48-.2-.05-.34.17,0,.53.08.46.26l-.07,0c1-.24.74.63,1.63.13-.07-.13-.26,0-.48-.05s.38-.48.8-.57c-.08.18.36,0,.64.1.2.29-.72.08-.86.28l.79,0-.16,0,.86-.28c-.6.09-.29-.37,0-.41.6.06,1.2.12,1.13.45.07-.33.81-.32,1.34-.39-.57-.12-.07-.28.1-.39l.86.33c-.91.1.2.3,0,.52s-.82.17-1.3.12c.94.62,1.33-.33,2.15,0,0,.15-.08.33-.44.29.15.11.75-.29,1.3-.12-.14-.1-.46-.41.1-.54l.72.38c.84.08.29-.41,1-.58l-.45-.27c.07-.33.94,0,1-.36-.43,0-.68.27-1.13.16-.17-.35.58-.19.84-.38a4.07,4.07,0,0,1,1.44.45c0,.56-1.15.69-1,1.42a8.89,8.89,0,0,1,2.84-.07c.81-.16.74-.6.62-.92a1.17,1.17,0,0,1,.72.07l-.38.18a12.26,12.26,0,0,1,2.65-.36c.59-.1.35-.43.21-.69l.65-.06-.1-.07c.15-.36.72-.24,1.16-.23,0,.16-.27.19-.24.29a2,2,0,0,0,1.27-.06.56.56,0,0,1-.72.39c-.05,0,0-.09-.07-.13l-.77.2c.89-.19,1.42.2,1.4.57.89-.19-.73-.38.33-.52,1.4.72,2.65-.2,3.42.83a7.7,7.7,0,0,1,2.43-.6c0-.31.67-.12.58-.5-1-.4-1.81.6-2.58,0-.43.14-.29.4-.48.57-.38,0-.74,0-.79-.2.89-.19.24-.75,1.37-.76-.15-.26-1.06-.17-1.47-.24.12-.14,0-.31-.27-.43.29-.24.94-.46,1.27-.67-.11.14.1.22,0,.31l1.17-.44c.37.19.46.41.27.58.65.09,1.76-.32,1.76.14.84-.07-.27-.27-.34-.41l.07,0-.89,0c-.1-.54,1,.13,1.16-.38.14-1,1.25.3,1.87.15l-.72.7.63-.15c-.36.27-.36.73-.91,1a16.82,16.82,0,0,0,2.65.1c.21.24.31.47.21.7.87-.44,1.35.23,2.1.24.79-.26-.8-.36-.22-.7.24.18.67,0,.89,0a4.51,4.51,0,0,1-1.66-.22c.43,0,.38-.33.5-.48l-.72-.07c.05-.43.89,0,1.22-.25-.21.38-.09.39-.3.77a3.87,3.87,0,0,1,2.09.08c.31.16-.26.19-.43.3.14.26.62-.15.74.17-.09.24-.38,0-.6.09l1.83.12c0,.15-.46.2-.74.14a1.51,1.51,0,0,0,1.61-.43c.62.16,1.34.38,1.13.61.29-.1.1-.24.09-.39.85.08.94-.47,1.45-.48l-.39-.28c.82.29.19-.48.91-.25a1.34,1.34,0,0,0,.06,1c.11-.3.57,0,.89,0-.2-.29.67-.27.16-.57.73-.24,1.06.17,1.59-.21-.34-.1.62-.31.33-.52.7,0,1.19.33,1,.65-.25,0-.63-.16-.61.09l1.28-.06c.31.16.72.23.77.57.41-.39,1.2.28,1.52-.19-.44.3-.78-.1-.94-.15l.2-.07a.26.26,0,0,1-.11,0l.55-.59c-.53-.24-.09.39-.84.38-.65-.56,1.47-.84.79-1.19-.55-.17-.45.36-.91.56h.12l-1,.24c-.05-.19.26-.34.26-.34-1.25,0-1.44-.3-2.79-.37.1.07.36.65-.24.75-.43.14-.48-.2-.84-.24.21-.07.41-.39.69-.18l0-.4c1-.49.48-.88,1.85-1,.06-.3,1.06-.45,1.8-.36l-.36-.27c.77-.51.15.42,1.13,0,.41.53,1.16,1.16.61,1.6.7.13.94-.16,1.56-.16.39.44-.19.48-.12.92.46,0,1-.24.7-.49l.87.18c0,.09-.29.09-.41.08a1.75,1.75,0,0,0,1.18-.28c-.07,0-.29.09-.39,0a3.55,3.55,0,0,0,1.06-.45c-.53.22-.58-.28-1.13,0,0-.12.14-.36.43-.3-.46-.26-.91-.21-1.11-.51a.58.58,0,0,0,.72-.14,2.39,2.39,0,0,0-1.27.12c-.05-.5-1.35.08-.89-.43-.07.18-.58.19-.85.08,0-.22.7-.34,1-.59,1.35-.23,0,.37.29.53l1,0c-.1-.07.41-.35-.26-.32a1.45,1.45,0,0,1,1.49-.29c.12-.14-.26-.11-.38-.13.12-.14.76-.66-.08-.74.24,0-.41.23,0,.4-.34.06-1.26-.15-.89-.43-.41.09-1.18.29-1.52.35-.1-.23.29-.1.46-.2l-1.18.13.33.25c-.86-.18-1.41.41-2.11.59.1-.39.67-.43,1.13-.63-.44-.47-.29.25-1,.18a.23.23,0,0,1-.08-.29l-.57.35c-.17,0-.07-.13,0-.15-1,.42,0,.55-1.3.73.8.2.68-.27,1.35-.24.39.29-.77.51-1,.68-.65-.09-.73-.69-1.54-.37.57-.19,0-.36.84-.38.45-.2-.24-.17-.34-.4-.22.07.14.42-.46.36l0-.06-1,.42c-.91-.21-2.07.48-2.69,0l.14.41a17.39,17.39,0,0,0-1.8.14c.09-.24.48-.26.89-.35a5.37,5.37,0,0,0-2.65.51,5.74,5.74,0,0,0,1.06.48c-.67.58-.79-.36-1.66-.07,0-.41.26-.35,0-.74-.36.27-1,.22-1.37.45-.22-.39.16-.72,1.05-.76.68.35,1.42-.26,2,.07l-.34-.25a11.46,11.46,0,0,0,1.66-.23l0,.05.28-.4h-.31a2.81,2.81,0,0,1,1.06-.6c-1,.06-1,.7-1.49,1-.87,0-1.21-.73-1.78-.39-.05-.19-.54-.39-.15-.57s.82.14.87-.13c-.51,0-.32-.15-1.09-.1a2.81,2.81,0,0,1-1.27,1,3.63,3.63,0,0,1-1.78.07c.58,0,1.15-.38,1-.64-.34.37-1.13-.29-1,.22-.68,0-1.81,0-1.88-.47.64-.16,1.25.11,1.79,0-.15,0-.29-.12-.2-.22l.79.05c-.6-.22-.48-.36-1.25-.31.05,0,.14.11.07.13h-.63l0-.4c-.58.19-1.69-.32-2.74,0l.09-.08c-.84-.08-.91.71-1.83.81.27-.19.15-.36.1-.55-.46.21-.7-.13-1.16-.23.54.23-.35.42,0,.55,0,.41-.91.41-1.4.36-.28-.52,1.5-.28.77-.82-.48,0-.6.25-.26.35a4.62,4.62,0,0,1-1.95-.44c-.72.39-1,.18-1.47.69.39,0,.41-.39.89-.19l-.52.38a9.26,9.26,0,0,1-1.74-.36l.51-.16,0,.06c.2-.17.84-.07.77-.36-.45.36-.82,0-1.42.26l0-.06c-1.06.3-1.83-.58-2.51.16.2,0,.58.27.46.41-.24-.17-.89-.11-.87-.33l.22-.07a3.56,3.56,0,0,0-1.18,0c-.17.26,0,.46-.43.6-1.06-.16.43-.6-.29-.83l-1,.28-.21-.24c-1.47-.24-2.6.55-4.16.55,0-.41,1.1-.57,1.48-.6-.48-.35-1.17.13-1.82-.12-.61-.05-1.06.3-1,.53-.74.14-.53-.24-.62-.31-.24.44-1.18.28-1.78.38l0-.25-.93.31c.24,0,0,.25,0,.4l-.24,0c.92.68,2.07-.47,3,.3-.29.09.1.22-.19.32s-.29-.06-.32-.16c-.14.2-.52.38,0,.37,0,.52-1,.39-1.73.57-.55-.33.58-.5.86-.75-.26,0-.48.26-.86.13l.09-.39c-1,.22-.26.34-.48.72s-.86,0-1.13,0l.29-.1c-.74-.16-.91.25-1.58.22l-.32-.31c.85.39,1-.55,1.52-.35-1.23-.36.26-.8.64-1.14a1.83,1.83,0,0,1-1.3-.18c-.77.51-1.61-.19-2.35.41-.41-.07.36-.27-.08-.28a7.56,7.56,0,0,0-2.47.25c-.44,0-.37-.19-.49-.36-2.09-.23-2.91.71-5.19.48l.33-.21c-.48-.05-.89-.12-1.13.17-.6-.68-2,.41-2.81-.31-1-.13-1.06.45-1.86.56,0-.16.24-.44-.17-.51-2.59.24-4.93.29-7.79.41,0-.06.17-.11.24-.14-1.86,0-3.68.6-5.22.39-.29.09-1.16.22-.89.5.36,0,.41.38.38.59-1.37.3-.67-.5-1.58-.4-.29-.52.57-.35.57-.81l-1.32.33c-.75-.16-1.49.13-2.14-.11.29,0,.09-.4.57-.19-.07,0,0,.05-.09.08,1.1,0,.6-.25,1.59-.37a11.91,11.91,0,0,1-2.82.16c.17.35-.62.15-.84.38l0,0c0,.16-.48.26-.63.31l-.19-.45c-.34.06.1.22-.24.28s-2.19.16-2.31-.32c-.58,0-.75.3-1.35.24.05-.12.2-.16.22-.22a31.65,31.65,0,0,1-4.05-.21,8.12,8.12,0,0,0-2.45.5c.27,0,1,.07.56.33-.27.19-.68.12-1.08.2.09-.24-1-.22-.22-.39-.21-.52-1.77.1-1.75-.41-.19.16-1.36.06-1.79.34-.1-.22.63-.15.62-.31l-.52.07v-.15c-1-.13-1.21.5-1.81.59l0-.06-.41.09.48-.42c-.65.06-1,.43-1.71.51l-.07-.13-.44.15c.08,0,.1-.09.05-.12-.41.39-1.34.24-1.73.57-.29-.06-.53-.55-.91-.22l.07-.48c1-.06.36.34,1.37.16-.75-.63-2.84-.55-4.24-.51-1.13.33-3-.19-3.46.53l.12-.3-1.9-.25c-1.62.13-3.28-.1-4.5.3l-.34-.24c-1.27.83-4.33.34-5.17,1.34-.72-.22.22-.38.29-.56-.53-.08-1.42.57-1.93.12,0-.15.75-.14.41-.24-.38-.28-.55.29-1,0,.2.3-.69.64-1.34.7.12,0,.12,0,.17,0,.09.22-.39.18-.65.21a.14.14,0,0,1,.09-.08,57.37,57.37,0,0,1-10.68.28l.65-.22a4.12,4.12,0,0,1-1.69,0l.08,0c-.94-.46-1.06.45-1.78-.08l.14-.05c-1.13,0-1.81-.48-2.91-.22-.87-.18-.77-.42-1.38-.63a.87.87,0,0,0-.76.36l.24,0c.26.27-.53.22-.89.34.26.43.12,1.09,1.13,1.53.75-.14.73.69,1.57.62.48-.57,1.2.42,2-.09-.41.4.92.22.24.64.32.31,1.64-.33,2.24,0-.1.08-.07.18-.22.23.85-.23.58.27,1.21.27l0-.41c.25-.13.32.16.53.09-.17-.05-.53-.24-.34-.41a2.73,2.73,0,0,1,.85-.22c0,.15-.22.22-.36.27s.67,0,.72.23c-.24.13-.56.13-.77.35.89.12.07.13.51.45-.13-.47.77-.2,1.25-.31.05.19-.34.06-.46.2.92.84,1.37-.14,2.55,0,0,.06-.17.11-.24.13.55-.13.94.31,1.3,0,.53.09.1.54.92.53-.24-.49,1,.09,1-.43l.63.31c.55-.29-.15-.88.93-.93,1,.19-.09.86.49,1.13l.24-.29.48.2-.07,0c.29-.1.82,0,.82.14s-.36.12-.41.24c.48-.26,1.9.71,2.4-.08.29.14.87.14.8.39.26-.35,1.28.1,1.66-.12-.05.12.31.31.6.22-.38-.13-.14-.26.12-.45.34.25,1.3,0,1.45.45.53-.23.33-.52.45-.82.34.25,1.42.2,1.23.67-.29,0-.94-.15-.82.17.56.18.24-.13.7-.18,0,.09.31.29.22.43a2.8,2.8,0,0,1,1,0c-.6-.21.39-.33,0-.52l-.58.35c-.7,0-.15-.26-.41-.38,1.23-.1,1-.59,2.14-.81a4.6,4.6,0,0,0,.72.22.28.28,0,0,0-.09.55c.64-.37,1.15.23,1.68.32-.46-.11-.22-.39-.05-.5,1.11-.26.44.17.92.37,1.7-.05,2.79.52,4.16.22l-.65-.4-.22.38c-.5-.3.1-.86.39-1.11.07.13.91.06.58.28l.81-.17c-.12-.17-.65-.1-.27-.27.27.11,1.11.2.59.42.43,0,1-.12.89-.34.69,0-.08.49-.39.64.55,0,.48.35.32.46l.76,0c-.16.11-.16.26-.33.37.51.14.87-.28,1.3,0l.19-.32a10.79,10.79,0,0,0,2.55.34l-.21-.24c1-.43.72.38,2,.2.75-.14,1.23-.25,1.13-.63.43-.14.53.09.73.23a1.87,1.87,0,0,1,1.58-.37,6.91,6.91,0,0,1-1,.27c.09.38,1.15.08,1.7.26.39-.18,1.64-.64,2.34-1-.32-.31-.2-.76.43-1.07-.1.24.84.24,1.27.4-.21.23,1,.56.05.65-.26-.11-.38-.44-.75-.32a4.23,4.23,0,0,0,1.4.73c0,.12-.36.27-.67.27C331.07,606.37,331,606.29,331,606.2Z"/><path class="cls-1" d="M418,601.45h-.1l.12.09S418,601.47,418,601.45Z"/><path class="cls-1" d="M349.72,606.34s.13-.07.14-.12A.28.28,0,0,0,349.72,606.34Z"/><path class="cls-1" d="M362.83,606.08s0-.07,0-.1A.1.1,0,0,0,362.83,606.08Z"/><path class="cls-1" d="M418.85,604.14l-.23.07C418.7,604.21,418.74,604.17,418.85,604.14Z"/></svg>