<svg id="Layer_1" data-name="Layer 1" xmlns="http://www.w3.org/2000/svg" viewBox="0 0 427.14 606.42"><defs><style>.cls-1{fill:#fff;}</style></defs><path class="cls-1" d="M73.49,5.29v.09S73.53,5.35,73.49,5.29Z"/><path class="cls-1" d="M73.83,5.2h0S73.82,5.19,73.83,5.2Z"/><path class="cls-1" d="M79.13,36a.2.2,0,0,0,.12.08A.15.15,0,0,0,79.13,36Z"/><path class="cls-1" d="M72.34,30.31h0Z"/><path class="cls-1" d="M73.65,6.41a.08.08,0,0,1,0,0C73.59,6.36,73.59,6.4,73.65,6.41Z"/><path class="cls-1" d="M78.76,37.46h0Z"/><path class="cls-1" d="M72,9.89l0,0S72.07,9.9,72,9.89Z"/><path class="cls-1" d="M79.34,29.17l-.11,0S79.28,29.17,79.34,29.17Z"/><path class="cls-1" d="M78.39,29.15c.27.29.55-.06.84,0-.08-.07,0-.24-.25-.16.58-.15-.32-.46.14-.62-.05,0-.24.09-.39,0s.22-.15.33-.22c-.16-.05-.28-.31-.2-.29-.14-.11-.57.12-.82,0s-.06-.26-.16-.38c.27-.15.19.15.32.21L78,27.18c.2-.12.38.06.33.19.25-.17,0-.39-.3-.44.07-.11,0-.17.13-.27.18.1.74.1.83.25s-.42-.09-.51.13l.34,0c-.19.09.06.17.08.27s-.12,0-.17,0c0,.18-.15.33.23.46.31-.24-.11-.61.27-.72l-.46-.49c-.16,0-.41.17-.63,0,.39,0,.57-.2.64-.39-.43.07-.38-.3-.73-.2.22.08-.14.13-.17.14,0-.18-.4,0-.42-.13.09-.33.27,0,.43-.31a2.68,2.68,0,0,1,.79.43c.19,0,0-.18.19-.26-.22.11-.4-.08-.5,0-.17-.26-.62-.57-.71-.89.63.05.48.54,1.22.44-.09-.16-.4-.16-.35-.28.38-.11,0-.37,0-.59l-.19.1c-.15-.09,0-.24,0-.33l.08,0-.12-.09.06,0c-.19-.1,0-.36-.12-.56-.3,0,0,.2,0,.29s-.2.21-.42.12c0-.24-.37-.41-.36-.69l-.09.09c-.21-.09-.11-.21-.12-.34.21-.24.43.17.61,0,.27.09,0,.26.35.28l.43-.15c-.26-.13.13-.26.07-.35l-.19.09c-.33,0-.08-.1,0-.15l-.48.07c-.09.13.34.23.06.33-.16-.25-.55-.19-.56-.49.19,0,.07.06.21.09s-.26-.2-.11-.37a.51.51,0,0,0,.57.13l-.36-.09c.06-.08.2-.05.21-.08s-.38,0-.29-.14a.43.43,0,0,1,.24-.06c0-.19-.12-.09-.3-.27,0,.16-.55.17-.61,0s-.25-.41.21-.57L77,21.31c.35.07.12-.15.18-.22.38,0,0,.36.6.36.06-.16.25-.09.42,0-.06-.17-.44-.07-.69-.14.16,0,0-.29.38-.19,0-.14-.37-.17-.3-.28a3.08,3.08,0,0,0,.54,0c-.12,0,0-.15,0-.18s-.33,0-.22.08c-.3,0,0-.3-.26-.29.34,0,.07-.27.21-.4-.8,0,.31.24-.35.29-.28-.18,0-.59-.39-.88.16-.24.31,0,.61-.05.13.23-.11.29,0,.48a.55.55,0,0,0-.19-.72c0-.24.8-.26.6-.54-.26,0-.32,0-.42.12-.09-.08,0-.17,0-.25-.16,0-.2.13-.34,0a.28.28,0,0,1,.26-.12l0,0c-.23-.27.63-.19.13-.42-.13,0,0,.06,0,.12a.71.71,0,0,1-.57-.21c.17,0,0-.09.09-.17.3,0,.08.19.29.23l0-.21,0,.05-.29-.23c.1.16-.37.08-.4,0s.11-.32.45-.3c-.34,0-.32-.21-.4-.35-.11.15-.28,0-.39,0l.33-.22c.1.24.3-.05.53,0s.16.22.12.34c.61-.24-.34-.34,0-.56.15,0,.33,0,.3.12s-.3-.2-.12-.34c-.11,0-.42.12-.55,0l.38-.19c.08-.22-.4-.07-.58-.25l-.26.12c-.34,0,0-.25-.37-.26,0,.12.27.18.17.3-.36,0-.19-.15-.39-.22.16-.24.17-.19.46-.38.55,0,.68.3,1.41.27-.1-.24-.28-.59-.06-.75-.17-.21-.61-.19-.93-.16-.06-.09,0-.13.07-.19l.18.1c-.18-.26-.37-.41-.36-.69s-.43-.09-.69-.05l-.06-.17-.07,0c-.35,0-.23-.19-.22-.3s.19.07.28.06.1-.25-.06-.33c.16,0,.5.07.39.19s-.09,0-.13,0l.21.2c-.2-.23.2-.37.56-.37-.19-.23-.38.19-.52-.09.72-.36-.2-.69.83-.89-.21-.17-.57-.37-.59-.63-.31,0-.12-.18-.5-.15-.41.25.59.47,0,.67.14.11.41.07.57.12s0,.2-.2.21c-.19-.23-.75-.06-.76-.36-.26,0-.17.28-.24.39a.61.61,0,0,0-.42.07,7.18,7.18,0,0,1-.68-.34c.14,0,.23,0,.31,0l-.44-.3a.8.8,0,0,1,.58-.07c.09-.17-.32-.46.14-.46-.07-.22-.27.07-.4.09l0,0,0,.23c-.53,0,.13-.26-.38-.3-1,0,.31-.33.15-.49l.7.19-.15-.17c.27.1.73.1,1,.24,0-.23.23-.55.1-.69a2.1,2.1,0,0,1,.7-.06c-.44-.22.23-.35.24-.54-.26-.21-.36.2-.7,0,.18-.06,0-.17,0-.23.13.06-.1.28-.22.43,0-.11-.33-.1-.47-.13l-.08.19c-.42,0,0-.23-.25-.32.38.06.4,0,.78.08a.33.33,0,0,1,.08-.55c.15-.08.19.07.29.12.27,0-.15-.17.17-.2s0,.1.1.16L77,8.94c.16,0,.21.12.15.2.17-.15.09-.25-.43-.42.15-.17.38-.36.6-.3-.09-.08-.24,0-.39,0,.08-.22-.46-.24-.48-.37l-.28.1c.3-.22-.47,0-.25-.24a5.15,5.15,0,0,0,1,0c-.29,0,0-.15,0-.24-.3,0-.28-.17-.57,0-.24-.19.16-.28-.22-.41-.09.08-.31-.17-.52-.09,0-.18.33-.31.65-.26,0,.06-.15.16.1.16l-.06-.34a1,1,0,0,1,.56-.2c-.39-.1.28-.31-.19-.39.3.11-.1.2-.15.24l-.07,0a0,0,0,0,1,0,0l-.6-.15c-.23.14.39,0,.38.22-.55.17-.84-.38-1.18-.2-.18.14.35.11.56.23v0l.24.27a.65.65,0,0,1-.35-.07c0,.33-.29.38-.37.73.08,0,.66-.09.75.07s-.2.12-.24.22c-.07-.06-.39-.11-.17-.19H75c-.48-.26-.87-.13-1-.48a.36.36,0,0,1-.36-.47l-.27.09c-.51-.2.42,0,0-.3A3.61,3.61,0,0,1,75,6.08c.13-.19-.15-.25-.15-.41.43-.1.47,0,.91,0a.38.38,0,0,0-.49-.18l.18-.23c.09,0,.09.08.08.11s-.12-.26-.28-.31c0,0,.09.08,0,.1a1.58,1.58,0,0,0-.45-.28c.23.14-.27.15,0,.3-.12,0-.35,0-.29-.11-.26.12-.22.24-.51.29.22-.11-.1-.17-.15-.19s0,.27.12.33c-.49,0,.09.35-.42.23.17,0,.19.15.07.22s-.33-.18-.58-.25c-.24-.36.36,0,.52-.08l0-.27c-.07,0-.34-.11-.32.07-.31-.08-.52-.25-.28-.39-.15,0-.12.07-.13.1s-.67-.2-.75,0c0-.06.24.11.4,0,.06.09-.15.33-.43.24.09.1.29.3.35.39-.23,0-.09-.07-.2-.12l.13.31.25-.09c-.18.23.41.37.59.55-.39,0-.42-.17-.63-.29-.47.11.25.07.18.26a.49.49,0,0,1-.28,0l.34.15s-.13,0-.15,0c.43.26.56,0,.73.34.21-.21-.27-.17-.23-.35.28-.1.51.2.67.25-.09.17-.68.19-.36.4-.19-.15-.37,0-.38-.22-.21-.11-.18.07-.41.09.07.06.42,0,.36.12h-.06l.43.25c-.22.24.47.54,0,.71l.42,0a1.36,1.36,0,0,0,.13.47c-.24,0-.26-.12-.35-.23-.07.27.18.51.52.69a2.15,2.15,0,0,0,.47-.28c.58.18-.36.21-.07.44a3.68,3.68,0,0,0-.74,0c.28.1.22.26.46.36-.4.06-.73,0-.76-.27.34-.18-.27-.37.07-.52l-.25.09c-.12-.18,0-.28-.24-.43h.06l-.41-.07v.08a1.76,1.76,0,0,1-.6-.28c.06.25.7.27,1.06.39,0,.23-.74.32-.39.47-.2,0-.4.14-.57,0s.14-.21-.14-.22c0,.13-.15.08-.1.28a3.06,3.06,0,0,1,1,.33.31.31,0,0,1,.07.47c0-.15-.37-.3-.64-.26.37.08-.29.29.22.25,0,.17,0,.47-.46.49-.17-.17.1-.33,0-.47,0,0-.12.08-.23.05l.05-.2c-.21.15-.36.12-.31.32,0,0,.11,0,.13,0s0,.12,0,.17h-.4c.19.15-.32.44,0,.72l-.09,0c-.08.22.72.23.81.47a1.23,1.23,0,0,0-.54,0c.2.12-.13.18-.24.3.24-.14.43.09.56,0,.4,0,.4.24.35.37-.52.07-.28-.39-.81-.2,0,.12.24.15.34.07a.72.72,0,0,1-.44.51c.39.18.18.26.69.38,0-.1-.39-.11-.19-.23l.38.13c0,.19-.31.33-.35.46L71.6,13h.06c-.17-.05-.07-.22-.36-.2.36.12,0,.21.26.37H71.5c.3.28-.58.48.16.66,0,0,.27-.15.41-.12-.17.06-.11.23-.33.22l-.07-.05c-.06.16-.09.25,0,.31.26,0,.46,0,.61.11-.17.28-.61-.11-.84.08l.28.25-.24.06c-.24.38.55.68.55,1.09a.59.59,0,0,1-.59-.39c-.36.12.13.31-.12.47-.06.16.29.28.52.26.14.19-.24.13-.31.16.44.06.29.31.38.46h-.24L72,17c0-.07.25,0,.41,0l0,.06c.68-.24-.47-.54.3-.78.09.07.22,0,.32.05s-.06.07-.16.08c.21,0,.38.14.37,0,.52,0,.39.27.57.46-.33.14-.5-.15-.75-.23,0,.07.27.13.14.23l-.39,0c.21.25.34.07.72.13s0,.22,0,.29l-.09-.07c-.17.19.25.24.21.41l-.31.08c.39-.22-.54-.27-.34-.39-.37.32-.81-.07-1.14-.17.07.14,0,.26-.19.34.51.2-.19.42.42.61-.07.11-.28-.09-.29,0a.69.69,0,0,0,.25.65c0,.11-.19.1-.35.13-.24.54.7.76.47,1.35l-.21-.08c0,.12-.12.23.17.29-.68.16.41.54-.31.74-.13.26.45.27.56.48-.16,0-.44-.06-.51.05a10.9,10.9,0,0,1,.41,2,.2.2,0,0,1-.13-.06c-.06.48.59,1,.38,1.36.09.08.23.31.5.24,0-.1.38-.11.59-.1.3.35-.5.17-.4.41-.52.08-.34-.15-.81-.15l.34.35c-.17.19.13.39-.12.56.06-.08-.39,0-.19-.16,0,0,.06,0,.08,0,0-.29-.25-.16-.37-.42.13.23.27.54.16.74.35,0,.15.16.38.22h0a.48.48,0,0,1,.31.17l-.45.05c.06.08.23,0,.29.06a.38.38,0,0,1-.32.6c0,.15.3.2.24.35-.12,0-.17-.05-.23-.05-.09.33.06.74-.21,1.06a1.14,1.14,0,0,0,.5.64c0-.07.07-.28.33-.15s.12.18.2.28c-.23,0-.22.27-.39.06-.51.05.1.46-.41.46.16.05.07.35.34.46-.22,0-.15-.16-.31-.16l.08.14h-.16c-.13.26.5.31.6.47h-.06l.08.11-.42-.12c.06.17.43.25.52.44l-.14,0,.15.11a.25.25,0,0,0-.12,0c.39.11.24.35.57.45-.06.08-.55.14-.21.24l-.49,0c-.06-.25.34-.09.17-.35-.63.19-.56.74-.51,1.1.32.3-.2.78.52.91l-.29,0-.25.49c.12.42-.11.86.3,1.18l-.25.09c.83.33.34,1.13,1.34,1.35-.22.19-.38-.06-.56-.08-.08.14.58.37.12.51-.15,0-.14-.2-.23-.11-.29.1.28.14,0,.26a.72.72,0,0,1,.7.35s0,0,0,0c.23,0,.18.1.21.17a.17.17,0,0,1-.08,0A4.08,4.08,0,0,1,74.35,41l-.21-.17c.16.13,0,.36,0,.44l0,0c-.46.25.45.28-.08.47l0,0c0,.29-.48.47-.22.76-.18.23-.42.2-.63.36,0,.13.3.19.36.2l0-.06c.27-.07.23.13.35.23a4.24,4.24,0,0,0,1.53-.3c-.15-.19.68-.19.61-.41-.57-.12.43-.31-.08-.51.39.1.21-.24.64-.07.31-.08-.34-.42,0-.58a.64.64,0,0,1,.23.06c-.23-.22.27-.16.27-.32h-.4c-.13-.07.15-.08.08-.14a.51.51,0,0,1-.4.09c-.1-.08-.23-.14-.23-.22a.38.38,0,0,1,.27.09.26.26,0,0,1,.23-.19c.13.07.13.15.35.2.12-.23.13,0,.45-.13-.47,0-.2-.2-.31-.32.2,0,.06.08.21.11.83-.24-.15-.35,0-.66a.2.2,0,0,1,.13.06c-.13-.14.31-.24,0-.34.08-.14.53,0,.52-.24-.49.07.09-.25-.43-.26l.31-.16c-.29-.14-.88,0-.93-.24.19-.26.86,0,1.13-.13l-.29-.06.21-.13,0,0c-.09-.08,0-.21.14-.21s.12.09.24.1c-.26-.12.71-.49-.07-.63.13-.07.13-.22.38-.2-.35-.07.11-.34-.11-.44.12,0,.3-.08.21-.15-.13.1-.26,0-.45,0,.25-.08,0-.33.45-.37a1.94,1.94,0,0,0-.82-.12c.25-.09.2-.37.68-.32-.06.07-.16.24.16.21s-.13-.06-.18-.18.3-.08.43-.06a.22.22,0,0,1,0-.27c-.22.16-.34-.1-.52,0l.34.15c0,.18-.26,0-.38.1-.1-.32-.58-.25-.81-.56a1.31,1.31,0,0,0,.23-.18c0,.1.46.08.54,0-.37-.17.24-.3.32-.44-.11.12-.39.06-.5,0-.26-.29.17-.11.37-.24-.05-.44.52-.73.22-1.08l-.4.17.38,0a1.93,1.93,0,0,1-1.1-.1c.13,0,0-.24.27-.15L78,33.26c-.16,0-.09.17-.27.07.12-.07.2-.29.43-.15,0-.12-.12-.26-.35-.24,0-.18.49,0,.64.1,0-.14.36-.12.46-.08l0-.2c.1,0,.26,0,.36.09.15-.13-.28-.23,0-.34l-.32,0c.26-.37.31-.33.34-.67l-.24.06c-.42-.26.38-.19.21-.54a.61.61,0,0,0-.64-.29c-.14-.11.09-.14.23-.19-.21-.09-.61-.28-.37-.41a1.44,1.44,0,0,1,.28.25c.37,0,.08-.3.25-.44-.17-.1-.64-.43-1-.61a1.66,1.66,0,0,1-1.07-.11c.24,0,.24-.22.41-.34.22.06.55-.25.65,0-.12.07-.44.1-.32.19a2,2,0,0,0,.72-.36c.12,0,.27.09.27.17A.62.62,0,0,0,78.39,29.15Z"/><path class="cls-1" d="M73.65,6.41s0,0,0,0l.09,0Z"/><path class="cls-1" d="M78.53,24.25a.24.24,0,0,0-.12,0Z"/><path class="cls-1" d="M78.27,20.82h0Z"/><path class="cls-1" d="M76.33,6.19l.07.06S76.36,6.22,76.33,6.19Z"/><path class="cls-1" d="M342.34,3.13h-.76A3,3,0,0,0,342.34,3.13Z"/><path class="cls-1" d="M343,3.47h.06S343.05,3.46,343,3.47Z"/><path class="cls-1" d="M99.9,8.77a2.7,2.7,0,0,0-.66.12A1.46,1.46,0,0,0,99.9,8.77Z"/><path class="cls-1" d="M144.72,2a.22.22,0,0,0,0,.1C144.76,2.05,144.78,2,144.72,2Z"/><path class="cls-1" d="M333.46,3.28l.34,0C333.87,3.22,333.54,3.23,333.46,3.28Z"/><path class="cls-1" d="M88.32,8.4a.2.2,0,0,0-.09.09A.73.73,0,0,0,88.32,8.4Z"/><path class="cls-1" d="M306,1.68l-.33,0A.89.89,0,0,0,306,1.68Z"/><path class="cls-1" d="M153.75,9a.68.68,0,0,0,.29-.12C153.86,8.89,153.73,8.92,153.75,9Z"/><path class="cls-1" d="M153.89,8c-2.28.27.49.54.15.83.61-.07,1.91,0,1.29-.24,1.2.58,3.62-.32,4.91.14.06-.06-.69-.25.21-.39a3.15,3.15,0,0,1,1.78.33,8.26,8.26,0,0,1,2.24-.2c.89-.14-.95-.57.29-.82.84-.39,2-.06,3-.17,1.19.28-1.19.19-1.69.32l3.38-.18c1,.21-.45.39-1.44.34a6.14,6.14,0,0,0,3.47-.3c.85.07,1.29,0,2.09.13-.79.18-.74.74-2,.83-2,0,.74-.43-1-.51l-.15.33a7,7,0,0,0-2.13.09c-.44-.09.1-.12.4-.17a11.89,11.89,0,0,0-3.68.23c1.94.3,4.87-.11,5.72.27l3.86-.47c0-.15-1.34-.4-.25-.62a6,6,0,0,0,3.08.63c-.55-.42,2.38-.38,1.64-.72a1.21,1.21,0,0,1-1.15-.18c1.45,0,.2-.39,1-.41,2.63.09-.1.27,2.49.42a18.18,18.18,0,0,1-3.37.8c.1.19,1.43,0,2,.19-.84-.23.6-.4-.1-.5,2.09-.18,4.52-.62,7.05-.71-.4.63-4.27.47-3.47,1.22,1.24-.1,1.23-.4,2.23-.36.84.38,2.93.05,4.62,0L189.63,8a11.12,11.12,0,0,1,2.58,0l-.19.08.73-.12c.12,0,.14,0,.14.06.81-.19,2.88,0,4.43-.12,0-.31-1.54,0-2.28,0-.2-.07-1.64-.2-.94-.41,1.93,0,3.27-.37,5.45-.36L198.86,7a10.56,10.56,0,0,1,2.68-.12c1.88.21-1.39.42-.25.6-.74.28-2,0-2.23.36l1.19.43a11.4,11.4,0,0,1,2.79.07l-.75-.19c.15-.34.84-.09,1.19,0l-.5-.49c-1.09-.08-1.84.35-2.63.06,1.93-.15,1.49-.54,3.82-.55.1.19-.45.07-.69.21.79.13,1.63-.26,2.92-.11-.74.12-1.93.31-1,.57l.7-.37c.59.06.35.2.59.22.85.07-.19-.38,1.14-.29.2.07.65.16.45.24,1.54,0,.74-.12,2.18-.3-1.29,0-1.34-.56,0-.62,1.89.06,3.17-.25,4.47.22l.84-.24c-.54.34,1.19.12,1.79.18.2.38-2.83,0-2.83.6,1.24.06.7.25.3.42,1.35-.06.5-.44,1.09-.69,0,.15,2.29,0,1.5.38,1.14,0,1.33-.37,2.18-.3-.13.15-.28.35-.2.54.1-.13,1.18,0,1.39,0-.2-.07.39-.32-.6-.21.25-.3,2.34,0,2.28-.26.11.34,2.14.07,3.18.21-.1-.81-1.93.31-2.28-.36,1.39-.27,4.66,0,6.9-.38,1.93.16,0,.31.39.61-1.78.13-2.23-.11-3.77,0a26.23,26.23,0,0,0,5.71-.19c1.84,0,2,.81,4.27.61-.29-.26-.24-.32-.94-.42a13.81,13.81,0,0,1,1.93,0c.4-.17-1-.2-.1-.34.35,0,1.09.08.95.26l-.15,0c2.13-.24,1.54.63,3.37.13-.14-.13-.54,0-1,0s.79-.48,1.64-.57c-.15.18.74,0,1.34.1.39.29-1.49.08-1.79.28l1.64,0-.35,0L245.42,7c-1.25.09-.6-.37,0-.41,1.23.06,2.48.12,2.33.45.15-.33,1.69-.32,2.78-.39-1.19-.12-.15-.28.19-.39l1.79.33c-1.88.1.4.3,0,.52s-1.69.17-2.69.12c2,.62,2.73-.33,4.42,0,0,.15-.14.33-.89.29a23.28,23.28,0,0,1,2.68-.12c-.3-.1-.94-.41.2-.54l1.49.38c1.74.08.59-.41,2-.58l-.94-.27c.14-.33,1.93,0,2-.36a19.52,19.52,0,0,1-2.33.16c-.35-.35,1.19-.19,1.73-.38a15.48,15.48,0,0,1,3,.45c.06.56-2.38.69-2.07,1.42a37.54,37.54,0,0,1,5.85-.07c1.69-.16,1.54-.6,1.29-.92a4.85,4.85,0,0,1,1.49.07l-.79.18a50.73,50.73,0,0,1,5.46-.36c1.23-.1.73-.43.44-.69l1.34-.06-.21-.07c.3-.36,1.49-.24,2.39-.23,0,.16-.55.19-.5.29a8.17,8.17,0,0,0,2.63-.06c0,.15-.54.5-1.48.39-.1,0-.05-.09-.15-.13l-1.59.2c1.84-.19,2.93.2,2.88.57,1.84-.19-1.49-.38.69-.52,2.88.72,5.46-.2,7.06.83a30.25,30.25,0,0,1,5-.6c0-.31,1.39-.12,1.19-.5-2-.4-3.72.6-5.32,0-.89.14-.59.4-1,.57-.79,0-1.53,0-1.64-.2,1.84-.19.5-.75,2.83-.76-.3-.26-2.19-.17-3-.24.25-.14,0-.31-.55-.43.6-.24,1.93-.46,2.63-.67-.25.14.2.22,0,.31l2.43-.44c.75.19.95.41.55.58,1.34.09,3.62-.32,3.63.14,1.73-.07-.55-.28-.7-.41l.15,0-1.84,0c-.2-.54,2.09.13,2.38-.38.29-1,2.59.3,3.87.15l-1.48.7,1.29-.15c-.74.27-.74.73-1.88,1,1.78,0,4.32.23,5.46.1.45.24.65.46.45.7,1.79-.44,2.78.23,4.32.24,1.63-.26-1.64-.36-.45-.7a4.49,4.49,0,0,0,1.83,0,18.71,18.71,0,0,1-3.42-.22c.89,0,.79-.34,1-.48l-1.49-.07c.1-.43,1.83,0,2.53-.25-.44.38-.2.39-.64.77a16.28,16.28,0,0,1,4.32.08c.64.16-.55.19-.89.3.29.26,1.29-.15,1.53.17-.19.24-.79,0-1.24.09l3.78.12c0,.15-.94.2-1.54.14a5.61,5.61,0,0,0,3.32-.43c1.29.16,2.78.38,2.34.61.6-.1.2-.24.19-.39,1.74.08,1.94-.47,3-.48L320,5.83c1.68.29.39-.48,1.88-.25a.73.73,0,0,0,.1,1c.25-.3,1.2,0,1.84,0-.4-.29,1.39-.27.34-.57,1.5-.24,2.19.17,3.28-.21-.69-.1,1.29-.31.69-.52,1.44,0,2.43.33,2,.65-.5,0-1.29-.16-1.24.09l2.63-.06c.65.16,1.49.23,1.59.57.84-.39,2.49.27,3.13-.19a3.14,3.14,0,0,1-1.93-.15l.4-.07a.86.86,0,0,1-.21,0l1.14-.59c-1.1-.24-.2.39-1.74.38-1.34-.56,3-.84,1.63-1.19-1.14-.17-.94.36-1.88.56h.25l-2.13.24c-.1-.19.54-.34.54-.34-2.58,0-3-.3-5.76-.37.2.07.75.65-.49.75-.89.14-1-.2-1.74-.24.44-.07.84-.39,1.44-.18l0-.4c2.08-.49,1-.88,3.82-1,.13-.3,2.17-.45,3.71-.36L332.51,3c1.58-.51.3.42,2.33,0,.85.53,2.39,1.16,1.25,1.6a25.49,25.49,0,0,0,3.23-.16c.79.44-.4.48-.25.92.95,0,2.14-.24,1.44-.49L342.3,5c.05.09-.6.09-.85.08a6.8,6.8,0,0,0,2.43-.28,2.29,2.29,0,0,1-.79,0,12,12,0,0,0,2.18-.45c-1.09.22-1.19-.28-2.33,0a.87.87,0,0,1,.89-.3c-.94-.26-1.89-.21-2.28-.51A2.09,2.09,0,0,0,343,3.47a10,10,0,0,0-2.62.12c-.1-.5-2.77.08-1.84-.43a3.21,3.21,0,0,1-1.73.08c.05-.22,1.43-.34,2-.59,2.78-.23-.05.37.6.53l2.12,0c-.21-.07.85-.35-.54-.32a5.57,5.57,0,0,1,3.08-.29c.25-.14-.55-.11-.8-.13.25-.14,1.59-.66-.15-.74.5,0-.84.23.05.4-.69.06-2.58-.15-1.83-.43-.85.09-2.44.29-3.13.35-.2-.23.59-.1.94-.2l-2.43.13.69.25c-1.78-.18-2.92.41-4.36.59.2-.39,1.39-.43,2.33-.63-.9-.47-.59.25-2.08.18-.2-.07-.25-.17-.16-.29L332,2.36c-.35,0-.15-.13,0-.16-2,.43.05.56-2.68.74,1.64.2,1.39-.27,2.78-.24.8.29-1.58.51-2,.68-1.33-.09-1.49-.69-3.17-.37,1.19-.19.05-.36,1.73-.38.95-.2-.5-.17-.69-.4-.45.07.29.42-.95.36l0-.06-2,.42c-1.89-.21-4.26.48-5.56,0l.3.41c-1.19,0-2.88.05-3.72.14.2-.24,1-.27,1.84-.35a21.54,21.54,0,0,0-5.46.51,18.81,18.81,0,0,0,2.19.48c-1.39.58-1.65-.36-3.43-.07-.05-.41.54-.35.1-.74-.75.27-2,.22-2.83.45-.45-.39.34-.72,2.18-.76,1.39.35,2.92-.26,4.07.07l-.7-.25c1.39-.12,2.23,0,3.42-.24l0,.06.59-.4h-.64a8.49,8.49,0,0,1,2.18-.6c-2,.06-2.13.7-3.08,1.05-1.78,0-2.48-.73-3.67-.39-.1-.19-1.1-.39-.3-.57,1-.11,1.69.14,1.78-.13-1,0-.64-.15-2.23-.1a7.09,7.09,0,0,1-2.62,1,15.31,15.31,0,0,1-3.68.07c1.19,0,2.38-.38,2.08-.64-.69.37-2.33-.29-2,.22-1.39,0-3.73,0-3.88-.47,1.32-.16,2.59.11,3.7,0-.3,0-.6-.12-.42-.22l1.64.05a7.32,7.32,0,0,0-2.59-.31c.1,0,.3.11.15.13-.39,0-.89,0-1.29,0l-.05-.4c-1.19.19-3.48-.32-5.66,0l.2-.08c-1.74-.08-1.88.71-3.77.81.55-.19.3-.36.2-.55a6.3,6.3,0,0,1-2.39-.23c1.1.23-.74.42.06.55.05.41-1.89.41-2.88.36-.6-.52,3.08-.28,1.58-.82-1,0-1.24.25-.54.35a18.54,18.54,0,0,1-4-.44c-1.48.39-2.07.18-3,.69.8,0,.84-.39,1.84-.19l-1.09.38c-1.44,0-2.59-.31-3.58-.36l1.05-.16L281,1.3c.4-.17,1.74-.08,1.59-.36-.94.36-1.69,0-2.93.26l.05-.06c-2.18.3-3.77-.58-5.16.16.4,0,1.2.27.95.41-.5-.17-1.84-.11-1.79-.33l.44-.07a15,15,0,0,0-2.43,0c-.34.26,0,.46-.89.6-2.18-.16.89-.6-.6-.83l-2,.28-.45-.24c-3-.24-5.36.55-8.58.55-.06-.41,2.28-.57,3.07-.6-1-.35-2.43.13-3.77-.12-1.25-.05-2.18.3-2,.53-1.53.14-1.09-.24-1.29-.31-.49.44-2.43.28-3.67.38l0-.25-1.94.31c.5,0,.06.25.06.4l-.5,0c1.89.68,4.27-.47,6.21.3-.6.09.2.22-.4.32s-.59-.06-.64-.16c-.3.2-1.09.38-.05.37,0,.52-2.14.39-3.57.57-1.15-.33,1.19-.5,1.78-.75a5.7,5.7,0,0,1-1.79.13l.2-.39c-2,.22-.54.34-1,.72s-1.79,0-2.33,0l.59-.1c-1.53-.16-1.88.25-3.27.22l-.65-.31c1.74.39,2.13-.55,3.13-.35-2.54-.36.54-.8,1.33-1.14A7.4,7.4,0,0,1,246,1.24c-1.59.51-3.33-.19-4.86.41-.84-.07.74-.27-.15-.28a31.74,31.74,0,0,0-5.11.25c-.9,0-.75-.19-1-.36-4.32-.23-6,.71-10.72.48l.69-.21a4.91,4.91,0,0,0-2.32.16c-1.25-.67-4.22.42-5.81-.3-2.09-.13-2.19.45-3.83.56,0-.16.5-.44-.35-.51-5.35.24-10.17.28-16.07.4a1.77,1.77,0,0,1,.49-.13c-3.82-.05-7.59.6-10.77.39-.59.09-2.38.22-1.83.5.74,0,.84.38.79.59-2.82.3-1.39-.5-3.27-.4-.6-.52,1.19-.35,1.19-.81l-2.73.33c-1.54-.16-3.08.13-4.42-.11.6,0,.19-.4,1.19-.19-.15,0-.05.05-.2.08,2.28,0,1.24-.25,3.28-.37a50.19,50.19,0,0,1-5.81.16c.35.35-1.29.15-1.74.38l-.1,0c0,.15-1,.26-1.29.31l-.39-.45c-.7.06.19.22-.5.28-1,.11-4.52.16-4.77-.32a25,25,0,0,1-2.77.24c.09-.12.39-.16.44-.22-2.63-.1-5.86.06-8.34-.21a32.59,32.59,0,0,0-5.06.5c.55,0,2.14.07,1.14.33a12.17,12.17,0,0,1-2.23.2c.2-.24-2.14-.22-.45-.39-.43-.52-3.64.1-3.61-.41-.4.15-2.79.06-3.69.34-.2-.23,1.3-.15,1.29-.31l-1.09.07V2c-2.09-.13-2.48.5-3.72.59l.05-.06-.84.09,1-.42c-1.34.06-2,.43-3.52.51L134,2.61l-.9.14c.15,0,.2-.08.11-.11-.85.39-2.79.23-3.58.57-.59-.06-1.09-.55-1.89-.22l.15-.48c2-.06.74.34,2.83.16-1.54-.63-5.86-.55-8.74-.51-2.33.33-6.15-.19-7.14.53l.24-.3-3.92-.25c-3.33.13-6.75-.1-9.28.3l-.7-.24c-2.62.83-8.93.34-10.66,1.34C89,3.32,91,3.16,91.12,3c-1.09-.08-2.93.57-4,.12,0-.15,1.54-.14.84-.24-.79-.28-1.13.29-2,0,.4.3-1.44.64-2.77.7a.82.82,0,0,1,.35.05c.19.22-.8.18-1.35.21a.32.32,0,0,1,.2-.08c-6.9.38-14.79.56-22,.28l1.34-.22a17.23,17.23,0,0,1-3.47,0l.15,0c-1.94-.46-2.19.45-3.68-.08l.3-.05c-2.34,0-3.72-.48-6-.22a18.4,18.4,0,0,1-2.84-.63,2.93,2.93,0,0,0-1.59.35l.5,0c.55.27-1.09.22-1.83.34.54.43.25,1.09,2.34,1.53,1.54-.14,1.49.69,3.23.62,1-.57,2.48.42,4.07-.09-.85.4,1.88.22.5.64.64.31,3.37-.33,4.62,0-.21.08-.16.18-.45.22,1.73-.22,1.19.28,2.48.28L60,6.31c.5-.13.65.16,1.09.09-.35-.05-1.09-.24-.7-.41a10.74,10.74,0,0,1,1.74-.22c0,.15-.44.22-.75.27,0,0,1.4,0,1.5.23a8.78,8.78,0,0,0-1.59.35c1.84.12.15.13,1,.45-.25-.47,1.59-.2,2.58-.31.11.19-.69.06-.94.2,1.89.84,2.83-.14,5.26,0a1.32,1.32,0,0,1-.49.13c1.14-.13,1.94.31,2.68,0,1.09.09.2.54,1.89.53-.5-.49,2,.09,2-.43l1.29.3c1.15-.28-.3-.87,1.93-.92,2,.19-.19.85,1,1.13l.5-.29,1,.2-.15,0c.6-.1,1.69,0,1.69.14s-.74.12-.84.24c1-.27,3.92.71,5-.08.59.14,1.79.14,1.64.39.53-.35,2.64.1,3.43-.12-.1.12.64.31,1.24.22-.8-.13-.3-.26.24-.45.7.25,2.69,0,3,.45,1.09-.23.69-.52.93-.82.7.25,2.94.2,2.54.67-.6-.06-1.94-.15-1.69.17,1.15.18.5-.13,1.44-.18-.07.09.64.29.46.43a11.77,11.77,0,0,1,2.12,0c-1.23-.21.8-.33,0-.52l-1.19.35c-1.44,0-.3-.26-.85-.38,2.54-.1,2-.59,4.42-.81.44.08,1.24.21,1.49.22-.8,0-.64.47-.19.55,1.33-.37,2.38.23,3.47.32-.94-.11-.45-.39-.1-.5,2.28-.26.89.16,1.89.37,3.52-.05,5.76.52,8.58.22l-1.34-.4-.44.38c-1-.3.19-.86.78-1.11.16.13,1.89.06,1.2.28l1.69-.17c-.25-.17-1.34-.1-.56-.27.56.11,2.29.2,1.2.42.89,0,2-.12,1.84-.34,1.44,0-.15.49-.79.64,1.14,0,1,.35.65.46l1.58,0c-.35.11-.35.26-.69.37,1,.14,1.79-.28,2.68,0l.4-.33a42.72,42.72,0,0,0,5.26.35l-.45-.24c2-.43,1.49.38,4.22.2,1.54-.14,2.53-.25,2.33-.63a2.12,2.12,0,0,1,1.49.23,7.26,7.26,0,0,1,3.27-.37c-.74.12-1.33.21-2,.27.2.38,2.38.08,3.52.26.8-.18,3.38-.64,4.82-1-.65-.31-.41-.76.88-1.07-.19.24,1.74.24,2.63.4-.44.23,2,.56.11.65-.55-.11-.8-.44-1.54-.32a13.32,13.32,0,0,0,2.88.73,2.79,2.79,0,0,1-1.39.27C154.15,8.19,153.94,8.12,153.89,8Z"/><path class="cls-1" d="M333.46,3.28h-.21l.25.08C333.42,3.32,333.42,3.3,333.46,3.28Z"/><path class="cls-1" d="M192.61,8.17c.1,0,.28-.07.28-.12A.67.67,0,0,0,192.61,8.17Z"/><path class="cls-1" d="M219.66,7.91a.24.24,0,0,1,0-.1S219.6,7.87,219.66,7.91Z"/><path class="cls-1" d="M335.21,6l-.49.08A2.6,2.6,0,0,0,335.21,6Z"/><path class="cls-1" d="M347.06,597.38l0-1.5A12.76,12.76,0,0,0,347.06,597.38Z"/><path class="cls-1" d="M346.72,598.73s0,.1,0,.13S346.73,598.8,346.72,598.73Z"/><path class="cls-1" d="M341.41,117.16a10,10,0,0,0-.11-1.29A5.5,5.5,0,0,0,341.41,117.16Z"/><path class="cls-1" d="M348.2,206a.12.12,0,0,0-.09-.06C348.13,206,348.16,206.06,348.2,206Z"/><path class="cls-1" d="M346.9,579.79c0,.23,0,.47,0,.68S347,580,346.9,579.79Z"/><path class="cls-1" d="M341.79,94.23a.59.59,0,0,0-.09-.18A.41.41,0,0,0,341.79,94.23Z"/><path class="cls-1" d="M348.51,525.4c0-.21,0-.43,0-.64A4.22,4.22,0,0,0,348.51,525.4Z"/><path class="cls-1" d="M341.21,223.83a2.5,2.5,0,0,0,.11.58C341.3,224.06,341.26,223.8,341.21,223.83Z"/><path class="cls-1" d="M342.16,224.11c-.28-4.52-.55,1-.84.3.08,1.2,0,3.77.24,2.56-.58,2.37.33,7.17-.14,9.73.06.11.25-1.38.4.4a11.92,11.92,0,0,1-.34,3.54,32.3,32.3,0,0,1,.21,4.42c.14,1.76.57-1.88.82.58.39,1.67.06,3.93.16,5.9-.27,2.36-.19-2.36-.32-3.34l.18,6.68c-.2,2-.38-.88-.33-2.85a23.58,23.58,0,0,0,.29,6.89c-.07,1.67,0,2.55-.12,4.13-.18-1.57-.74-1.47-.84-3.93,0-4,.43,1.47.51-2l-.33-.29a28.73,28.73,0,0,0-.08-4.23c.08-.88.12.2.16.79a46.21,46.21,0,0,0-.22-7.28c-.31,3.84.11,9.64-.27,11.32l.46,7.66c.15,0,.4-2.66.63-.5a22.2,22.2,0,0,0-.64,6.1c.43-1.09.38,4.72.72,3.24a4.45,4.45,0,0,1,.18-2.26c0,2.85.39.38.42,1.95-.1,5.22-.28-.19-.43,4.93a66.26,66.26,0,0,1-.8-6.68c-.19.2,0,2.84-.19,4,.23-1.68.41,1.17.5-.21.18,4.13.62,8.95.72,14-.63-.78-.48-8.45-1.23-6.87.1,2.45.41,2.45.36,4.42-.38,1.67-.05,5.79,0,9.14l.19-1.48a48.53,48.53,0,0,1,0,5.12l-.09-.39.12,1.46c0,.23,0,.28-.06.27.2,1.61,0,5.71.12,8.78.31,0,0-3.05.05-4.52.07-.4.2-3.24.41-1.87,0,3.82.37,6.48.36,10.81l.1-1.38a43.15,43.15,0,0,1,.12,5.3c-.21,3.75-.43-2.74-.61-.48-.27-1.47,0-4-.35-4.42l-.43,2.36a48.69,48.69,0,0,1-.07,5.52L342,320c.33.29.08,1.66,0,2.36l.49-1c.08-2.16-.34-3.63-.06-5.2.15,3.83.55,2.94.56,7.56-.19.21-.07-.89-.21-1.37-.13,1.58.26,3.24.1,5.79-.12-1.46-.31-3.83-.57-1.95l.37,1.37c-.06,1.18-.2.69-.21,1.18-.07,1.67.38-.39.28,2.26-.07.4-.15,1.28-.23.89a29.22,29.22,0,0,0,.29,4.31c0-2.55.56-2.65.62,0-.06,3.74.25,6.29-.21,8.85l.24,1.67c-.35-1.07-.12,2.37-.18,3.55-.38.39,0-5.6-.61-5.6-.06,2.45-.25,1.38-.41.59.06,2.66.44,1,.69,2.16-.16,0-.05,4.53-.38,3,0,2.26.36,2.65.29,4.31-.15-.25-.34-.54-.54-.38a18.38,18.38,0,0,1,0,2.75c.07-.39.32.78.22-1.18.29.49,0,4.62.26,4.51-.35.21-.07,4.24-.22,6.3.81-.2-.3-3.83.36-4.52.27,2.74,0,9.24.38,13.66-.15,3.83-.31,0-.6.79-.13-3.53.1-4.42,0-7.48a105.05,105.05,0,0,0,.19,11.31c0,3.64-.8,4-.6,8.47a3.43,3.43,0,0,0,.41-1.88c.1,1.18,0,2.56,0,3.84.17.78.2-2,.35-.2-.05.69-.09,2.16-.26,1.87l0-.3c.24,4.23-.62,3.06-.13,6.69a18.83,18.83,0,0,0,.05-2c.2-.68.49,1.57.57,3.25-.18-.3,0,1.47-.09,2.65-.3.79-.09-3-.29-3.54l-.05,3.25.05-.69.29,3.53c-.1-2.46.36-1.18.4-.1-.06,2.46-.12,4.92-.45,4.62.33.3.32,3.35.39,5.51.12-2.36.29-.3.39.39l-.33,3.54c-.09-3.74-.29.79-.52-.09-.34-1.08-.17-3.34-.12-5.31-.62,3.84.33,5.4,0,8.75-.16,0-.33-.29-.3-1.77-.1.59.3,3.05.12,5.31.11-.59.42-1.87.55.39l-.38,2.95c-.08,3.44.4,1.18.58,4l.26-1.86c.33.29,0,3.83.37,3.92,0-1.76-.27-2.75-.17-4.61.36-.7.19,2.36.38,3.43a53.94,53.94,0,0,1-.45,5.91c-.55.1-.69-4.72-1.41-4.11.09,3.73.27,9.14.06,11.59.17,3.35.61,3,.93,2.55a18.88,18.88,0,0,1-.07,2.95l-.18-1.57c.18,4.13.37,6.49.35,10.82.1,2.45.43,1.46.69.87l.06,2.66.07-.41c.36.6.24,2.95.23,4.72-.15,0-.19-1.07-.28-1a30.72,30.72,0,0,0,.06,5.2c-.16,0-.5-1.07-.4-2.94,0-.2.1-.1.13-.29l-.2-3.15c.19,3.64-.2,5.8-.57,5.71.19,3.64.38-3,.53,1.37-.73,5.71.2,10.81-.83,14,.21,2.65.57,5.79.59,9.92.31,0,.12,2.76.5,2.36.4-3.94-.59-7.37,0-10.53-.15-1.76-.41-1.16-.57-2a10.53,10.53,0,0,1,.2-3.24c.19,3.63.74,1,.76,5.59.26-.58.16-4.33.23-6,.15.49.31,0,.43-1.09.25,1.18.46,3.82.68,5.2-.14-.48-.23.4-.31,0l.44,4.81c-.19,1.48-.42,1.88-.58,1.09-.1,2.66.32,7.17-.14,7.18.07,3.44.27-1.09.4-1.38l0,.29,0-3.63c.53-.41-.13,4.13.38,4.71,1,.57-.31,5.12-.16,7.67l-.7-2.95.16,2.56c-.27-1.47-.74-1.46-1-3.72,0,3.54-.24,8.56-.11,10.82-.23.88-.46,1.28-.7.88.44,3.54-.22,5.51-.23,8.57.26,3.23.35-3.25.7-.9a17.65,17.65,0,0,0,0,3.64c-.13-1,.11-4.43.23-6.79a3,3,0,0,0,.47,2.07l.07-3c.43.19,0,3.64.25,5-.38-.88-.39-.39-.77-1.27a60.52,60.52,0,0,1-.08,8.56c-.15,1.28-.19-1.08-.3-1.77-.26.59.16,2.56-.16,3a10.42,10.42,0,0,1-.1-2.46l-.12,7.48a10.86,10.86,0,0,1-.14-3.05,21.59,21.59,0,0,0,.43,6.58c-.15,2.56-.38,5.51-.6,4.64.09,1.17.23.39.39.38-.09,3.44.46,3.83.47,5.89l.29-1.57c-.3,3.34.47.78.25,3.73-.3-.48-.64-.29-1,.21.29.49,0,2.36,0,3.63.3-.79.28,2.75.57.69.24,2.95-.16,4.32.22,6.48.09-1.37.31,2.56.52,1.37,0,2.86-.33,4.82-.65,4.05,0-1,.15-2.57-.1-2.46l.06,5.2c-.15,1.29-.22,3-.57,3.16.39,1.67-.27,4.92.19,6.19a12.23,12.23,0,0,1,.16-3.83l.06.81c0-.12,0-.25,0-.42l.59,2.25c.24-2.16-.39-.39-.38-3.44.56-2.65.85,6,1.19,3.24.18-2.26-.36-1.87-.56-3.73v.49l-.24-4.23c.19-.2.35,1.08.35,1.08,0-5.11.29-5.91.36-11.41-.07.4-.65,1.48-.75-1-.14-1.76.21-2,.24-3.43a9,9,0,0,1,.18,2.84l.4-.1c.49,4.13.88,2,1,7.56.29.26.44,4.32.36,7.37l.26-1.48c.51,3.14-.41.59,0,4.62-.54,1.68-1.16,4.74-1.6,2.48-.13,2.85.15,3.83.15,6.39-.44,1.58-.47-.78-.91-.49.05,1.88.24,4.23.48,2.84l-.17,3.56a6.25,6.25,0,0,1-.09-1.68,26,26,0,0,0,.29,4.81,8.12,8.12,0,0,1,0-1.57,41.67,41.67,0,0,0,.45,4.32c-.23-2.16.27-2.35,0-4.61a2.69,2.69,0,0,1,.3,1.76,44.59,44.59,0,0,1,.51-4.53,7.76,7.76,0,0,0,.15,2.92,40.28,40.28,0,0,0-.13-5.18c.5-.2-.08-5.5.43-3.64a12.26,12.26,0,0,1-.07-3.45c.21.1.33,2.85.58,4,.24,5.51-.37-.1-.52,1.19l0,4.2c.08-.42.35,1.68.32-1.06a20.82,20.82,0,0,1,.29,6.09c.14.49.12-1.08.13-1.57.14.49.67,3.14.75-.3,0,1-.24-1.68-.4.1-.06-1.38.15-5.12.42-3.64-.08-1.67-.28-4.82-.34-6.19.22-.4.09,1.17.2,1.86l-.13-4.82-.25,1.38c.18-3.54-.42-5.79-.6-8.64.4.39.43,2.75.63,4.62.48-1.79-.24-1.18-.17-4.13.07-.4.16-.5.28-.31l-.34-2.35c0-.69.13-.3.15,0-.43-4-.56.1-.74-5.31-.2,3.26.28,2.77.24,5.51-.28,1.58-.51-3.14-.67-3.93.09-2.65.68-3,.36-6.29.19,2.35.37.09.38,3.43.2,1.87.18-1,.4-1.37-.07-.88-.41.59-.35-1.87l.06.1-.43-4c.21-3.74-.48-8.44,0-11l-.42.6c0-2.36-.05-5.7-.13-7.37A14.83,14.83,0,0,1,347,549a83.28,83.28,0,0,0-.51-10.81c-.29,2.07-.27,2.37-.47,4.33-.58-2.74.35-3.25.07-6.79.4-.1.34,1.08.73.2-.27-1.47-.21-3.94-.45-5.61.39-.89.73.68.76,4.32-.34,2.75.26,5.8-.07,8.07l.25-1.38c.12,2.75.05,4.42.24,6.77l-.06-.09.4,1.18v-1.28a30.94,30.94,0,0,1,.61,4.32c-.06-3.94-.7-4.22-1.06-6.09,0-3.54.74-4.93.39-7.28.19-.2.39-2.17.57-.59.11,2-.14,3.34.13,3.53,0-2.06.16-1.28.11-4.42a23.29,23.29,0,0,1-1-5.19,59.91,59.91,0,0,1-.07-7.29c0,2.36.38,4.72.64,4.12-.37-1.37.3-4.62-.21-3.92,0-2.75,0-7.38.46-7.68.16,2.6-.1,5.12,0,7.33,0-.61.12-1.2.22-.85l0,3.25a29.75,29.75,0,0,0,.31-5.11c0,.19-.11.59-.13.29,0-.78,0-1.77,0-2.56l.41-.1c-.19-2.35.32-6.89,0-11.2l.08.39c.09-3.45-.71-3.73-.8-7.47.18,1.08.35.58.54.39a24.15,24.15,0,0,1,.24-4.72c-.24,2.17-.43-1.47-.56.1-.4.11-.4-3.73-.36-5.7.52-1.18.29,6.1.82,3.14.05-2-.25-2.46-.34-1.07a71.46,71.46,0,0,1,.44-8c-.4-2.94-.18-4.12-.69-6,0,1.57.39,1.66.19,3.63l-.38-2.16c0-2.85.3-5.11.35-7.08L349,476l-.06-.1c.17.78.07,3.44.35,3.14-.35-1.87,0-3.35-.26-5.8l.06.1c-.29-4.33.58-7.48-.15-10.23,0,.79-.28,2.37-.42,1.88.18-1,.12-3.64.33-3.55l.08.89c.05-2.46.09-3.94,0-4.83-.26-.68-.47,0-.61-1.75.17-4.34.61,1.75.83-1.19l-.27-4,.24-.89c.23-6-.55-10.61-.55-17,.4-.1.57,4.51.59,6.09.36-2-.13-4.82.12-7.47.06-2.47-.3-4.32-.52-3.93-.15-3.05.23-2.17.3-2.56-.43-1-.28-4.82-.38-7.27l.25-.11-.31-3.83c0,1-.24.1-.4.1l0-1c-.67,3.75.48,8.45-.29,12.29-.1-1.17-.23.4-.32-.78,0-1,.06-1.18.15-1.28-.2-.59-.38-2.16-.36-.09-.53-.1-.4-4.23-.58-7.07.34-2.27.51,2.35.75,3.53a23.3,23.3,0,0,1-.13-3.54l.39.38c-.21-3.92-.34-1.07-.72-2-.5-1.06,0-3.53,0-4.61l.09,1.17c.17-3-.25-3.73-.21-6.47l.31-1.29c-.4,3.45.54,4.22.34,6.19.37-5,.81,1.07,1.14,2.64a28.33,28.33,0,0,1,.19-5.3c-.51-3.15.19-6.6-.42-9.64.07-1.67.28,1.47.29-.3,0-3.24,0-6.68-.25-10.12,0-1.78.19-1.47.35-2,.24-8.56-.7-11.89-.48-21.24l.22,1.37a19,19,0,0,0-.17-4.61c.68-2.47-.42-8.35.31-11.5.13-4.14-.45-4.33-.56-7.57.15,0,.44,1,.51-.7-.24-10.61-.29-20.15-.41-31.85a5,5,0,0,1,.13,1c.06-7.57-.59-15-.38-21.32-.1-1.19-.23-4.72-.5-3.64,0,1.47-.38,1.68-.59,1.58-.3-5.6.49-2.75.4-6.49.52-1.19.34,2.35.81,2.35l-.34-5.41c.17-3-.13-6.09.12-8.75-.06,1.19.39.39.19,2.36,0-.3-.06-.1-.08-.4-.05,4.53.25,2.47.37,6.5-.14-3.54-.27-8.36-.16-11.51-.36.69-.16-2.55-.38-3.43l0-.2a12,12,0,0,1-.3-2.56l.45-.78c-.06-1.38-.23.39-.29-1-.11-1.95-.16-8.95.32-9.44,0-2.36-.3-3.05-.24-5.5a7.77,7.77,0,0,1,.23.88c.09-5.21-.06-11.6.21-16.53-.12-4-.19-7.46-.5-10,0,1.08-.07,4.23-.33,2.26-.19-1.08-.12-2.75-.2-4.42.23.39.22-4.23.38-.89.52-.84-.1-7.21.42-7.15-.16-.79-.07-5.53-.35-7.31.23-.39.16,2.56.31,2.56L348,199h.16c.13-4.14-.5-4.91-.6-7.37l.06.09-.08-1.66.41,2c-.06-2.66-.42-4-.51-7l.13-.29-.14-1.78c0,.3.08.4.12.21-.39-1.68-.24-5.51-.57-7.08.06-1.18.54-2.17.21-3.74l.49.29c.06,3.93-.35,1.47-.17,5.6.63-3,.56-11.6.51-17.31-.32-4.61.2-12.19-.52-14.15l.29.49.25-7.76c-.12-6.6.1-13.38-.3-18.39l.25-1.38c-.83-5.2-.35-17.7-1.34-21.13.22-2.94.38.89.55,1.18.08-2.17-.57-5.8-.12-7.87.16,0,.15,3,.24,1.68.29-1.58-.28-2.26,0-4-.3.78-.65-2.85-.7-5.5a5,5,0,0,1-.05.7c-.23.38-.18-1.59-.22-2.67a1.06,1.06,0,0,1,.09.39c-.39-13.65-.57-29.28-.28-43.64l.21,2.64a67.64,67.64,0,0,1,0-6.88l0,.3c.47-3.84-.45-4.33.09-7.28l.05.59c0-4.63.48-7.37.22-11.89.18-3.55.41-3.16.63-5.62a10.12,10.12,0,0,0-.36-3.14l0,1c-.28,1.08-.23-2.16-.35-3.64-.42,1.09-1.09.5-1.53,4.64.14,3-.69,3-.61,6.4.57,2-.43,4.92.08,8.05-.39-1.66-.21,3.74-.64,1-.31,1.28.33,6.68,0,9.15-.09-.41-.18-.31-.23-.89.23,3.44-.27,2.36-.27,4.91l.4-.09c.13,1-.15,1.28-.08,2.16,0-.7.24-2.16.4-1.39.1,1.18.23,2.17.23,3.44-.16,0-.23-.87-.28-1.47a16.62,16.62,0,0,1-.22,3,29.57,29.57,0,0,0-.36-3.13c-.12,3.63-.13.29-.45,2.06.48-.5.21,3.15.31,5.11-.19.2-.06-1.38-.2-1.87-.83,3.75.14,5.61,0,10.43a5,5,0,0,1-.13-1c.13,2.27-.31,3.85,0,5.32-.08,2.16-.53.39-.52,3.74.48-1-.09,3.93.43,4L342.62,71c.28,2.27.88-.6.93,3.83-.19,4-.86-.38-1.13,2l.28,1-.2,2,0-.3a12.06,12.06,0,0,1-.14,3.34c-.12-.19-.12-1.47-.24-1.66.26,2-.71,7.77.07,9.82-.14,1.16-.13,3.55-.38,3.25.34,1-.11,5.23.11,6.79-.12-.2-.31,1.28-.21,2.46.13-1.58.26-.59.45.48-.25,1.39,0,5.32-.45,5.91.22,2.17.52,1.38.82,1.85-.25,1.39-.2,5.82-.68,5,.06-1.18.15-3.84-.17-3.34-.17,2.26.14,1,.18,2.85-.08-.14-.29,1.26-.43.9,0,1.11,0,2.65,0,4.21.22-2.45.33,1.57.52.1l-.34-2.35c0-2.86.26-.6.38-1.68.09,5,.58,4,.81,8.74-.09.88-.22,2.45-.23,2.95,0-1.57-.46-1.27-.54-.38.36,2.64-.24,4.72-.32,6.88.1-1.87.39-.89.49-.2.27,4.52-.16,1.77-.36,3.74,0,7-.52,11.41-.23,17l.41-2.65-.38-.88c.3-2.07.85.38,1.1,1.56-.13.3-.06,3.74-.27,2.37l.17,3.34c.16-.5.09-2.66.27-1.1-.12,1.1-.2,4.53-.43,2.38,0,1.76.12,4,.35,3.63,0,2.85-.49-.29-.65-1.56,0,2.25-.35,2-.46,1.28l.05,3.14c-.11-.69-.26-.69-.37-1.37-.14,2.07.29,3.54,0,5.31l.32.78c-.26,5.7-.31,5.12-.34,10.43l.23-.88c.43,4-.38,2.94-.2,8.35.15,3,.25,5,.63,4.62a7.68,7.68,0,0,1-.22,3,28.86,28.86,0,0,1,.37,6.48c-.12-1.47-.22-2.65-.28-4-.38.4-.08,4.72-.26,7,.18,1.58.64,6.69,1,9.53.31-1.28.76-.79,1.07,1.76-.24-.39-.24,3.45-.41,5.21-.22-.87-.55,3.94-.65.21a11.19,11.19,0,0,0,.32-3,46.58,46.58,0,0,0-.72,5.71,10.36,10.36,0,0,1-.27-2.75C342,224.62,342.06,224.21,342.16,224.11Z"/><path class="cls-1" d="M346.9,579.79c0-.14,0-.27,0-.4l-.09.49C346.86,579.72,346.88,579.72,346.9,579.79Z"/><path class="cls-1" d="M342,300.81a1.67,1.67,0,0,0,.12.55A1.74,1.74,0,0,0,342,300.81Z"/><path class="cls-1" d="M342.27,354.38a.73.73,0,0,1,.1-.09S342.32,354.26,342.27,354.38Z"/><path class="cls-1" d="M344.22,583.26l-.08-1C344.14,582.65,344.18,582.81,344.22,583.26Z"/><path class="cls-1" d="M419.16,601.41h-.37A.85.85,0,0,0,419.16,601.41Z"/><path class="cls-1" d="M419.49,601.75h0Z"/><path class="cls-1" d="M323.35,600.26a.38.38,0,0,0,0,.1A.07.07,0,0,0,323.35,600.26Z"/><path class="cls-1" d="M414.85,601.56l.17,0C415.05,601.5,414.89,601.51,414.85,601.56Z"/><path class="cls-1" d="M401.54,600a.9.9,0,0,1-.16,0A.22.22,0,0,0,401.54,600Z"/><path class="cls-1" d="M327.8,606.31c-1.11.27.23.54.07.83.29-.08.92,0,.63-.24.58.58,1.75-.32,2.38.14,0-.06-.34-.25.09-.39.65-.06.61.21.87.33.19-.17,1.18-.28,1.08-.2.44-.15-.46-.57.15-.82.4-.39,1-.06,1.44-.17.58.27-.58.19-.82.32l1.64-.18c.48.21-.22.38-.7.34a1.63,1.63,0,0,0,1.69-.3,5.7,5.7,0,0,1,1,.13c-.39.18-.36.73-1,.83-1,0,.35-.43-.49-.51l-.07.33c-.36-.19-.65.06-1,.09-.22-.09.05-.12.19-.17-.7,0-1.25-.15-1.78.23.94.3,2.36-.11,2.77.27l1.87-.47c0-.15-.65-.4-.12-.62.22.39.77.56,1.49.63-.26-.42,1.16-.38.8-.72-.34.21-.51-.14-.56-.18.7,0,.1-.39.48-.41,1.28.09-.05.27,1.21.42a5.52,5.52,0,0,1-1.64.8c.05.19.7,0,1,.19-.41-.23.29-.4-.05-.5a30.58,30.58,0,0,1,3.42-.71c-.19.63-2.07.47-1.68,1.22.6-.1.59-.4,1.08-.36.41.38,1.42,0,2.24,0l-.37-.19a2.64,2.64,0,0,1,1.25,0l-.09.08.36-.12q.08,0,.06.06a15.35,15.35,0,0,1,2.15-.12c0-.31-.74,0-1.1-.05-.1-.07-.8-.2-.46-.41.93,0,1.59-.37,2.64-.36l-.33-.09c.33-.22.79-.11,1.29-.12.92.21-.67.42-.11.6-.36.27-1,0-1.08.36l.57.42c.48-.26,1,.13,1.35.07l-.36-.18c.07-.34.41-.09.58,0l-.25-.49c-.52-.08-.89.35-1.27.06.94-.15.72-.54,1.85-.56.05.19-.22.08-.33.22.38.13.79-.26,1.41-.11-.35.12-.93.31-.47.57l.33-.37c.29.06.17.2.29.22.41.07-.1-.38.55-.29.1.07.32.15.22.24.75,0,.36-.12,1.06-.3-.63,0-.65-.56,0-.62.91.06,1.53-.25,2.16.22l.41-.24c-.26.34.58.12.87.17.1.38-1.37,0-1.37.61.6.06.34.25.14.42.65-.06.24-.44.53-.69,0,.15,1.11,0,.73.38.55,0,.64-.37,1.05-.3a1,1,0,0,0-.09.54c0-.13.57,0,.67,0-.09-.07.19-.32-.29-.21.12-.3,1.13,0,1.11-.26.05.34,1,.07,1.54.21-.05-.81-.94.31-1.11-.36.67-.27,2.26,0,3.35-.38.93.15,0,.31.19.61-.87.13-1.08-.11-1.83,0a6.42,6.42,0,0,0,2.77-.19c.89,0,1,.81,2.07.6-.15-.25-.12-.32-.46-.41a3.29,3.29,0,0,1,.94,0c.19-.17-.48-.2-.05-.35.17.05.53.09.46.27l-.07,0c1-.24.74.63,1.63.13-.07-.13-.26,0-.48-.05s.38-.48.79-.57c-.07.18.36,0,.65.1.2.29-.72.08-.86.28l.79,0-.17,0,.87-.28c-.6.09-.29-.37,0-.41.6.06,1.21.12,1.14.45.07-.33.81-.32,1.34-.39-.57-.12-.07-.28.1-.39l.86.33c-.91.1.2.3,0,.52s-.82.17-1.3.12c.94.62,1.33-.33,2.14,0,0,.16-.07.34-.43.3.15.11.75-.3,1.3-.12-.14-.1-.46-.41.1-.54l.72.38c.84.08.29-.41,1-.59l-.45-.26c.07-.33.94,0,1-.36-.43,0-.68.27-1.13.16-.17-.35.58-.19.84-.38a4.07,4.07,0,0,1,1.44.45c0,.56-1.15.69-1,1.41a9.16,9.16,0,0,1,2.84-.06c.81-.16.74-.6.62-.92a1.17,1.17,0,0,1,.72.07l-.38.18a12.17,12.17,0,0,1,2.64-.36c.6-.1.36-.43.22-.69l.65-.06-.1-.07c.14-.36.72-.24,1.15-.23,0,.16-.26.19-.23.29a2,2,0,0,0,1.27-.06.56.56,0,0,1-.72.39c-.05,0,0-.09-.07-.13l-.77.2c.89-.19,1.42.2,1.4.57.89-.19-.73-.38.33-.52,1.4.72,2.65-.2,3.42.83a7.44,7.44,0,0,1,2.43-.6c0-.31.67-.12.58-.5-1-.4-1.81.6-2.58,0-.43.14-.29.4-.48.57-.38,0-.75,0-.79-.2.89-.19.23-.75,1.36-.76-.14-.27-1.06-.17-1.46-.24.12-.14,0-.31-.27-.43a12.73,12.73,0,0,1,1.27-.67c-.11.14.1.22,0,.31l1.17-.44c.37.18.46.41.27.58.65.09,1.75-.33,1.76.14.84-.07-.27-.28-.34-.41l.07,0-.89,0c-.1-.54,1,.13,1.15-.38.15-1,1.26.3,1.88.15l-.72.7.63-.15c-.36.27-.36.73-.91,1a16.73,16.73,0,0,0,2.64.1c.22.24.32.46.22.7.87-.44,1.35.23,2.1.24.79-.26-.8-.36-.22-.7.24.17.67,0,.89,0a4.72,4.72,0,0,1-1.66-.22c.43,0,.38-.34.5-.48l-.72-.07c.05-.43.89,0,1.22-.25-.21.38-.09.39-.31.77a3.91,3.91,0,0,1,2.1.08c.31.16-.26.19-.43.3.14.26.62-.15.74.17-.09.23-.38,0-.6.09l1.83.12c0,.15-.46.2-.74.14a1.51,1.51,0,0,0,1.61-.43c.62.16,1.34.38,1.13.61.29-.1.1-.24.09-.39.85.08.94-.47,1.44-.48l-.38-.28c.82.29.19-.48.91-.25a1.39,1.39,0,0,0,0,1c.12-.3.58,0,.89,0-.19-.3.68-.27.17-.57.72-.24,1.06.17,1.59-.21-.34-.1.62-.31.33-.53.7,0,1.18.34,1,.66-.24,0-.62-.16-.6.09l1.28-.06c.31.16.72.23.77.57.41-.39,1.2.27,1.51-.19-.43.3-.77-.11-.93-.15l.19-.07a.22.22,0,0,1-.1,0l.55-.59c-.53-.24-.09.39-.84.38-.65-.56,1.47-.84.79-1.19-.55-.17-.45.36-.91.56h.12l-1,.24c-.05-.19.26-.34.26-.34-1.25,0-1.45-.3-2.79-.37.1.07.36.65-.24.75-.43.14-.48-.2-.84-.24.21-.07.41-.39.69-.18l0-.4c1-.49.48-.88,1.85-1,.06-.3,1.06-.45,1.8-.36l-.36-.27c.77-.51.15.41,1.13,0,.41.53,1.16,1.16.61,1.6.7.13.93-.16,1.56-.16.39.44-.19.48-.12.92.46,0,1-.24.7-.49l.87.18c0,.09-.29.09-.41.08a1.77,1.77,0,0,0,1.18-.29c-.08,0-.29.1-.39,0a3.83,3.83,0,0,0,1.06-.45c-.53.22-.58-.28-1.13,0,.05-.12.14-.36.43-.3-.46-.26-.91-.21-1.11-.51a.6.6,0,0,0,.72-.14,2.39,2.39,0,0,0-1.27.12c-.05-.5-1.35.08-.89-.43-.07.18-.58.19-.85.08,0-.22.7-.34,1-.59,1.35-.24,0,.37.29.53l1,0c-.1-.07.41-.35-.26-.32a1.45,1.45,0,0,1,1.49-.29c.12-.14-.27-.12-.38-.13.11-.14.76-.66-.08-.75.24,0-.41.24,0,.41-.34.06-1.26-.16-.89-.43-.41.08-1.18.29-1.52.35-.1-.23.29-.1.46-.21l-1.18.14.33.24c-.86-.17-1.41.42-2.11.6.09-.39.67-.43,1.13-.63-.44-.47-.29.25-1,.18a.23.23,0,0,1-.08-.29l-.57.35c-.17,0-.07-.13,0-.16-1,.43,0,.56-1.3.74.8.2.68-.27,1.35-.24.38.29-.77.51-1,.68-.65-.1-.73-.69-1.54-.37.57-.19,0-.37.84-.38.45-.2-.25-.18-.34-.4-.22.07.14.41-.46.36l0-.06-1,.42c-.92-.21-2.07.48-2.69,0l.14.41c-.58,0-1.39.05-1.8.13.09-.23.48-.26.89-.34a5.37,5.37,0,0,0-2.65.51,6.49,6.49,0,0,0,1.06.48c-.67.58-.79-.36-1.66-.07,0-.41.26-.35.05-.74-.36.27-1,.21-1.37.45-.22-.39.16-.72,1.05-.76.68.35,1.42-.26,2,.07l-.34-.25a11.41,11.41,0,0,0,1.66-.24l0,.06.29-.4h-.31a2.91,2.91,0,0,1,1.06-.61c-1,.06-1,.7-1.49,1.06-.87,0-1.21-.73-1.79-.39,0-.19-.53-.39-.14-.57s.82.14.87-.13c-.51,0-.32-.15-1.09-.11-.14.36-.72.71-1.27,1a3.63,3.63,0,0,1-1.78.07c.58,0,1.15-.38,1-.64-.34.37-1.13-.3-1,.21-.68,0-1.81,0-1.88-.46.63-.16,1.25.11,1.79,0-.15,0-.29-.12-.21-.22l.8.05c-.6-.22-.48-.36-1.25-.31,0,0,.14.1.07.13h-.63l0-.4c-.58.19-1.69-.32-2.74,0l.09-.08c-.84-.08-.91.71-1.83.81.27-.19.15-.36.1-.55-.46.2-.7-.13-1.16-.23.53.23-.36.42,0,.55,0,.41-.91.41-1.4.36-.28-.52,1.5-.29.77-.82-.48,0-.6.25-.26.35a4.62,4.62,0,0,1-1.95-.44c-.72.39-1,.18-1.47.69.39,0,.41-.39.89-.19l-.53.38a9.31,9.31,0,0,1-1.73-.36l.51-.17,0,.07c.19-.17.84-.08.77-.36-.46.35-.82,0-1.42.26l0-.06c-1.06.3-1.84-.58-2.51.16.2,0,.58.27.46.41-.24-.18-.89-.12-.87-.33l.22-.07a3.3,3.3,0,0,0-1.18,0c-.17.26,0,.46-.43.6-1.06-.16.43-.6-.29-.83l-1,.27-.21-.23c-1.47-.24-2.6.55-4.17.55,0-.41,1.11-.57,1.49-.6-.48-.35-1.17.13-1.82-.12-.61-.05-1.06.3-1,.53-.74.14-.53-.24-.62-.31-.24.44-1.18.28-1.78.38l0-.25-.94.31c.25,0,0,.25,0,.4l-.24,0c.92.68,2.07-.48,3,.29-.29.1.1.23-.19.33s-.29-.06-.32-.16c-.14.2-.52.38,0,.37,0,.52-1,.39-1.73.57-.55-.33.58-.5.86-.75-.26,0-.48.26-.86.13l.09-.39c-1,.21-.26.34-.48.72s-.86,0-1.13,0l.29-.1c-.74-.16-.91.25-1.58.22l-.32-.31c.84.39,1-.55,1.51-.35-1.22-.36.27-.8.65-1.14a1.78,1.78,0,0,1-1.3-.19c-.77.52-1.61-.18-2.35.42-.41-.07.35-.27-.08-.28a7.64,7.64,0,0,0-2.48.25c-.43,0-.36-.19-.48-.36-2.09-.23-2.91.7-5.2.48l.34-.21c-.48,0-.89-.12-1.13.16-.6-.67-2,.42-2.81-.3-1-.13-1.06.45-1.86.56,0-.16.24-.45-.17-.52-2.59.24-4.93.29-7.79.41,0-.06.17-.1.24-.13-1.86,0-3.68.6-5.22.39-.29.09-1.16.22-.89.5.36,0,.41.37.38.59-1.37.3-.67-.5-1.59-.4-.28-.53.58-.35.58-.81l-1.32.33c-.75-.16-1.49.13-2.14-.11.29,0,.09-.4.57-.2-.07,0,0,.06-.09.09,1.1,0,.6-.25,1.59-.37a11.91,11.91,0,0,1-2.82.16c.17.35-.63.15-.84.37l-.05,0c0,.15-.48.26-.63.31l-.19-.45c-.34.06.1.22-.24.28s-2.19.16-2.31-.32c-.58,0-.75.3-1.35.24.05-.12.2-.16.22-.22a31.65,31.65,0,0,1-4.05-.21,7.82,7.82,0,0,0-2.45.5c.27,0,1,.07.56.33-.27.19-.68.12-1.09.2.1-.24-1-.23-.21-.39-.21-.52-1.77.1-1.75-.41-.2.15-1.36.06-1.79.34-.1-.23.63-.16.62-.31l-.53.07v-.15c-1-.13-1.2.5-1.8.59l0-.06-.4.09.48-.42c-.65.06-1,.43-1.71.51l-.07-.13-.44.14c.08,0,.1-.08,0-.12-.41.4-1.34.24-1.73.58-.29-.06-.53-.55-.92-.22l.08-.48c1-.06.36.34,1.37.16-.75-.63-2.84-.55-4.24-.51-1.13.32-3-.2-3.46.53l.12-.3-1.9-.25c-1.62.12-3.28-.1-4.5.3l-.34-.24c-1.27.83-4.33.34-5.17,1.34-.72-.23.21-.38.29-.56-.53-.08-1.42.57-1.93.12,0-.15.75-.14.41-.24-.39-.28-.55.29-1,0,.2.29-.69.64-1.34.7.12,0,.12,0,.17.05.09.22-.39.17-.65.21a.14.14,0,0,1,.09-.08,57.4,57.4,0,0,1-10.68.28l.65-.22a4.12,4.12,0,0,1-1.69,0l.08,0c-.94-.46-1.06.45-1.79-.08l.15-.05c-1.13,0-1.81-.49-2.91-.22-.87-.18-.77-.42-1.38-.63a.92.92,0,0,0-.77.35l.25,0c.26.27-.53.22-.89.34.26.43.12,1.09,1.13,1.53.75-.14.73.69,1.57.62.48-.57,1.2.42,2-.09-.41.39.91.22.24.64.32.31,1.64-.33,2.24,0-.1.08-.07.18-.22.22.85-.22.58.28,1.21.28l0-.41c.24-.13.32.16.53.09-.17,0-.53-.24-.34-.41a2.73,2.73,0,0,1,.85-.22c0,.15-.22.22-.37.27s.68,0,.73.22c-.24.13-.56.13-.77.36.89.12.07.13.51.45-.13-.47.77-.2,1.25-.31.05.19-.34.06-.46.2.92.83,1.37-.14,2.55,0,0,.06-.17.1-.24.13.55-.13.94.31,1.3,0,.53.09.1.54.92.52-.25-.48,1,.1,1-.42l.63.3c.55-.28-.15-.87.93-.92,1,.19-.09.85.49,1.12l.24-.28.48.2-.07,0c.29-.1.81,0,.82.14s-.37.12-.41.23c.48-.26,1.9.71,2.4-.07.29.14.87.14.8.39.25-.35,1.28.1,1.66-.12-.05.12.31.31.6.22-.38-.13-.14-.26.12-.45.34.25,1.3,0,1.45.45.53-.23.33-.53.45-.82.34.25,1.42.2,1.23.67-.29-.06-.94-.15-.82.17.56.17.24-.13.7-.18,0,.09.31.29.22.43a2.8,2.8,0,0,1,1,0c-.6-.21.39-.33,0-.52l-.57.35c-.7,0-.15-.27-.41-.38,1.22-.1,1-.59,2.14-.81a4.6,4.6,0,0,0,.72.22.28.28,0,0,0-.09.55c.64-.37,1.15.23,1.68.32-.46-.11-.22-.39-.05-.5,1.11-.26.44.16.92.37,1.7,0,2.79.52,4.16.22l-.65-.4-.22.37c-.5-.29.1-.85.38-1.1.08.13.92.06.58.27l.82-.16c-.12-.17-.65-.1-.27-.28.27.12,1.11.21.59.43.43,0,1-.12.89-.34.69,0-.08.48-.39.64.55,0,.48.35.32.46l.76,0c-.16.11-.16.26-.33.37.51.14.87-.28,1.3,0l.19-.33a10.33,10.33,0,0,0,2.55.35l-.21-.24c1-.43.72.38,2,.2.75-.14,1.23-.25,1.13-.63.43-.14.53.08.72.23.34-.22,1.06-.61,1.59-.37a6.68,6.68,0,0,1-1,.27c.1.38,1.16.08,1.71.26.39-.18,1.64-.64,2.34-1-.32-.31-.2-.76.43-1.07-.1.24.84.24,1.27.4-.21.23,1,.56,0,.65-.26-.12-.38-.44-.75-.32a4.23,4.23,0,0,0,1.4.73c0,.12-.36.27-.67.27C327.92,606.47,327.82,606.4,327.8,606.31Z"/><path class="cls-1" d="M414.85,601.56h-.1l.12.08S414.83,601.58,414.85,601.56Z"/><path class="cls-1" d="M346.57,606.45c.05,0,.13-.07.13-.12A.3.3,0,0,0,346.57,606.45Z"/><path class="cls-1" d="M359.68,606.19a.36.36,0,0,1,0-.1S359.65,606.14,359.68,606.19Z"/><path class="cls-1" d="M415.7,604.24l-.24.08C415.55,604.32,415.59,604.28,415.7,604.24Z"/></svg>